<?xml version="1.0" standalone="no"?>
<!DOCTYPE svg PUBLIC "-//W3C//DTD SVG 20010904//EN"
 "http://www.w3.org/TR/2001/REC-SVG-20010904/DTD/svg10.dtd">
<svg version="1.0" xmlns="http://www.w3.org/2000/svg"
 width="3000.000000pt" height="2000.000000pt" viewBox="0 0 3000.000000 2000.000000"
 preserveAspectRatio="xMidYMid meet">

<g transform="translate(0.000000,2000.000000) scale(0.100000,-0.100000)"
fill="#000000" stroke="none">
<path d="M10323 18265 c-223 -62 -382 -269 -383 -497 0 -123 35 -231 103 -321
21 -26 37 -48 37 -50 0 -1 -476 -2 -1057 -2 l-1058 0 -3 -52 -3 -52 -647 -3
c-713 -3 -678 0 -755 -67 -19 -18 -45 -51 -56 -75 l-21 -42 0 -5467 c0 -4917
2 -5471 16 -5505 19 -47 67 -97 119 -125 l40 -22 3885 -3 c3576 -2 3888 -1
3934 14 69 23 130 87 151 156 14 48 15 600 13 5503 l-3 5450 -21 40 c-28 51
-68 91 -119 119 -40 21 -44 21 -787 24 l-748 3 0 49 0 50 -1060 0 c-583 0
-1060 2 -1060 5 0 3 16 26 37 52 74 98 109 218 101 350 -13 205 -143 378 -340
455 -70 27 -240 34 -315 13z m252 -206 c76 -28 156 -108 184 -184 57 -151 -5
-315 -149 -394 -60 -33 -71 -36 -150 -36 -79 0 -90 3 -150 36 -116 64 -178
177 -167 306 17 211 232 347 432 272z m-2580 -1374 c48 -137 147 -250 277
-316 125 -63 -10 -60 2220 -57 l2033 3 59 23 c172 65 295 191 348 353 l22 69
503 0 503 0 1 -1672 c1 -920 5 -2260 8 -2978 6 -1086 7 -811 9 1638 l2 2942
45 0 45 0 0 -5160 0 -5160 -3515 0 -3516 0 3 138 3 137 2940 5 c1617 3 2621 6
2230 8 -390 1 -1733 2 -2982 2 l-2273 0 0 5050 0 5050 505 -2 506 -3 24 -70z"/>
<path d="M9982 15218 c-32 -32 8 -80 48 -58 34 18 19 70 -20 70 -9 0 -21 -5
-28 -12z"/>
<path d="M9840 15030 l0 -180 30 0 30 0 0 180 0 180 -30 0 -30 0 0 -180z"/>
<path d="M12430 15030 c0 -153 2 -180 15 -180 13 0 15 27 15 180 0 153 -2 180
-15 180 -13 0 -15 -27 -15 -180z"/>
<path d="M8898 15191 c-94 -30 -144 -124 -118 -219 14 -54 68 -109 116 -118
20 -4 51 -19 69 -35 43 -38 82 -51 126 -44 49 8 72 33 54 58 -12 17 -14 17
-43 0 -26 -15 -34 -15 -58 -4 -27 12 -28 14 -10 25 77 46 106 92 106 167 0 65
-29 119 -81 148 -43 25 -120 35 -161 22z m140 -85 c33 -31 37 -39 37 -85 0
-43 -5 -55 -31 -82 -78 -77 -204 -27 -204 81 0 69 51 119 123 120 29 0 46 -8
75 -34z"/>
<path d="M10852 15188 c-114 -26 -165 -165 -97 -269 31 -47 79 -69 152 -69 69
0 133 31 113 55 -10 12 -16 11 -43 -6 -41 -25 -103 -24 -145 1 -81 50 -95 151
-29 217 46 47 117 57 171 25 29 -17 37 -18 46 -7 9 11 5 18 -22 35 -18 11 -40
20 -48 20 -8 0 -24 2 -35 4 -11 2 -39 0 -63 -6z"/>
<path d="M10130 15140 c0 -23 -4 -30 -20 -30 -15 0 -20 -7 -20 -25 0 -18 5
-25 20 -25 18 0 20 -7 20 -76 0 -72 10 -111 34 -126 16 -11 104 -10 110 1 13
20 -7 41 -39 41 -40 0 -45 11 -45 96 l0 64 35 0 c31 0 35 3 35 25 0 22 -4 25
-35 25 -32 0 -35 2 -35 30 0 27 -3 30 -30 30 -27 0 -30 -3 -30 -30z"/>
<path d="M11730 15135 c0 -18 -5 -25 -20 -25 -11 0 -20 -7 -20 -15 0 -8 9 -15
20 -15 18 0 20 -7 20 -79 0 -94 14 -139 45 -147 38 -10 80 0 83 18 3 15 -2 17
-27 12 -51 -11 -61 6 -61 107 l0 89 40 0 c29 0 40 4 40 15 0 11 -11 15 -40 15
-36 0 -40 3 -40 25 0 18 -5 25 -20 25 -15 0 -20 -7 -20 -25z"/>
<path d="M9200 15025 c0 -93 16 -147 48 -164 28 -15 115 -14 131 2 11 10 14
10 18 0 3 -7 18 -13 34 -13 l29 0 0 130 0 130 -30 0 -30 0 0 -69 c0 -84 -11
-117 -44 -132 -64 -30 -96 15 -96 132 l0 69 -30 0 -30 0 0 -85z"/>
<path d="M9553 15098 c-27 -13 -28 -18 -10 -42 11 -15 17 -16 35 -7 36 19 89
14 106 -11 9 -12 16 -26 16 -30 0 -5 -29 -8 -65 -8 -57 0 -69 -3 -90 -25 -30
-30 -32 -64 -4 -99 17 -22 28 -26 70 -26 28 0 59 5 70 10 13 7 19 7 19 0 0 -5
14 -10 31 -10 l31 0 -4 106 c-3 102 -4 107 -31 130 -23 20 -38 24 -90 23 -34
0 -72 -5 -84 -11z m147 -153 c0 -22 -37 -55 -61 -55 -47 0 -73 32 -47 58 18
18 108 16 108 -3z"/>
<path d="M9980 14980 l0 -130 30 0 30 0 0 130 0 130 -30 0 -30 0 0 -130z"/>
<path d="M10336 14983 c57 -132 62 -166 24 -178 -10 -3 -28 -1 -39 5 -17 8
-22 6 -32 -12 -10 -18 -8 -24 7 -35 24 -17 68 -17 103 2 28 14 40 37 140 270
29 67 29 70 10 73 -35 6 -43 -4 -79 -92 -19 -47 -38 -86 -41 -86 -3 0 -23 41
-43 90 -37 88 -39 90 -71 90 l-33 0 54 -127z"/>
<path d="M11133 15095 c-60 -26 -90 -113 -59 -172 27 -52 62 -73 123 -73 49 0
59 4 89 34 30 30 34 40 34 85 0 65 -20 104 -64 125 -41 19 -80 20 -123 1z
m106 -30 c58 -29 66 -124 14 -165 -62 -48 -153 -3 -153 77 0 81 69 125 139 88z"/>
<path d="M11400 14980 c0 -105 3 -130 14 -130 11 0 15 21 18 90 4 108 21 135
88 135 63 0 74 -19 78 -130 3 -73 7 -95 18 -95 11 0 14 21 14 99 0 89 -2 103
-23 126 -31 37 -94 45 -142 17 -34 -21 -35 -21 -35 -2 0 11 -7 20 -15 20 -13
0 -15 -21 -15 -130z"/>
<path d="M11930 14980 c0 -109 2 -130 15 -130 12 0 15 14 15 70 0 89 18 134
58 148 17 6 33 8 36 5 3 -4 6 3 6 15 0 28 -24 28 -67 2 -33 -20 -33 -20 -33 0
0 11 -7 20 -15 20 -13 0 -15 -21 -15 -130z"/>
<path d="M12163 15095 c-83 -36 -95 -158 -22 -220 44 -36 125 -36 168 1 70 58
57 180 -23 218 -41 19 -80 20 -123 1z m106 -30 c86 -44 51 -185 -46 -185 -96
0 -130 139 -45 184 35 19 56 20 91 1z"/>
<path d="M7851 13992 c-19 -9 -44 -30 -55 -45 -20 -27 -21 -43 -24 -355 -3
-361 -1 -370 61 -416 27 -20 40 -21 365 -21 466 0 427 -39 427 427 0 463 35
428 -425 428 -280 0 -319 -2 -349 -18z m607 -212 c-3 -23 -293 -330 -311 -330
-20 0 -149 159 -143 175 10 28 34 15 90 -47 l55 -63 136 143 c133 138 181 172
173 122z"/>
<path d="M9650 13910 c-305 -3 352 -5 1460 -6 1258 0 1780 2 1390 7 -707 7
-2024 7 -2850 -1z"/>
<path d="M9415 13630 c-165 -3 598 -6 1695 -6 1097 0 1844 3 1660 7 -392 7
-2917 7 -3355 -1z"/>
<path d="M9205 13280 c-60 -3 266 -6 725 -6 459 0 781 3 715 6 -146 9 -1286 8
-1440 0z"/>
<path d="M7843 12484 c-20 -10 -40 -32 -53 -58 -19 -40 -20 -61 -20 -352 0
-282 2 -313 19 -351 33 -73 36 -73 411 -73 375 0 374 0 410 75 19 38 20 63 20
341 0 166 -5 315 -10 335 -5 19 -24 48 -41 65 l-30 29 -337 2 c-293 3 -341 1
-369 -13z m612 -211 c0 -24 -287 -323 -309 -323 -18 0 -146 145 -146 164 0 8
7 17 16 20 14 5 51 -29 111 -102 l18 -23 145 146 c80 80 149 144 155 142 5 -2
10 -13 10 -24z"/>
<path d="M9330 12400 c-63 -3 738 -6 1780 -6 1042 0 1837 3 1765 7 -156 8
-3380 8 -3545 -1z"/>
<path d="M9340 12120 c123 -10 3414 -10 3545 0 55 3 -741 7 -1770 7 -1028 0
-1827 -4 -1775 -7z"/>
<path d="M9195 11770 c39 -4 369 -8 735 -8 366 0 697 4 735 8 39 4 -292 7
-735 7 -443 0 -773 -3 -735 -7z"/>
<path d="M7834 10971 c-61 -37 -64 -55 -64 -403 0 -349 2 -360 69 -405 34 -23
38 -23 360 -23 460 0 425 -33 429 409 3 354 -1 385 -62 422 -29 18 -54 19
-366 19 -310 0 -337 -1 -366 -19z m624 -205 c3 -13 -41 -64 -149 -172 -85 -85
-159 -154 -166 -154 -18 0 -144 152 -140 170 6 33 36 19 89 -44 l56 -65 139
144 c76 79 145 143 153 142 8 -1 16 -11 18 -21z"/>
<path d="M9425 10889 c160 -3 918 -6 1685 -6 767 0 1526 3 1685 6 160 4 -599
7 -1685 7 -1086 0 -1844 -3 -1685 -7z"/>
<path d="M9655 10609 c732 -8 2191 -8 2915 0 340 4 -243 7 -1460 7 -1220 0
-1798 -3 -1455 -7z"/>
<path d="M9503 10258 c259 -6 595 -6 855 0 411 8 394 9 -428 9 -822 0 -839 -1
-427 -9z"/>
<path d="M7851 9472 c-19 -9 -44 -30 -55 -45 -20 -27 -21 -43 -24 -355 -3
-361 -1 -370 61 -416 27 -20 40 -21 365 -21 466 0 427 -39 427 427 0 463 35
428 -425 428 -280 0 -319 -2 -349 -18z m607 -212 c-3 -23 -293 -330 -311 -330
-20 0 -149 159 -143 175 10 28 34 15 89 -47 l56 -63 137 143 c132 137 180 172
172 122z"/>
<path d="M9665 9390 c-313 -3 337 -5 1445 -6 1263 0 1778 2 1380 7 -719 7
-1978 7 -2825 -1z"/>
<path d="M9420 9110 c-168 -3 593 -6 1690 -6 1097 0 1842 3 1655 7 -398 7
-2901 7 -3345 -1z"/>
<path d="M9205 8760 c-60 -3 266 -6 725 -6 459 0 781 3 715 6 -146 9 -1286 8
-1440 0z"/>
<path d="M13970 8511 c0 -27 -270 -175 -431 -236 -103 -40 -300 -90 -419 -106
-157 -22 -423 -15 -585 16 l-30 6 -54 -133 c-67 -166 -227 -497 -310 -643
-192 -335 -405 -598 -572 -707 -27 -17 -47 -33 -45 -36 16 -16 635 281 886
426 485 279 882 577 1169 878 125 131 209 235 310 384 91 135 106 160 91 160
-5 0 -10 -4 -10 -9z m-119 -169 c-372 -543 -1140 -1120 -2056 -1545 -198 -92
-235 -107 -195 -79 218 153 454 473 685 932 79 157 187 395 224 491 9 25 12
26 53 18 24 -4 104 -13 179 -20 359 -31 763 60 1084 244 44 26 81 47 83 47 2
0 -24 -40 -57 -88z"/>
<path d="M17625 15451 c132 -6 136 -6 70 -13 -38 -5 -111 -8 -162 -8 -91 0
-92 0 -116 -31 -17 -22 -49 -41 -108 -64 -115 -44 -258 -117 -292 -149 -36
-34 -54 -77 -77 -189 -21 -102 -53 -366 -48 -396 3 -16 14 -14 117 31 63 26
116 46 119 43 5 -5 -79 -44 -211 -100 -86 -36 -117 -64 -117 -106 0 -43 43
-80 130 -113 39 -14 78 -26 86 -26 9 0 14 -11 15 -32 3 -165 22 -234 80 -282
26 -22 39 -26 63 -22 69 14 96 66 105 207 7 99 10 112 41 161 54 86 70 120 70
154 0 37 1 38 145 54 194 21 405 6 605 -45 141 -35 137 -32 142 -114 2 -39 7
-73 11 -77 19 -19 189 47 232 90 50 50 17 117 -79 163 -31 14 -33 19 -76 191
-83 340 -74 317 -154 397 -82 83 -167 137 -284 181 -71 26 -86 36 -100 65
l-17 34 -165 1 -165 0 140 -5z m-59 -301 c-4 -96 -11 -193 -16 -215 -7 -29 -8
-9 -5 75 3 63 5 176 6 250 1 110 3 128 11 100 7 -22 8 -99 4 -210z m189 -321
c-38 -4 -161 -15 -273 -24 -112 -9 -216 -21 -230 -26 -15 -5 -37 -22 -49 -37
-13 -15 -23 -21 -23 -14 0 22 46 60 86 71 33 8 152 22 309 34 22 2 87 4 145 4
104 0 104 0 35 -8z"/>
<path d="M22896 14816 c-13 -28 -26 -38 -69 -52 -153 -50 -317 -171 -363 -267
-8 -18 -39 -128 -68 -246 -33 -136 -58 -217 -67 -220 -38 -16 -101 -64 -111
-86 -24 -54 44 -116 165 -151 l63 -18 12 -105 c6 -58 20 -131 31 -161 l20 -55
0 59 c1 88 29 261 53 323 24 66 52 85 155 108 43 10 85 26 100 39 l27 23 30
-30 c52 -51 123 -77 236 -86 86 -7 104 -11 126 -32 14 -13 30 -32 35 -42 9
-15 5 -15 -31 4 -64 33 -199 18 -176 -20 4 -6 28 -11 53 -11 26 0 74 -5 109
-11 61 -10 62 -12 78 -53 27 -70 80 -123 167 -166 43 -22 86 -51 95 -65 11
-17 20 -63 26 -128 8 -77 16 -113 34 -146 l25 -45 -1 -360 c0 -199 -1 -368 0
-377 0 -11 13 -18 40 -23 22 -3 40 -9 40 -11 0 -3 -45 -96 -100 -208 -248
-504 -464 -836 -595 -913 -38 -22 -45 -32 -54 -72 -22 -106 -60 -446 -86 -787
-8 -110 -18 -228 -21 -262 l-6 -63 36 0 c33 0 223 -35 351 -66 l60 -14 305
101 c168 56 309 105 314 110 5 4 40 135 78 291 84 342 84 345 2 513 -177 366
-165 704 42 1165 35 79 65 80 146 2 21 -20 39 -34 41 -31 2 2 21 51 43 109 34
93 39 115 39 191 0 103 -11 123 -117 212 -89 76 -106 118 -90 225 25 164 12
216 -72 285 -28 23 -74 65 -102 92 l-52 50 20 60 c14 43 19 75 15 112 -9 82
-39 124 -139 194 -48 34 -88 67 -88 73 0 6 22 19 48 28 67 24 115 59 126 91
19 54 -17 80 -267 188 -27 11 -47 23 -44 25 3 3 49 -13 104 -36 54 -23 104
-44 112 -48 12 -4 13 9 7 79 -19 230 -62 431 -104 481 -25 30 -217 128 -321
164 -35 13 -56 26 -62 41 -12 32 -65 43 -207 43 -80 0 -121 4 -117 10 4 6 -8
10 -28 10 -30 0 -37 -5 -51 -34z m278 -418 c2 -38 1 -68 -3 -68 -14 0 -21 114
-20 294 l2 171 8 -165 c4 -91 10 -195 13 -232z m111 -153 c77 -8 149 -17 160
-21 28 -10 65 -45 65 -61 0 -8 -9 -3 -22 12 -33 38 -85 46 -483 74 l-110 8
125 1 c69 1 188 -5 265 -13z"/>
<path d="M23130 14844 c58 -8 148 -8 143 -1 -2 4 -41 6 -86 6 -45 -1 -71 -3
-57 -5z"/>
<path d="M17526 14516 c-42 -16 -84 -51 -73 -62 3 -4 40 -1 82 5 42 6 93 11
115 11 48 0 58 14 25 36 -35 23 -102 27 -149 10z"/>
<path d="M18035 14490 c-23 -9 -50 -38 -43 -45 3 -3 45 -6 93 -8 100 -2 117
10 63 43 -34 21 -78 25 -113 10z"/>
<path d="M18056 14335 c-73 -26 -77 -52 -5 -36 28 6 59 7 84 1 60 -14 70 -13
55 6 -30 35 -83 47 -134 29z"/>
<path d="M17544 14329 c-31 -9 -61 -35 -52 -45 3 -2 25 0 49 5 28 6 59 7 84 1
51 -12 55 -12 55 0 0 29 -86 54 -136 39z"/>
<path d="M17846 14303 c3 -16 35 -106 71 -201 35 -95 61 -177 58 -182 -4 -6
-21 -10 -38 -11 -18 0 -41 -4 -52 -9 -14 -6 -4 -9 37 -9 52 -1 88 14 88 37 0
13 -98 269 -129 336 -31 69 -46 85 -35 39z"/>
<path d="M18068 14278 c-24 -20 -28 -44 -12 -67 19 -26 55 -27 77 -3 22 24 21
45 -1 65 -22 20 -43 22 -64 5z"/>
<path d="M17544 14245 c-15 -23 -15 -27 0 -51 23 -33 64 -30 85 8 14 24 14 28
-3 47 -26 29 -62 27 -82 -4z"/>
<path d="M16919 14143 c-8 -9 -14 -40 -14 -74 0 -47 4 -62 24 -83 25 -26 55
-34 65 -17 4 5 -2 7 -13 4 -25 -6 -57 30 -65 72 -9 48 17 109 44 102 11 -3 20
-1 20 4 0 16 -47 10 -61 -8z"/>
<path d="M22650 13873 c-23 -9 -50 -35 -45 -44 3 -4 36 -6 73 -4 37 3 75 5 85
5 26 0 20 18 -13 35 -29 15 -71 18 -100 8z"/>
<path d="M17704 13845 c-8 -20 13 -79 34 -98 28 -26 93 -49 118 -43 28 7 32
26 7 26 -10 0 -36 9 -59 19 -31 14 -47 30 -63 65 -25 50 -29 53 -37 31z"/>
<path d="M22612 13754 c-30 -21 -28 -36 4 -24 14 6 43 10 64 10 21 0 50 -4 64
-10 16 -6 26 -6 26 0 0 19 -46 40 -90 40 -25 0 -56 -7 -68 -16z"/>
<path d="M22891 13708 c-49 -114 -121 -311 -121 -329 0 -25 30 -39 82 -38 l43
1 -47 12 c-25 6 -49 14 -53 18 -4 3 16 66 43 140 62 165 85 238 79 244 -2 2
-14 -19 -26 -48z"/>
<path d="M23102 13744 c-36 -25 -25 -33 23 -19 31 10 54 11 77 4 53 -15 66
-11 39 11 -29 25 -107 27 -139 4z"/>
<path d="M22638 13679 c-27 -15 -24 -67 5 -78 46 -18 86 38 52 73 -19 18 -33
20 -57 5z"/>
<path d="M23132 13683 c-44 -18 -31 -83 16 -83 50 0 69 42 34 73 -19 17 -28
19 -50 10z"/>
<path d="M17541 13359 c23 -44 102 -111 163 -140 65 -30 149 -49 224 -49 l42
0 0 45 0 45 -39 0 c-93 0 -275 51 -359 100 -42 25 -45 25 -31 -1z"/>
<path d="M23032 13284 c-18 -43 -59 -79 -107 -95 l-40 -14 43 -3 c71 -5 126
46 120 110 l-3 33 -13 -31z"/>
<path d="M17729 12948 l-14 -72 -65 -12 c-36 -7 -68 -9 -73 -5 -4 4 -20 38
-36 75 l-28 67 -51 -123 c-28 -68 -63 -154 -78 -193 -15 -38 -30 -74 -34 -78
-5 -5 -69 48 -143 118 -197 184 -207 183 -22 -4 88 -88 163 -161 167 -161 3 0
14 21 24 46 14 37 21 44 38 40 12 -2 49 -10 82 -16 49 -10 66 -18 83 -41 l21
-28 -15 -593 c-8 -326 -15 -610 -15 -630 l0 -38 -223 0 c-245 0 -261 -3 -259
-56 0 -16 10 -74 22 -128 14 -71 26 -103 40 -113 10 -7 31 -40 46 -72 14 -33
36 -69 48 -80 46 -43 169 -66 218 -40 11 6 67 46 124 90 124 94 148 103 181
65 13 -15 23 -35 23 -44 0 -9 -26 -39 -57 -67 -222 -195 -204 -210 122 -105
201 65 221 67 265 32 32 -26 21 -49 -37 -74 -122 -53 -256 -119 -251 -123 3
-3 52 6 109 19 189 44 270 57 285 45 8 -7 14 -7 14 -2 0 6 16 143 35 306 19
163 32 303 28 312 -10 28 -50 35 -203 35 l-149 0 -10 53 c-6 28 -53 306 -106
617 -53 311 -98 577 -101 592 -4 20 -1 28 14 32 11 4 23 18 26 32 4 15 20 31
41 41 33 16 36 16 48 -1 12 -17 18 -14 77 33 60 49 170 167 170 184 0 4 -28
-22 -61 -58 -59 -63 -148 -135 -165 -135 -5 0 -38 75 -73 165 -35 91 -65 165
-66 165 -2 0 -9 -32 -16 -72z m-173 -119 c-9 -16 -12 -16 -43 -1 -38 18 -39
25 -17 78 l16 38 27 -50 c20 -36 24 -53 17 -65z m211 24 c-24 -24 -40 -6 -32
36 10 54 17 58 33 17 13 -33 13 -39 -1 -53z m-33 -1689 c9 -8 16 -22 16 -29 0
-19 -28 -45 -49 -45 -39 0 -57 60 -23 79 24 15 38 13 56 -5z"/>
<path d="M22860 12651 c-53 -16 -88 -41 -114 -83 -43 -65 -76 -97 -128 -124
-25 -13 -63 -35 -84 -49 -45 -31 -54 -31 -55 -2 -1 19 -2 18 -9 -7 -5 -16 -18
-38 -28 -50 -11 -11 -27 -52 -35 -91 -9 -38 -56 -239 -106 -445 -128 -534
-161 -687 -161 -742 0 -47 25 -300 35 -365 l6 -33 -426 0 c-375 0 -425 2 -425
15 0 9 32 127 70 264 39 136 70 255 70 264 0 47 -81 75 -112 40 -9 -10 -57
-144 -106 -298 l-90 -280 -316 -3 c-174 -1 -316 -5 -316 -7 0 -7 1240 -1519
1248 -1522 4 -2 24 39 45 91 l38 93 292 -103 c161 -56 361 -126 446 -155 l154
-53 -7 -95 c-18 -269 -18 -271 -35 -271 -14 0 -958 172 -1017 185 -18 4 -25
-9 -62 -118 -23 -67 -42 -125 -42 -129 0 -5 8 -8 18 -8 17 0 15 -12 -24 -127
-52 -153 -90 -300 -104 -405 -12 -87 -9 -143 91 -1603 64 -944 294 -4256 305
-4392 l7 -83 153 0 154 0 0 -42 c0 -24 3 -60 6 -81 7 -37 7 -37 -24 -31 -40 8
-57 -21 -47 -83 5 -34 16 -54 47 -85 l41 -41 9 -140 c8 -112 7 -141 -3 -148
-8 -4 -10 -11 -6 -15 9 -9 -90 -53 -120 -54 -13 0 -23 -4 -23 -9 0 -10 -104
-61 -125 -61 -8 0 -15 -4 -17 -9 -1 -5 -46 -30 -98 -56 -88 -44 -255 -145
-248 -150 2 -1 280 15 618 36 338 21 633 38 654 39 l39 0 -7 257 c-3 142 -9
351 -13 465 l-6 208 26 0 c14 0 28 -6 30 -12 4 -10 6 -10 6 0 1 8 19 12 57 12
l55 0 -6 118 c-13 245 -205 5699 -203 5742 2 30 94 -406 286 -1355 718 -3552
918 -4534 922 -4538 3 -3 41 1 85 8 44 7 81 12 82 10 3 -2 194 -669 224 -783
l15 -53 494 -304 495 -305 23 26 c37 43 30 84 -38 200 -33 56 -60 107 -60 112
0 5 -7 15 -15 22 -8 7 -15 16 -15 21 0 5 638 10 1478 11 l1477 3 -1485 5
-1484 5 -128 219 c-70 120 -126 222 -123 226 3 5 1 10 -3 12 -16 6 -96 371
-93 425 2 39 -2 54 -15 61 -11 6 -24 43 -39 110 l-22 101 21 5 c12 2 47 8 79
12 32 3 61 12 63 18 3 7 -23 225 -56 486 -234 1835 -750 5881 -750 5884 0 2
23 6 50 8 28 3 53 7 55 10 6 5 -74 279 -85 291 -3 4 -334 -28 -735 -73 -401
-44 -733 -80 -738 -80 -6 0 -7 67 -3 188 4 103 8 188 9 189 3 2 376 82 482
102 140 28 826 178 830 183 3 3 -103 368 -109 375 -1 1 -116 -28 -256 -66
-213 -57 -257 -66 -265 -54 -7 9 -42 17 -90 22 -76 8 -83 6 -136 -20 -48 -24
-81 -31 -210 -44 -283 -28 -306 -26 -327 34 -7 21 -19 31 -41 36 -48 10 -90
51 -97 93 -5 29 -13 41 -37 53 -18 9 -41 33 -52 55 -11 21 -20 40 -20 41 0 1
-63 5 -140 8 -158 8 -194 20 -195 62 0 31 47 43 191 49 79 3 153 7 164 9 11 2
57 4 103 4 90 1 122 18 122 65 0 13 -9 35 -20 49 -32 41 -26 47 49 47 43 0 73
5 77 12 4 6 26 270 50 586 l42 574 -51 66 c-61 81 -121 205 -143 298 -12 52
-16 112 -15 244 3 248 14 288 126 425 56 68 65 85 65 120 0 22 3 84 6 138 7
104 7 104 -46 88z m-670 -10903 c11 -24 20 -63 20 -87 0 -38 -2 -42 -16 -30
-42 35 -63 159 -27 159 2 0 13 -19 23 -42z m2385 -293 c30 -29 32 -58 5 -85
-28 -28 -64 -25 -89 6 -28 36 -26 58 5 83 34 27 50 26 79 -4z m-1893 -102 c10
-9 18 -26 18 -39 0 -57 -81 -73 -109 -23 -13 24 -13 29 2 53 20 30 61 35 89 9z"/>
<path d="M19546 11788 c-4 -59 -4 -151 1 -205 l8 -98 5 150 5 150 19 -60 c25
-80 93 -246 106 -259 12 -12 4 12 -78 254 l-59 175 -7 -107z"/>
<path d="M18040 11745 l0 -75 230 0 230 0 0 75 0 75 -230 0 -230 0 0 -75z"/>
<path d="M16642 11278 c-109 -352 -170 -552 -167 -556 4 -5 589 39 595 45 5 5
-113 0 -410 -17 -85 -5 -155 -8 -156 -7 -1 1 22 83 52 182 89 297 176 606 171
611 -2 2 -41 -114 -85 -258z"/>
<path d="M18010 10510 c-107 -32 -229 -68 -270 -80 -41 -12 -128 -38 -193 -57
-100 -30 -129 -35 -187 -31 l-68 5 2 -30 c1 -29 -2 -31 -89 -65 -286 -110
-972 -397 -990 -414 -22 -21 629 239 925 369 80 36 151 67 158 70 7 3 12 -3
12 -17 0 -12 13 -35 29 -51 l29 -29 245 0 c206 0 247 -2 257 -15 10 -12 11
-83 6 -323 -3 -169 -8 -336 -10 -372 l-5 -65 9 55 c13 84 32 356 39 545 l6
170 123 5 c162 7 150 -9 177 225 18 168 18 165 3 164 -7 0 -101 -27 -208 -59z"/>
<path d="M17852 9370 c0 -19 2 -27 5 -17 2 9 2 25 0 35 -3 9 -5 1 -5 -18z"/>
<path d="M16504 9335 c-2 -5 -12 -68 -23 -140 -11 -71 -227 -1462 -481 -3090
-253 -1628 -508 -3262 -565 -3632 -58 -370 -105 -688 -105 -708 0 -91 64 -156
161 -163 32 -2 59 -7 59 -9 0 -12 -32 -129 -38 -138 -4 -5 -7 -15 -8 -21 -1
-6 -41 -78 -90 -160 -48 -82 -109 -188 -137 -236 -27 -49 -54 -88 -60 -88 -5
0 -7 -3 -4 -6 3 -4 2 -15 -4 -25 -9 -19 -138 -19 -5077 -18 -4888 1 -5064 2
-4977 19 290 57 513 226 640 483 87 177 88 189 93 704 l3 453 -448 0 c-937 1
-1327 -1 -1330 -4 -2 -1 -4 -196 -4 -432 -1 -479 3 -521 66 -667 54 -128 95
-187 195 -287 136 -136 279 -213 460 -247 93 -18 67 -18 -1510 -23 -976 -3
1033 -8 5125 -13 3702 -5 6731 -10 6733 -12 2 -2 -17 -38 -42 -81 -25 -43 -46
-91 -46 -106 0 -35 18 -75 37 -83 9 -3 215 117 508 297 l492 303 58 183 c54
168 60 183 84 188 53 10 96 41 119 85 17 34 54 221 161 829 457 2586 1016
5729 1018 5726 2 -2 -26 -1400 -61 -3107 -36 -1707 -67 -3191 -68 -3297 l-3
-194 28 -24 c21 -18 40 -24 73 -24 l45 0 -7 -245 c-4 -145 -3 -245 2 -245 14
0 1217 -78 1317 -86 48 -3 87 -3 87 0 0 11 -161 111 -267 166 -57 30 -103 57
-103 62 0 4 -9 8 -20 8 -27 0 -130 52 -124 62 3 4 -6 8 -20 8 -33 0 -147 50
-140 61 3 5 0 9 -5 9 -12 0 -15 107 -5 159 l7 31 72 0 c64 0 77 3 103 25 28
23 30 29 36 127 4 57 7 146 7 198 0 52 31 1721 69 3708 39 1987 70 3630 70
3651 l0 38 -367 6 c-203 4 -577 10 -833 13 -256 3 -575 9 -709 13 -159 4 -245
3 -247 -4z m1464 -77 c15 -15 16 -201 2 -229 -10 -18 -23 -19 -195 -19 -154 0
-186 3 -199 16 -12 12 -16 37 -16 110 0 143 -14 134 208 134 133 0 192 -4 200
-12z m-1890 -7704 c12 -8 22 -26 22 -38 0 -64 -82 -93 -116 -41 -39 59 34 122
94 79z m1809 -126 c33 -27 -1 -108 -45 -108 -56 0 -82 70 -41 111 21 21 59 20
86 -3z"/>
<path d="M17620 9145 l0 -65 150 0 150 0 0 65 0 65 -150 0 -150 0 0 -65z"/>
<path d="M4250 8661 c-72 -22 -140 -79 -192 -161 -91 -142 -101 -400 -23 -593
l27 -68 -16 -117 c-9 -64 -19 -166 -22 -227 -3 -60 -8 -117 -10 -125 -3 -7
-18 23 -33 68 -34 98 -91 199 -177 316 -94 126 -150 153 -213 100 -56 -47 -74
-153 -46 -273 45 -188 172 -303 376 -339 l88 -15 5 -71 c16 -226 28 -361 40
-441 8 -49 13 -91 12 -92 -1 -2 -23 26 -49 60 -101 138 -235 251 -355 299 -47
18 -76 22 -167 23 -100 0 -115 -3 -166 -27 -116 -58 -174 -146 -174 -268 0
-64 4 -82 28 -123 52 -88 178 -156 356 -192 155 -31 386 -18 523 31 30 10 40
11 42 1 2 -7 24 -97 49 -202 26 -104 57 -229 71 -277 13 -49 20 -88 15 -88 -5
0 -9 4 -9 10 0 15 -129 118 -195 155 -97 54 -182 75 -299 75 -154 -1 -276 -51
-327 -134 -74 -121 52 -244 320 -312 159 -41 380 -29 521 26 l48 19 16 -57 c8
-31 77 -246 151 -477 177 -546 268 -863 330 -1145 3 -14 -27 41 -67 121 -62
124 -195 336 -269 430 -14 18 -33 84 -60 210 -64 305 -132 507 -191 575 -78
88 -198 43 -198 -73 0 -80 73 -283 132 -366 27 -37 16 -31 -84 49 -79 64 -216
159 -299 208 -38 22 -58 45 -110 132 -129 214 -222 308 -283 284 -52 -19 -40
-107 28 -199 l35 -48 -92 35 -92 34 -116 217 c-123 231 -148 261 -214 261 -66
0 -116 -86 -94 -164 14 -50 75 -116 170 -182 73 -52 110 -84 94 -84 -4 0 -35
7 -69 16 -244 64 -571 91 -718 60 -93 -19 -141 -42 -186 -89 -62 -65 -60 -146
5 -218 46 -51 93 -75 176 -90 56 -10 79 -10 153 5 137 27 205 60 512 251 l93
58 90 -27 c117 -35 281 -101 394 -159 l90 -46 -85 -1 c-144 -1 -296 -30 -445
-87 -111 -42 -175 -87 -212 -150 -24 -41 -28 -59 -28 -123 1 -169 119 -286
301 -298 125 -8 239 33 351 127 62 51 217 246 279 350 20 34 40 61 43 61 30 0
315 -227 425 -339 l69 -70 -44 11 c-58 13 -237 3 -319 -18 -206 -54 -407 -190
-471 -320 -33 -66 -33 -164 -2 -214 68 -110 236 -113 394 -7 30 20 160 130
289 246 129 115 238 207 241 205 18 -11 162 -212 217 -304 114 -188 183 -342
208 -465 29 -137 30 -163 4 -106 -29 62 -100 159 -154 209 -128 118 -318 191
-440 168 -83 -16 -144 -111 -133 -207 7 -57 50 -133 94 -166 91 -67 180 -90
387 -103 203 -12 275 -26 287 -54 15 -37 79 -502 79 -576 l0 -34 -27 53 c-65
125 -198 249 -379 352 -203 116 -327 154 -476 147 -76 -4 -104 -10 -153 -33
-82 -39 -157 -116 -180 -184 -47 -143 21 -283 176 -361 104 -53 178 -63 374
-54 341 18 443 10 548 -43 52 -26 123 -91 137 -126 13 -32 12 51 -1 212 l-11
132 26 38 c55 79 141 124 316 165 273 64 391 124 540 275 134 136 176 269 120
381 -54 106 -210 159 -369 126 -275 -58 -465 -278 -598 -691 l-48 -150 -12 90
c-8 50 -27 174 -43 276 -17 102 -30 194 -30 205 0 28 81 117 155 169 35 25
136 82 226 126 196 97 250 131 319 200 76 76 114 161 118 265 3 67 0 90 -18
133 -79 182 -335 200 -518 36 -150 -135 -311 -487 -312 -682 0 -24 -4 -43 -10
-43 -5 0 -10 8 -10 19 0 10 -30 135 -66 277 -36 143 -71 278 -77 301 -10 41
-9 45 38 115 58 88 181 217 246 259 26 17 81 43 122 59 90 35 202 90 277 137
117 74 170 147 177 246 4 56 2 67 -25 108 -41 64 -112 99 -201 99 -93 -1 -142
-14 -256 -70 -170 -83 -288 -198 -365 -355 -46 -93 -67 -168 -77 -282 l-8 -82
-132 412 c-72 227 -134 422 -138 434 -5 19 -1 22 37 27 188 23 237 32 337 57
325 81 567 288 617 529 29 142 -19 247 -139 300 -56 25 -147 29 -217 10 -267
-72 -570 -437 -631 -760 -6 -36 -15 -71 -19 -78 -8 -16 -61 160 -131 433 -27
105 -49 193 -49 196 0 4 21 10 48 14 135 20 388 126 498 209 148 111 203 269
139 396 -36 72 -90 105 -169 104 -114 -1 -198 -69 -330 -267 -83 -125 -133
-225 -167 -336 -18 -62 -23 -71 -30 -53 -23 62 -93 536 -82 555 2 4 17 7 33 7
76 0 214 64 289 133 51 48 109 143 131 215 36 117 22 301 -28 363 -53 65 -185
-29 -291 -209 -66 -110 -129 -307 -132 -407 l-1 -40 -10 40 c-23 92 9 636 43
741 10 31 56 79 237 242 106 96 167 180 194 265 22 72 23 108 3 175 -36 119
-153 187 -265 153z"/>
<path d="M4992 2645 c0 -16 2 -22 5 -12 2 9 2 23 0 30 -3 6 -5 -1 -5 -18z"/>
<path d="M17380 903 c-1048 -2 -1608 -7 -1614 -13 -11 -11 5026 -12 5484 -1
168 5 -198 8 -945 9 -671 1 -1242 4 -1270 5 -27 2 -772 2 -1655 0z"/>
<path d="M22305 900 c-93 -3 395 -6 1085 -6 690 0 1192 2 1115 3 -290 6 -2037
8 -2200 3z"/>
</g>
</svg>
