<svg width="248" height="240" viewBox="0 0 248 240" fill="none" xmlns="http://www.w3.org/2000/svg">
<path d="M120.523 239.755C104.354 239.755 91.386 238.04 85.5035 236.946C62.3315 232.633 50.3733 230.974 34.0578 217.09H206.706C206.233 217.412 205.728 217.75 205.174 218.12C179.083 235.54 145.871 239.755 120.523 239.755ZM17.2705 197.794C-7.5759 158.268 -2.48083 96.4241 23.9789 55.9963C24.151 55.7332 24.382 55.3874 24.6718 54.9639L25.9693 81.7593L24.767 81.7283C24.6827 81.7257 24.5983 81.7248 24.5143 81.7248C21.9343 81.7248 19.4555 82.7461 17.6243 84.5712C15.7336 86.4558 14.699 89.0331 14.762 91.7009L17.2705 197.794ZM235.061 181.858L236.348 92.9843C236.348 90.9341 234.019 87.0027 229.738 87.0027C229.58 87.0027 229.417 87.0078 229.253 87.019L224.332 86.8923C228.559 78.6275 231.089 70.731 232.468 63.4546C250.198 99.5732 252.099 146.221 235.061 181.858V181.858ZM209.917 55.9437C209.815 45.7365 208.409 36.4435 206.576 28.5824C210.148 31.8583 214.446 36.2305 218.859 41.8016C216.181 46.0823 213.115 50.8168 209.917 55.9437V55.9437ZM178.004 54.9889L155.064 29.6468L48.0748 28.9921C62.1909 16.6406 82.0482 4.12525 106.675 0.906274C107.063 0.855384 113.248 0.0394275 122.732 0.0394275C140.277 0.0394275 169.112 2.82972 193.453 18.4252C190.669 26.8202 185.959 38.8155 178.004 54.9889Z" fill="url(#paint0_linear)"/>
<path d="M227.783 24.7415C228.087 23.6788 229.586 23.6469 229.952 24.6897C233.666 35.2799 240.493 64.757 217.601 98.1655C188.881 140.081 189.712 161.257 196.136 177.251C196.136 177.251 182.637 164.281 181.226 142.499C177.763 89.0175 222.365 43.6284 227.783 24.7415Z" fill="#91B3FA"/>
<path d="M226.039 41.5903C224.356 47.045 222.567 52.4625 220.582 57.8077C218.626 63.1614 216.509 68.4539 214.229 73.6731C211.93 78.8828 209.533 84.0485 206.921 89.1047C204.331 94.173 201.526 99.1239 198.694 104.084C195.89 109.059 193.037 114.053 190.687 119.355C188.336 124.644 186.58 130.298 185.908 136.106C185.743 137.554 185.603 139.011 185.55 140.461C185.47 141.912 185.455 143.365 185.465 144.819C185.5 147.727 185.728 150.638 186.171 153.518C187.073 159.278 188.85 164.896 191.299 170.141C191.557 170.694 192.213 170.932 192.766 170.675C193.308 170.421 193.548 169.784 193.312 169.238L193.311 169.234C192.751 167.941 192.207 166.644 191.723 165.327C191.47 164.671 191.247 164.007 191.011 163.346C190.801 162.678 190.564 162.018 190.375 161.344C189.572 158.66 188.959 155.924 188.55 153.156C187.708 147.63 187.687 141.95 188.318 136.401C188.665 133.629 189.216 130.888 189.976 128.197C190.739 125.509 191.708 122.874 192.829 120.292C195.072 115.126 197.854 110.159 200.622 105.165C203.384 100.167 206.125 95.1252 208.655 89.9785C209.926 87.4081 211.152 84.8162 212.33 82.2036C212.926 80.9003 213.497 79.5858 214.071 78.273C214.632 76.9542 215.185 75.6328 215.728 74.3071C217.889 68.9999 219.887 63.6298 221.713 58.2036C223.512 52.7688 225.167 47.2882 226.608 41.7525C226.648 41.5946 226.554 41.4325 226.396 41.3919C226.242 41.3514 226.085 41.4411 226.039 41.5903" fill="#BDD0FB"/>
<path d="M175.899 138.328C174.486 139.794 172.035 139.34 171.215 137.476C166.694 127.191 156.542 96.9536 174.254 62.4479C189.211 33.3098 194.553 16.0885 196.436 8.10313C196.834 6.41429 199.156 6.2159 199.839 7.81073C207.369 25.409 227.103 85.2042 175.899 138.328Z" fill="#BDD0FB"/>
<path d="M181.074 85.7726L179.455 85.7304C182.481 72.5017 186.799 58.181 192.952 44.7307C193.086 44.4391 193.375 44.2666 193.676 44.2666C193.787 44.2666 193.899 44.2899 194.006 44.3391C194.405 44.5219 194.581 44.9929 194.398 45.3931C188.341 58.6321 184.075 72.7268 181.074 85.7726" fill="url(#paint1_linear)"/>
<path d="M230.737 217.09H21.5046C19.3766 217.09 17.6354 215.35 17.6354 213.224L17.2705 197.794L14.762 91.7008C14.699 89.033 15.7336 86.4558 17.6243 84.5711C19.4555 82.746 21.9343 81.7248 24.5142 81.7248C24.5982 81.7248 24.6827 81.7256 24.767 81.7282L25.9692 81.7593L26.1906 86.329L25.5712 86.3126C25.5099 86.3109 25.4484 86.31 25.3874 86.31C23.5771 86.31 21.8382 87.0285 20.553 88.3102C19.2243 89.6351 18.4937 91.449 18.5407 93.325L21.4553 209.515C21.4553 211.529 23.1025 213.176 25.1159 213.176H225.691C227.705 213.176 229.351 211.529 229.351 209.515L230.995 100.361C230.807 93.9736 225.356 91.5645 221.846 91.5645C221.746 91.5645 221.648 91.5663 221.552 91.5706L176.427 90.3596L176.656 85.6579L179.455 85.7304L181.074 85.7726L206.111 86.4204L208.256 86.4756L210.327 86.5299L224.332 86.8922L229.252 87.019C229.417 87.0078 229.579 87.0026 229.738 87.0026C234.019 87.0026 236.347 90.934 236.347 92.9843L235.061 181.858L234.606 213.224C234.606 215.35 232.865 217.09 230.737 217.09" fill="url(#paint2_linear)"/>
<path d="M225.691 213.176H25.1161C23.1027 213.176 21.4555 211.529 21.4555 209.515L18.5408 93.3251C18.4938 91.449 19.2244 89.6351 20.5531 88.3103C21.8384 87.0286 23.5772 86.3101 25.3875 86.3101C25.4486 86.3101 25.5101 86.3109 25.5713 86.3126L26.1907 86.329L32.3117 212.737H170.471L176.271 93.5605L219.719 94.7258C219.735 94.7249 219.796 94.7232 219.893 94.7232C220.654 94.7232 223.667 94.8517 225.647 96.7493C226.844 97.8956 227.455 99.5034 227.464 101.517L226.967 135.422C226.962 135.719 227.199 135.963 227.495 135.967H227.503C227.796 135.967 228.035 135.732 228.04 135.438L228.537 101.523C228.526 99.1972 227.804 97.3298 226.39 95.9748C224.162 93.84 220.943 93.6476 219.968 93.6476C219.843 93.6476 219.755 93.6511 219.71 93.6537L176.324 92.4893L176.427 90.3597L221.552 91.5707C221.648 91.5663 221.746 91.5646 221.846 91.5646C225.356 91.5646 230.807 93.9737 230.995 100.361L229.352 209.515C229.352 211.529 227.705 213.176 225.691 213.176ZM227.314 147.734C227.022 147.734 226.782 147.969 226.778 148.263L226.648 157.115C226.643 157.411 226.88 157.656 227.176 157.66H227.185C227.477 157.66 227.716 157.424 227.721 157.131L227.851 148.279C227.855 147.982 227.619 147.738 227.322 147.734H227.314" fill="url(#paint3_linear)"/>
<path d="M227.185 157.66H227.176C226.88 157.655 226.643 157.411 226.648 157.114L226.778 148.262C226.782 147.969 227.022 147.733 227.314 147.733H227.322C227.619 147.738 227.855 147.982 227.851 148.279L227.721 157.131C227.716 157.424 227.477 157.66 227.185 157.66" fill="url(#paint4_linear)"/>
<path d="M227.503 135.967H227.495C227.199 135.963 226.962 135.718 226.967 135.422L227.464 101.517C227.455 99.5033 226.844 97.8956 225.647 96.7493C223.667 94.8517 220.654 94.7232 219.893 94.7232C219.796 94.7232 219.735 94.7249 219.719 94.7258L176.271 93.5605L176.324 92.4892L219.71 93.6537C219.755 93.6511 219.843 93.6476 219.968 93.6476C220.943 93.6476 224.162 93.84 226.39 95.9747C227.804 97.3298 228.526 99.1971 228.537 101.523L228.04 135.438C228.035 135.731 227.796 135.967 227.503 135.967" fill="url(#paint5_linear)"/>
<path d="M1.14936 227.071H246.851C247.119 227.071 247.339 226.851 247.339 226.583V216.994C247.339 216.726 247.119 216.506 246.851 216.506H1.14936C0.881111 216.506 0.661682 216.726 0.661682 216.994V226.583C0.661682 226.851 0.881111 227.071 1.14936 227.071Z" fill="url(#paint6_linear)"/>
<path d="M155.064 29.6467L30.9116 28.8868C26.8314 28.8618 23.5681 32.2697 23.7702 36.3452L32.3115 212.737H170.47L178.141 55.1406L155.064 29.6467" fill="#91B3FA"/>
<path d="M160.226 54.385C156.183 54.2427 153.073 50.7572 153.393 46.7232L154.723 29.8796L178.166 55.0371L160.226 54.385" fill="url(#paint7_linear)"/>
<path d="M89.2589 69.2551C88.0211 69.2551 86.9921 68.17 86.8817 66.7434L86.8533 66.3803C86.7265 64.7414 87.8495 63.3191 89.2744 63.3165C100.419 63.2992 143.205 63.163 154.008 63.1285C154.011 63.1285 154.014 63.1285 154.015 63.1285C155.376 63.1285 156.453 64.4266 156.399 65.999C156.348 67.4973 155.28 68.6928 153.983 68.704L89.277 69.2551C89.2709 69.2551 89.2649 69.2551 89.2589 69.2551" fill="#E7EEFE"/>
<path d="M88.7508 81.6273C87.5131 81.6273 86.4841 80.5422 86.3728 79.1156L86.3452 78.7533C86.2184 77.1145 87.3406 75.6914 88.7664 75.6896C99.9112 75.6724 142.696 75.5353 153.5 75.5008C153.503 75.5008 153.506 75.5008 153.507 75.5008C154.867 75.5008 155.945 76.7997 155.891 78.3712C155.84 79.8703 154.772 81.0649 153.475 81.0761L88.769 81.6273C88.7629 81.6273 88.7569 81.6273 88.7508 81.6273" fill="#E7EEFE"/>
<path d="M50.275 99.2626C48.3588 99.2626 46.7336 98.1732 46.521 96.7432L46.4671 96.3809C46.2234 94.7412 47.9141 93.3215 50.1134 93.3215C50.1146 93.3215 50.1157 93.3215 50.1169 93.3215C53.5699 93.324 58.9918 93.3249 65.585 93.3249C91.856 93.3249 136.753 93.3094 150.092 93.3042C150.092 93.3042 150.092 93.3042 150.093 93.3042C152.197 93.3042 153.904 94.6075 153.867 96.1825C153.831 97.6816 152.217 98.8745 150.213 98.8823L50.2949 99.2626C50.288 99.2626 50.2819 99.2626 50.275 99.2626" fill="#E7EEFE"/>
<path d="M49.3879 112.246C47.9033 112.246 46.6538 111.166 46.4988 109.742L46.4593 109.38C46.2809 107.741 47.6082 106.315 49.3215 106.307C62.7196 106.249 114.153 105.956 127.141 105.882C127.147 105.882 127.153 105.882 127.159 105.882C128.79 105.882 130.101 107.175 130.06 108.744C130.022 110.243 128.758 111.442 127.198 111.458L49.4189 112.246C49.4086 112.246 49.3983 112.246 49.3879 112.246Z" fill="#E7EEFE"/>
<path d="M50.1057 129.25C48.1895 129.25 46.5641 128.16 46.3516 126.73L46.2977 126.368C46.054 124.728 47.7447 123.308 49.9438 123.308C49.9452 123.308 49.9462 123.308 49.9475 123.308C53.3913 123.311 58.7968 123.312 65.365 123.312C91.6283 123.312 136.575 123.296 149.922 123.291C152.026 123.29 153.735 124.594 153.697 126.169C153.662 127.668 152.047 128.861 150.044 128.869L50.1253 129.25C50.1188 129.25 50.1122 129.25 50.1057 129.25Z" fill="#E7EEFE"/>
<path d="M48.5003 142.45C47.0003 142.45 45.7416 141.359 45.5937 139.929L45.5561 139.565C45.3867 137.927 46.7257 136.51 48.4442 136.51C48.4462 136.51 48.4479 136.51 48.4499 136.51C61.9113 136.535 113.589 136.559 126.638 136.565C128.284 136.566 129.604 137.871 129.554 139.445C129.506 140.944 128.229 142.135 126.662 142.142L48.5127 142.45C48.5086 142.45 48.5044 142.45 48.5003 142.45" fill="#E7EEFE"/>
<path d="M49.2572 159.848C47.341 159.848 45.7156 158.759 45.5032 157.329L45.4492 156.966C45.2054 155.327 46.8962 153.908 49.0954 153.908C49.0967 153.908 49.0978 153.908 49.099 153.908C52.5435 153.91 57.9516 153.911 64.5232 153.911C90.7874 153.911 135.727 153.895 149.073 153.89C149.074 153.89 149.075 153.89 149.076 153.89C151.179 153.89 152.886 155.194 152.848 156.768C152.813 158.268 151.198 159.46 149.196 159.468L49.2767 159.848C49.2703 159.848 49.2636 159.848 49.2572 159.848" fill="#E7EEFE"/>
<path d="M48.1098 172.892C46.6099 172.892 45.3512 171.802 45.2032 170.371L45.1657 170.008C44.9962 168.37 46.3352 166.953 48.0537 166.953C48.0557 166.953 48.0574 166.953 48.0593 166.953C61.5206 166.978 113.198 167.002 126.248 167.008C127.893 167.008 129.213 168.313 129.163 169.888C129.116 171.387 127.838 172.578 126.272 172.584L48.1222 172.892C48.1182 172.892 48.1139 172.892 48.1098 172.892" fill="#E7EEFE"/>
<path d="M50.275 190.092C48.3588 190.092 46.7336 189.002 46.521 187.572L46.4671 187.21C46.2234 185.57 47.9141 184.151 50.1134 184.151C50.1146 184.151 50.1157 184.151 50.1169 184.151C53.563 184.153 58.9728 184.154 65.547 184.154C91.812 184.154 136.746 184.138 150.092 184.133C150.092 184.133 150.092 184.133 150.093 184.133C152.197 184.133 153.904 185.437 153.867 187.012C153.831 188.511 152.217 189.704 150.213 189.711L50.2949 190.092C50.288 190.092 50.2819 190.092 50.275 190.092" fill="#E7EEFE"/>
<path d="M49.1934 204.549C47.7148 204.549 46.4736 203.461 46.3264 202.033L46.2889 201.669C46.1197 200.03 47.4434 198.609 49.1429 198.609C49.143 198.609 49.1429 198.609 49.143 198.609C49.2136 198.609 49.2859 198.609 49.3585 198.609C62.9758 198.609 113.527 198.543 126.344 198.526C126.345 198.526 126.346 198.526 126.348 198.526C127.971 198.526 129.273 199.827 129.225 201.4C129.18 202.899 127.919 204.093 126.373 204.102L49.2109 204.549C49.2051 204.549 49.1992 204.549 49.1934 204.549" fill="#E7EEFE"/>
<path d="M72.4128 81.5014L70.6101 81.4703L62.4997 55.4623L55.5028 81.2176L53.6104 81.1857L41.2669 49.5876C40.7018 48.0963 40.1266 47.2053 39.5422 46.9146C38.9566 46.6248 37.3606 46.4316 34.7464 46.3385V45.8529L53.945 46.5463V47.0268C53.2912 47.0035 52.6944 46.9914 52.1561 46.9914C50.8261 46.9914 49.8494 47.063 49.2257 47.2062C48.3476 47.408 47.9086 47.8479 47.9086 48.5276C47.9086 48.8855 48.0209 49.3202 48.2452 49.8283L57.0036 72.5026L62.0563 54.1202L60.8807 50.2768C60.4339 48.832 59.8948 47.9557 59.2617 47.6469C58.6286 47.3381 57.0062 47.1372 54.3884 47.0431V46.5627L73.2632 47.245V47.7202C72.6327 47.6978 72.0583 47.6866 71.5382 47.6866C70.2323 47.6866 69.274 47.7573 68.6625 47.8997C67.8068 48.0998 67.379 48.5716 67.379 49.3142C67.379 49.7032 67.4515 50.0957 67.5981 50.4898L74.6467 72.9381L80.6206 56.6785C81.227 54.9776 81.5315 53.582 81.5315 52.4935C81.5315 49.5091 79.3682 47.9393 75.0271 47.7832V47.3088L88.951 47.8117V48.2835C88.863 48.28 88.7742 48.2783 88.6871 48.2783C86.2815 48.2783 84.4882 49.491 83.3109 51.9191C83.1306 52.2986 82.4665 53.9952 81.315 57.0114L72.4128 81.5014" fill="#E7EEFE"/>
<path d="M176.697 212.087C179.159 212.3 183.432 212.646 186.8 212.794C188.825 212.883 189.99 212.685 190.662 212.416C190.66 212.492 190.658 212.563 190.656 212.63C190.639 212.984 190.351 213.268 189.993 213.288C183.629 213.643 178.567 213.41 176.765 213.301C176.393 213.279 176.171 212.873 176.362 212.556C176.457 212.397 176.572 212.242 176.697 212.087" fill="url(#paint8_linear)"/>
<path d="M186.8 212.794C183.432 212.646 179.159 212.3 176.697 212.087C179.118 209.118 186.8 207.116 186.8 207.116H188.97C190.462 209.268 190.678 211.315 190.662 212.416C189.99 212.685 188.825 212.883 186.8 212.794Z" fill="url(#paint9_linear)"/>
<path d="M189.335 203.575L189.132 207.593C189.11 208.027 188.784 208.393 188.348 208.455C187.915 208.517 187.334 208.525 186.718 208.321C186.34 208.195 186.058 207.876 185.989 207.486L185.287 203.575H189.335" fill="url(#paint10_linear)"/>
<path d="M217.516 212.764C218.583 212.615 219.066 212.061 219.269 211.468L219.273 211.483C219.43 212.109 219.066 212.758 218.338 213.065C217.458 213.438 216.496 213.502 215.749 213.471C214.948 213.438 214.212 213.106 213.808 212.575L213.802 212.568C214.607 212.965 215.736 213.012 217.516 212.764Z" fill="url(#paint11_linear)"/>
<path d="M212.482 203.549H214.272C216.997 203.493 218.709 209.242 219.269 211.468C219.066 212.061 218.583 212.615 217.516 212.765C215.736 213.012 214.607 212.966 213.802 212.568C212.33 210.63 211.6 207.792 211.249 206.136C210.849 204.252 212.482 203.549 212.482 203.549Z" fill="url(#paint12_linear)"/>
<path d="M214.042 199.819L215.035 203.772C215.157 204.256 214.925 204.758 214.477 204.987C213.922 205.272 213.138 205.572 212.42 205.486C212.081 205.444 211.801 205.206 211.689 204.888L210.23 200.73L214.042 199.819" fill="url(#paint13_linear)"/>
<path d="M215.227 200.962C213.991 202.059 209.97 202.204 209.97 202.204C195.487 167.442 189.562 162.504 189.562 162.504C191.654 175.625 189.899 204.671 189.899 204.671C187.509 205.726 184.428 204.671 184.428 204.671C184.234 183.192 180.932 164.459 177.032 149.691C186.821 149.47 192.026 146.121 193.726 144.776C201.886 157.932 215.227 200.962 215.227 200.962" fill="url(#paint14_linear)"/>
<path d="M191.241 104.801C193.093 114.043 192.429 130.584 191.993 138.129C191.87 140.25 193.351 143.19 194.547 145.195C194.735 145.51 194.619 145.913 194.293 146.08C192.29 147.11 185.503 150.301 177.638 150.697C177.113 150.724 176.645 150.367 176.509 149.86C170.674 128.074 163.897 114.153 163.897 114.153C171.379 102.205 191.241 104.801 191.241 104.801Z" fill="url(#paint15_linear)"/>
<path d="M188.574 161.681C188.656 161.681 188.739 161.658 188.815 161.613C189.033 161.479 189.102 161.194 188.97 160.976C188.892 160.848 187.018 157.819 183.228 155.991C182.997 155.88 182.72 155.975 182.607 156.206C182.496 156.437 182.594 156.715 182.824 156.826C186.359 158.531 188.16 161.43 188.178 161.458C188.265 161.601 188.417 161.681 188.574 161.681Z" fill="url(#paint16_linear)"/>
<path d="M202.862 131.325C202.267 135.631 200.508 140.326 196.991 145.314L195.654 144.225C195.654 144.225 197.197 137.962 196.32 130.854C198.49 130.431 201.053 130.867 202.862 131.325Z" fill="url(#paint17_linear)"/>
<path d="M189.171 116.204L191.241 104.801C191.241 104.801 205.068 115.371 202.862 131.325C201.053 130.867 198.49 130.431 196.32 130.854C195.688 125.734 193.8 120.176 189.171 116.204" fill="url(#paint18_linear)"/>
<path d="M163.897 114.153L169.235 125.648C168.371 132.587 164.643 135.587 160.624 136.738C160.374 133.576 159.574 131.02 158.832 129.253C163.968 123.95 163.897 114.153 163.897 114.153Z" fill="url(#paint19_linear)"/>
<path d="M158.832 129.253C159.573 131.02 160.374 133.576 160.624 136.738C149.9 140.899 147.062 132.83 147.062 132.83L149.045 132.48C153.52 132.951 156.647 131.508 158.832 129.253Z" fill="url(#paint20_linear)"/>
<path d="M168.815 99.9613L171.391 109.434C171.681 110.498 172.832 111.069 173.856 110.66C174.961 110.219 176.363 109.616 177.57 108.964C178.858 108.268 179.261 106.611 178.446 105.395L173.089 97.4074L168.815 99.9613Z" fill="url(#paint21_linear)"/>
<path d="M163.178 92.7652C163.154 92.9282 165.327 103.574 165.327 103.574L171.379 102.205L170.819 91.8078C170.819 91.8078 163.571 90.0422 163.178 92.7652" fill="url(#paint22_linear)"/>
<path d="M169.458 94.1246L170.182 99.5749C170.19 99.6448 170.19 99.7138 170.181 99.7837C170.12 100.211 169.801 101.665 168.333 101.249C167.002 100.871 165.78 100.547 164.937 100.805C164.558 100.921 164.33 101.305 164.409 101.693C164.606 102.66 165.092 104.831 165.802 106.654C165.946 107.024 166.35 107.218 166.732 107.107C167.88 106.772 170.281 105.998 172.066 104.923C172.309 104.778 172.453 104.515 172.441 104.233C172.383 102.857 172.223 98.6744 172.357 97.5023C172.485 96.4017 173.836 95.7427 174.422 95.5064C174.614 95.4287 174.765 95.2769 174.842 95.0846C175.114 94.4032 175.488 92.8282 173.503 92.1822C173.087 92.0468 172.868 91.5991 173.016 91.1877C173.31 90.3691 173.434 89.1193 171.897 88.431C170.336 87.7315 169.171 88.5639 168.541 89.2401C168.286 89.5135 167.878 89.5558 167.562 89.3557C167.382 89.2427 167.151 89.2047 166.871 89.379C166.494 89.6144 165.994 89.454 165.799 89.0546C165.426 88.287 164.663 87.465 163.135 87.7272C160.423 88.1913 160.115 91.1972 160.831 92.9585C161.547 94.7197 164.459 94.0487 165.919 93.1612C167.03 92.4858 168.471 93.1931 169.098 93.5717C169.296 93.6907 169.428 93.8952 169.458 94.1246" fill="url(#paint23_linear)"/>
<path d="M172.601 99.4886C172.601 99.4886 171.486 96.3664 172.632 95.6022C173.778 94.8371 175.474 95.2347 175.101 97.4962C174.636 100.31 172.601 99.4886 172.601 99.4886Z" fill="url(#paint24_linear)"/>
<path d="M147.858 134.307C147.318 134.728 145.468 133.848 144.337 133.239C143.785 132.942 143.518 132.298 143.707 131.7C143.98 130.842 144.433 129.733 144.992 129.593C145.92 129.362 150.082 132.569 147.858 134.307Z" fill="url(#paint25_linear)"/>
<path d="M238.917 160.389L97.6953 110.163L90.2232 130.917L231.397 182.546C234.395 183.643 237.741 182.427 239.348 179.668C240.998 176.834 242.575 172.406 242.671 165.774C242.705 163.362 241.189 161.197 238.917 160.389Z" fill="url(#paint26_linear)"/>
<path d="M54.0054 104.799L73.5123 107.194C73.4916 109.879 72.6127 113.352 69.637 117.337L53.3455 106.59C52.4804 106.02 52.9764 104.673 54.0054 104.799" fill="url(#paint27_linear)"/>
<path d="M97.6951 110.162C98.5887 123.169 90.223 130.917 90.223 130.917L69.637 117.337C72.6127 113.352 73.4916 109.879 73.5123 107.194L97.6951 110.162Z" fill="url(#paint28_linear)"/>
<path d="M237.165 166.753C237.336 166.753 237.496 166.647 237.556 166.476C237.633 166.26 237.52 166.023 237.303 165.947L102.192 118.197C101.974 118.121 101.738 118.234 101.662 118.451C101.585 118.666 101.699 118.904 101.915 118.979L237.027 166.729C237.073 166.745 237.119 166.753 237.165 166.753" fill="url(#paint29_linear)"/>
<path d="M234.835 174.896C235.005 174.896 235.166 174.789 235.225 174.619C235.302 174.403 235.188 174.166 234.973 174.089L99.8611 126.339C99.6438 126.263 99.4074 126.376 99.3315 126.592C99.2548 126.809 99.3686 127.046 99.5843 127.122L234.696 174.871C234.742 174.888 234.789 174.896 234.835 174.896" fill="url(#paint30_linear)"/>
<path d="M196.205 144.035L189.964 143.526L187.261 146.018C187.261 146.018 187.9 146.902 189.899 146.394C191.899 145.886 194.637 145.761 194.637 145.761C194.637 145.761 197.397 147.005 197.431 144.677L196.205 144.035" fill="url(#paint31_linear)"/>
<defs>
<linearGradient id="paint0_linear" x1="280.542" y1="266.588" x2="90.7384" y2="96.323" gradientUnits="userSpaceOnUse">
<stop stop-color="#DAE3FE"/>
<stop offset="1" stop-color="#E9EFFD"/>
</linearGradient>
<linearGradient id="paint1_linear" x1="172.447" y1="90.7486" x2="194.471" y2="90.7486" gradientUnits="userSpaceOnUse">
<stop stop-color="#DAE3FE"/>
<stop offset="1" stop-color="#E9EFFD"/>
</linearGradient>
<linearGradient id="paint2_linear" x1="145.232" y1="207.846" x2="95.8157" y2="59.5973" gradientUnits="userSpaceOnUse">
<stop stop-color="#09005D"/>
<stop offset="1" stop-color="#1A0F91"/>
</linearGradient>
<linearGradient id="paint3_linear" x1="15.3618" y1="209.314" x2="235.72" y2="89.7296" gradientUnits="userSpaceOnUse">
<stop stop-color="#FF928E"/>
<stop offset="1" stop-color="#FE7062"/>
</linearGradient>
<linearGradient id="paint4_linear" x1="15.3614" y1="209.314" x2="235.72" y2="89.7291" gradientUnits="userSpaceOnUse">
<stop stop-color="#FFD3D2"/>
<stop offset="1" stop-color="#FFC6C0"/>
</linearGradient>
<linearGradient id="paint5_linear" x1="15.3614" y1="209.314" x2="235.72" y2="89.7285" gradientUnits="userSpaceOnUse">
<stop stop-color="#FFD3D2"/>
<stop offset="1" stop-color="#FFC6C0"/>
</linearGradient>
<linearGradient id="paint6_linear" x1="30.2088" y1="198.976" x2="250.351" y2="252.525" gradientUnits="userSpaceOnUse">
<stop stop-color="#09005D"/>
<stop offset="1" stop-color="#1A0F91"/>
</linearGradient>
<linearGradient id="paint7_linear" x1="189.316" y1="17.8118" x2="241.271" y2="-38.1735" gradientUnits="userSpaceOnUse">
<stop stop-color="#4F52FF"/>
<stop offset="1" stop-color="#4042E2"/>
</linearGradient>
<linearGradient id="paint8_linear" x1="190.662" y1="212.783" x2="176.292" y2="212.783" gradientUnits="userSpaceOnUse">
<stop stop-color="#4F52FF"/>
<stop offset="1" stop-color="#4042E2"/>
</linearGradient>
<linearGradient id="paint9_linear" x1="190.663" y1="209.966" x2="176.698" y2="209.966" gradientUnits="userSpaceOnUse">
<stop stop-color="#09005D"/>
<stop offset="1" stop-color="#1A0F91"/>
</linearGradient>
<linearGradient id="paint10_linear" x1="191.234" y1="202.743" x2="217.66" y2="182.736" gradientUnits="userSpaceOnUse">
<stop stop-color="#FEBBBA"/>
<stop offset="1" stop-color="#FF928E"/>
</linearGradient>
<linearGradient id="paint11_linear" x1="219.309" y1="212.473" x2="213.802" y2="212.473" gradientUnits="userSpaceOnUse">
<stop stop-color="#4F52FF"/>
<stop offset="1" stop-color="#4042E2"/>
</linearGradient>
<linearGradient id="paint12_linear" x1="219.269" y1="208.233" x2="211.186" y2="208.233" gradientUnits="userSpaceOnUse">
<stop stop-color="#09005D"/>
<stop offset="1" stop-color="#1A0F91"/>
</linearGradient>
<linearGradient id="paint13_linear" x1="214.757" y1="201.113" x2="238.497" y2="183.795" gradientUnits="userSpaceOnUse">
<stop stop-color="#FEBBBA"/>
<stop offset="1" stop-color="#FF928E"/>
</linearGradient>
<linearGradient id="paint14_linear" x1="241.023" y1="89.3266" x2="203.848" y2="160.54" gradientUnits="userSpaceOnUse">
<stop stop-color="#4F52FF"/>
<stop offset="1" stop-color="#4042E2"/>
</linearGradient>
<linearGradient id="paint15_linear" x1="154.234" y1="101.68" x2="265.129" y2="198.13" gradientUnits="userSpaceOnUse">
<stop stop-color="#4F52FF"/>
<stop offset="1" stop-color="#4042E2"/>
</linearGradient>
<linearGradient id="paint16_linear" x1="198.766" y1="184.746" x2="196.448" y2="180.11" gradientUnits="userSpaceOnUse">
<stop stop-color="#53D8FF"/>
<stop offset="1" stop-color="#3840F7"/>
</linearGradient>
<linearGradient id="paint17_linear" x1="208.31" y1="145.791" x2="225.53" y2="161.04" gradientUnits="userSpaceOnUse">
<stop stop-color="#FEBBBA"/>
<stop offset="1" stop-color="#FF928E"/>
</linearGradient>
<linearGradient id="paint18_linear" x1="163.479" y1="91.4583" x2="273.875" y2="187.473" gradientUnits="userSpaceOnUse">
<stop stop-color="#4F52FF"/>
<stop offset="1" stop-color="#4042E2"/>
</linearGradient>
<linearGradient id="paint19_linear" x1="146.125" y1="111.411" x2="256.52" y2="207.427" gradientUnits="userSpaceOnUse">
<stop stop-color="#4F52FF"/>
<stop offset="1" stop-color="#4042E2"/>
</linearGradient>
<linearGradient id="paint20_linear" x1="160.624" y1="133.591" x2="147.062" y2="133.591" gradientUnits="userSpaceOnUse">
<stop stop-color="#FEBBBA"/>
<stop offset="1" stop-color="#FF928E"/>
</linearGradient>
<linearGradient id="paint21_linear" x1="173.806" y1="97.3504" x2="173.954" y2="122.676" gradientUnits="userSpaceOnUse">
<stop stop-color="#FEBBBA"/>
<stop offset="1" stop-color="#FF928E"/>
</linearGradient>
<linearGradient id="paint22_linear" x1="165.589" y1="93.1861" x2="175.572" y2="111.288" gradientUnits="userSpaceOnUse">
<stop stop-color="#FEBBBA"/>
<stop offset="1" stop-color="#FF928E"/>
</linearGradient>
<linearGradient id="paint23_linear" x1="174.443" y1="98.483" x2="159.705" y2="96.3565" gradientUnits="userSpaceOnUse">
<stop stop-color="#09005D"/>
<stop offset="1" stop-color="#1A0F91"/>
</linearGradient>
<linearGradient id="paint24_linear" x1="181.793" y1="108.718" x2="173.362" y2="97.1383" gradientUnits="userSpaceOnUse">
<stop stop-color="#FEBBBA"/>
<stop offset="1" stop-color="#FF928E"/>
</linearGradient>
<linearGradient id="paint25_linear" x1="148.504" y1="131.999" x2="143.647" y2="131.999" gradientUnits="userSpaceOnUse">
<stop stop-color="#FEBBBA"/>
<stop offset="1" stop-color="#FF928E"/>
</linearGradient>
<linearGradient id="paint26_linear" x1="94.3823" y1="94.3074" x2="299.22" y2="243.733" gradientUnits="userSpaceOnUse">
<stop stop-color="#09005D"/>
<stop offset="1" stop-color="#1A0F91"/>
</linearGradient>
<linearGradient id="paint27_linear" x1="87.2007" y1="127.561" x2="60.22" y2="104.109" gradientUnits="userSpaceOnUse">
<stop stop-color="#09005D"/>
<stop offset="1" stop-color="#1A0F91"/>
</linearGradient>
<linearGradient id="paint28_linear" x1="63.6113" y1="93.1394" x2="163.51" y2="195.805" gradientUnits="userSpaceOnUse">
<stop stop-color="#FF928E"/>
<stop offset="1" stop-color="#FE7062"/>
</linearGradient>
<linearGradient id="paint29_linear" x1="124.531" y1="96.1371" x2="214.686" y2="188.789" gradientUnits="userSpaceOnUse">
<stop stop-color="#4F52FF"/>
<stop offset="1" stop-color="#4042E2"/>
</linearGradient>
<linearGradient id="paint30_linear" x1="122.201" y1="104.279" x2="212.356" y2="196.933" gradientUnits="userSpaceOnUse">
<stop stop-color="#4F52FF"/>
<stop offset="1" stop-color="#4042E2"/>
</linearGradient>
<linearGradient id="paint31_linear" x1="186.105" y1="139.829" x2="203.325" y2="155.077" gradientUnits="userSpaceOnUse">
<stop stop-color="#FEBBBA"/>
<stop offset="1" stop-color="#FF928E"/>
</linearGradient>
</defs>
</svg>
