<svg width="22" height="25" viewBox="0 0 22 25" fill="none" xmlns="http://www.w3.org/2000/svg">
<g clip-path="url(#clip0)">
<path d="M18.5625 15.4608H17.1875C17.0052 15.4608 16.8303 15.5398 16.7014 15.6805C16.5724 15.8211 16.5 16.0119 16.5 16.2108V21.4608H2.75V6.46082H8.9375C9.11984 6.46082 9.2947 6.3818 9.42364 6.24115C9.55257 6.10049 9.625 5.90973 9.625 5.71082V4.21082C9.625 4.0119 9.55257 3.82114 9.42364 3.68049C9.2947 3.53983 9.11984 3.46082 8.9375 3.46082H2.0625C1.51549 3.46082 0.990886 3.69787 0.604092 4.11983C0.217298 4.54178 0 5.11408 0 5.71082L0 22.2108C0 22.8076 0.217298 23.3798 0.604092 23.8018C0.990886 24.2238 1.51549 24.4608 2.0625 24.4608H17.1875C17.7345 24.4608 18.2591 24.2238 18.6459 23.8018C19.0327 23.3798 19.25 22.8076 19.25 22.2108V16.2108C19.25 16.0119 19.1776 15.8211 19.0486 15.6805C18.9197 15.5398 18.7448 15.4608 18.5625 15.4608ZM20.9688 0.460815H15.4688C14.5505 0.460815 14.0916 1.67535 14.7383 2.38269L16.2736 4.05753L5.80078 15.4782C5.70464 15.5827 5.62836 15.7069 5.57631 15.8436C5.52426 15.9804 5.49747 16.127 5.49747 16.275C5.49747 16.4231 5.52426 16.5697 5.57631 16.7065C5.62836 16.8432 5.70464 16.9674 5.80078 17.0719L6.77488 18.1327C6.87069 18.2376 6.98453 18.3208 7.10988 18.3776C7.23523 18.4343 7.36962 18.4636 7.50535 18.4636C7.64108 18.4636 7.77547 18.4343 7.90082 18.3776C8.02617 18.3208 8.14001 18.2376 8.23582 18.1327L18.7034 6.71019L20.2383 8.38269C20.8828 9.08582 22 8.59363 22 7.58582V1.58582C22 1.28745 21.8914 1.0013 21.698 0.79032C21.5046 0.579342 21.2423 0.460815 20.9688 0.460815V0.460815Z" fill="#4A8BFF"/>
</g>
<defs>
<clipPath id="clip0">
<rect width="22" height="24" fill="white" transform="translate(0 0.460815)"/>
</clipPath>
</defs>
</svg>
