<svg width="241" height="141" viewBox="0 0 241 141" fill="none" xmlns="http://www.w3.org/2000/svg">
<g id="#532_sending_emails_outline">
<g id="Group 21">
<path id="Vector" d="M213.069 16.5141V132.681C213.069 134.132 212.493 135.523 211.467 136.549C210.441 137.575 209.05 138.152 207.599 138.152H6.46618C5.01874 138.146 3.63241 137.568 2.61082 136.542C1.58922 135.517 1.01562 134.128 1.01563 132.681V16.5141H213.069Z" fill="white"/>
<path id="Vector_2" d="M207.598 139.187H6.46558C5.61385 139.184 4.77098 139.014 3.98509 138.685C3.19921 138.357 2.48571 137.877 1.88533 137.273C1.28495 136.669 0.809445 135.952 0.485965 135.164C0.162485 134.376 -0.00263814 133.533 3.18696e-05 132.681V16.5141C3.18696e-05 16.2449 0.106968 15.9867 0.297318 15.7963C0.487667 15.606 0.745837 15.4991 1.01503 15.4991H213.069C213.338 15.4991 213.596 15.606 213.787 15.7963C213.977 15.9867 214.084 16.2449 214.084 16.5141V132.681C214.085 133.534 213.918 134.379 213.593 135.167C213.268 135.956 212.791 136.673 212.188 137.277C211.586 137.881 210.871 138.361 210.083 138.689C209.296 139.016 208.451 139.186 207.598 139.187V139.187ZM2.03003 17.5291V132.681C2.03271 133.862 2.50303 134.994 3.33808 135.829C4.17314 136.664 5.30494 137.134 6.48588 137.137H207.598C208.779 137.134 209.911 136.664 210.746 135.829C211.581 134.994 212.051 133.862 212.054 132.681V17.5291H2.03003Z" fill="#093F68"/>
<path id="Vector_3" d="M6.46618 1.015H207.599C209.05 1.015 210.441 1.59139 211.467 2.61738C212.493 3.64336 213.069 5.03489 213.069 6.48585V16.5242H1.01563V6.48585C1.01562 5.0384 1.58922 3.64993 2.61082 2.62453C3.63241 1.59913 5.01874 1.02037 6.46618 1.015Z" fill="#68E1FD"/>
<path id="Vector_4" d="M213.069 17.5291H1.015C0.745805 17.5291 0.487635 17.4221 0.297286 17.2318C0.106936 17.0414 0 16.7832 0 16.5141V6.48585C0.00266214 4.77002 0.684066 3.12494 1.89544 1.90977C3.1068 0.694596 4.74974 0.00804087 6.46555 0H207.598C209.317 0.00268436 210.965 0.686878 212.181 1.90263C213.397 3.11838 214.081 4.76652 214.084 6.48585V16.5141C214.084 16.7832 213.977 17.0414 213.787 17.2318C213.596 17.4221 213.338 17.5291 213.069 17.5291ZM2.03 15.4991H212.054V6.48585C212.051 5.30491 211.581 4.1731 210.746 3.33805C209.911 2.503 208.779 2.03268 207.598 2.03H6.46555C5.28461 2.03268 4.15281 2.503 3.31775 3.33805C2.4827 4.1731 2.01238 5.30491 2.0097 6.48585L2.03 15.4991Z" fill="#093F68"/>
<path id="Vector_5" d="M12.6372 10.3835C13.9545 10.3835 15.0224 9.31554 15.0224 7.9982C15.0224 6.68086 13.9545 5.61295 12.6372 5.61295C11.3199 5.61295 10.252 6.68086 10.252 7.9982C10.252 9.31554 11.3199 10.3835 12.6372 10.3835Z" fill="#F56132"/>
<path id="Vector_6" d="M12.6359 5.62311C13.1086 5.6211 13.5711 5.75954 13.9649 6.02086C14.3587 6.28218 14.666 6.65461 14.8478 7.09087C15.0296 7.52713 15.0777 8.00755 14.986 8.47119C14.8943 8.93483 14.6669 9.36077 14.3327 9.69496C13.9985 10.0292 13.5726 10.2565 13.1089 10.3483C12.6453 10.44 12.1649 10.3919 11.7286 10.2101C11.2923 10.0283 10.9199 9.72099 10.6586 9.32719C10.3973 8.93338 10.2588 8.47083 10.2608 7.99821C10.2635 7.36912 10.5146 6.76655 10.9594 6.32171C11.4043 5.87687 12.0069 5.62578 12.6359 5.62311V5.62311ZM12.6359 3.59311C11.7623 3.59311 10.9082 3.85232 10.1819 4.33793C9.45561 4.82353 8.8897 5.5137 8.55582 6.32107C8.22194 7.12844 8.1351 8.01673 8.30629 8.87348C8.47748 9.73023 8.899 10.5169 9.5175 11.134C10.136 11.7511 10.9237 12.1708 11.7808 12.34C12.638 12.5092 13.526 12.4203 14.3326 12.0846C15.1392 11.7489 15.8281 11.1814 16.312 10.454C16.796 9.72654 17.0532 8.8719 17.0512 7.99821C17.0485 6.82898 16.5821 5.70854 15.7544 4.88271C14.9267 4.05689 13.8052 3.59311 12.6359 3.59311V3.59311Z" fill="#093F68"/>
<path id="Vector_7" d="M23.5981 10.3835C24.9155 10.3835 25.9834 9.31554 25.9834 7.9982C25.9834 6.68086 24.9155 5.61295 23.5981 5.61295C22.2808 5.61295 21.2129 6.68086 21.2129 7.9982C21.2129 9.31554 22.2808 10.3835 23.5981 10.3835Z" fill="#FFBC0E"/>
<path id="Vector_8" d="M23.5992 5.62309C24.0714 5.62309 24.533 5.76325 24.9254 6.02579C25.3179 6.28834 25.6236 6.66146 25.8039 7.0979C25.9841 7.53434 26.0307 8.01446 25.9379 8.47743C25.845 8.9404 25.6168 9.36539 25.2822 9.69856C24.9476 10.0317 24.5217 10.2581 24.0583 10.349C23.5949 10.4399 23.115 10.3912 22.6794 10.2091C22.2437 10.027 21.8719 9.7197 21.611 9.32611C21.3501 8.93253 21.212 8.47038 21.214 7.99819C21.214 7.68544 21.2757 7.37575 21.3957 7.08693C21.5157 6.79811 21.6916 6.53582 21.9132 6.31514C22.1348 6.09446 22.3979 5.91973 22.6872 5.80097C22.9765 5.6822 23.2865 5.62175 23.5992 5.62309V5.62309ZM23.5992 3.59309C22.7251 3.59108 21.8701 3.84859 21.1424 4.33297C20.4148 4.81735 19.8473 5.50681 19.5119 6.314C19.1764 7.1212 19.0881 8.0098 19.2582 8.86722C19.4282 9.72463 19.8489 10.5123 20.467 11.1304C21.0851 11.7485 21.8728 12.1692 22.7302 12.3392C23.5876 12.5093 24.4762 12.421 25.2834 12.0855C26.0906 11.7501 26.7801 11.1826 27.2644 10.455C27.7488 9.72735 28.0063 8.87231 28.0043 7.99819C28.0016 6.83071 27.5367 5.71181 26.7111 4.88627C25.8856 4.06074 24.7667 3.59577 23.5992 3.59309V3.59309Z" fill="#093F68"/>
<path id="Vector_9" d="M34.5513 10.3835C35.8686 10.3835 36.9365 9.31554 36.9365 7.9982C36.9365 6.68086 35.8686 5.61295 34.5513 5.61295C33.2339 5.61295 32.166 6.68086 32.166 7.9982C32.166 9.31554 33.2339 10.3835 34.5513 10.3835Z" fill="#70CC40"/>
<path id="Vector_10" d="M34.5508 5.62309C35.023 5.6231 35.4845 5.76325 35.877 6.0258C36.2695 6.28834 36.5752 6.66147 36.7554 7.09791C36.9356 7.53435 36.9823 8.01447 36.8894 8.47743C36.7966 8.9404 36.5684 9.36539 36.2338 9.69857C35.8992 10.0317 35.4732 10.2581 35.0099 10.349C34.5465 10.4399 34.0666 10.3912 33.6309 10.2091C33.1953 10.027 32.8234 9.7197 32.5626 9.32612C32.3017 8.93253 32.1635 8.47038 32.1655 7.9982C32.1682 7.36735 32.4207 6.76326 32.8677 6.31813C33.3148 5.873 33.9199 5.62309 34.5508 5.62309V5.62309ZM34.5508 3.59309C33.6762 3.58908 32.8202 3.84486 32.0912 4.32802C31.3623 4.81117 30.7932 5.49993 30.4562 6.30694C30.1192 7.11395 30.0295 8.00286 30.1983 8.86095C30.3672 9.71903 30.7871 10.5076 31.4048 11.1267C32.0225 11.7459 32.8101 12.1676 33.6678 12.3385C34.5255 12.5093 35.4147 12.4216 36.2224 12.0865C37.0302 11.7514 37.7203 11.1839 38.2051 10.456C38.69 9.72818 38.9477 8.87274 38.9457 7.9982C38.943 6.82896 38.4767 5.70852 37.6489 4.8827C36.8212 4.05687 35.6997 3.59309 34.5305 3.59309H34.5508Z" fill="#093F68"/>
<g id="mail">
<path id="Vector_11" d="M238.234 23.7508H123.965V91.3802H238.234V23.7508Z" fill="#68E1FD"/>
<g id="Group 20">
<path id="Vector_12" d="M239.249 92.4102H124.98C124.711 92.4102 124.452 92.3033 124.262 92.113C124.072 91.9226 123.965 91.6644 123.965 91.3952V23.7658C123.965 23.4966 124.072 23.2384 124.262 23.0481C124.452 22.8577 124.711 22.7508 124.98 22.7508H239.249C239.518 22.7508 239.776 22.8577 239.966 23.0481C240.157 23.2384 240.264 23.4966 240.264 23.7658V91.3952C240.264 91.6644 240.157 91.9226 239.966 92.113C239.776 92.3033 239.518 92.4102 239.249 92.4102ZM125.995 90.3802H238.234V24.7808H125.995V90.3802Z" fill="#093F68"/>
<path id="Vector_13" d="M182.115 50.3486L124.98 91.3952H239.249L182.115 50.3486Z" fill="#68E1FD"/>
<path id="Vector_14" d="M239.25 92.4102H124.981C124.767 92.4089 124.559 92.3399 124.387 92.2133C124.214 92.0866 124.086 91.9087 124.021 91.705C123.956 91.5012 123.957 91.2821 124.023 91.0788C124.09 90.8755 124.219 90.6985 124.392 90.5731L181.527 49.5265C181.699 49.4041 181.904 49.3383 182.115 49.3383C182.327 49.3383 182.532 49.4041 182.704 49.5265L239.889 90.5731C240.063 90.699 240.193 90.877 240.259 91.0812C240.326 91.2855 240.326 91.5056 240.259 91.7098C240.193 91.914 240.063 92.0919 239.889 92.2177C239.715 92.3436 239.505 92.411 239.29 92.4102H239.25ZM128.138 90.3802H236.103L182.115 51.5971L128.138 90.3802Z" fill="#093F68"/>
<path id="Vector_15" d="M182.115 64.8124L124.98 23.7658H239.249L182.115 64.8124Z" fill="#68E1FD"/>
<path id="Vector_16" d="M182.116 65.8274C181.904 65.826 181.698 65.7586 181.527 65.6346L124.393 24.5879C124.22 24.4634 124.09 24.2875 124.023 24.0853C123.955 23.8831 123.953 23.6647 124.017 23.4613C124.082 23.2559 124.21 23.0764 124.383 22.9487C124.556 22.8209 124.766 22.7516 124.981 22.7508H239.25C239.465 22.7516 239.675 22.8209 239.848 22.9487C240.021 23.0764 240.15 23.2559 240.214 23.4613C240.279 23.6637 240.278 23.8813 240.213 24.0834C240.147 24.2856 240.02 24.462 239.849 24.5879L182.704 65.6346C182.535 65.7625 182.328 65.8304 182.116 65.8274V65.8274ZM128.138 24.7808L182.116 63.5639L236.103 24.7808H128.138Z" fill="#093F68"/>
<path id="Vector_17" d="M185.556 48.0344C185.556 48.2273 185.475 48.4506 185.434 48.7145C185.396 48.9359 185.376 49.1598 185.373 49.3844C185.373 49.5274 185.411 49.6678 185.485 49.7904C185.539 49.8537 185.609 49.9025 185.687 49.9326C185.765 49.9627 185.849 49.9732 185.932 49.9629C186.156 49.9598 186.376 49.9005 186.571 49.7904C186.803 49.6534 186.998 49.4617 187.139 49.2321C187.32 48.9366 187.454 48.6147 187.535 48.278C187.648 47.8302 187.703 47.3696 187.698 46.9078C187.71 46.1671 187.572 45.4316 187.292 44.7458C187.044 44.1459 186.666 43.6084 186.185 43.1726C185.693 42.7396 185.116 42.4146 184.49 42.2185C183.794 42.0004 183.068 41.8942 182.338 41.9038C181.546 41.8928 180.759 42.0412 180.024 42.3403C179.348 42.6134 178.736 43.0248 178.228 43.5481C177.723 44.0766 177.329 44.7014 177.071 45.3853C176.793 46.1284 176.656 46.9165 176.665 47.7096C176.652 48.5365 176.804 49.3576 177.111 50.1253C177.396 50.8134 177.83 51.4302 178.38 51.932C178.936 52.4321 179.584 52.8184 180.288 53.0688C181.061 53.3384 181.875 53.4723 182.694 53.4647C183.42 53.4705 184.143 53.3609 184.835 53.1399C185.459 52.933 186.043 52.6206 186.561 52.2162H188.824C188.111 53.2031 187.162 53.9953 186.064 54.5203C184.961 55.0466 183.753 55.3172 182.531 55.312C181.49 55.3135 180.457 55.1208 179.486 54.7436C178.549 54.3883 177.688 53.8579 176.949 53.1805C176.197 52.484 175.6 51.6368 175.198 50.6941C174.796 49.7514 174.597 48.7344 174.614 47.7096C174.6 46.662 174.811 45.6235 175.233 44.6646C175.626 43.7535 176.195 42.929 176.908 42.2388C177.63 41.5495 178.478 41.0051 179.405 40.6351C180.372 40.2413 181.406 40.0413 182.45 40.0464C183.355 40.0486 184.253 40.1995 185.109 40.493C185.959 40.7757 186.748 41.2165 187.434 41.7922C188.166 42.4004 188.751 43.1667 189.145 44.0333C189.538 44.8999 189.731 45.8445 189.707 46.7961C189.721 47.4347 189.635 48.0716 189.454 48.684C189.307 49.1646 189.088 49.6199 188.804 50.034C188.552 50.3809 188.248 50.6858 187.901 50.9373C187.587 51.1571 187.246 51.3346 186.886 51.4651C186.573 51.5821 186.25 51.6705 185.921 51.729C185.666 51.7679 185.408 51.7917 185.15 51.8001C184.71 51.8423 184.271 51.7152 183.922 51.4448C183.698 51.2505 183.557 50.9784 183.526 50.6836C183.224 50.9826 182.883 51.2388 182.511 51.4448C182.02 51.7005 181.471 51.823 180.917 51.8001C180.503 51.8041 180.094 51.7139 179.72 51.5362C179.36 51.3748 179.042 51.1356 178.786 50.8358C178.515 50.5166 178.308 50.1478 178.177 49.7498C178.031 49.2974 177.959 48.8244 177.964 48.3491C177.965 47.7624 178.061 47.1797 178.248 46.6236C178.433 46.0871 178.707 45.5859 179.06 45.1417C179.411 44.7177 179.846 44.372 180.339 44.1267C180.877 43.8683 181.468 43.7397 182.064 43.7511C182.532 43.7359 182.997 43.8261 183.425 44.015C183.804 44.2094 184.105 44.5284 184.277 44.9184V44.9184L184.44 43.9947H186.368L185.556 48.0344ZM183.658 47.4762C183.673 46.9985 183.542 46.5277 183.282 46.1262C183.153 45.9473 182.979 45.8047 182.778 45.7123C182.577 45.6199 182.356 45.5807 182.135 45.5984C181.846 45.5885 181.558 45.65 181.298 45.7774C181.038 45.9049 180.813 46.0944 180.643 46.3292C180.261 46.8523 180.064 47.4883 180.085 48.1359C180.085 48.3573 180.106 48.5781 180.146 48.7957C180.183 48.9994 180.255 49.1951 180.359 49.3742C180.47 49.5478 180.62 49.6936 180.796 49.8005C181.015 49.9146 181.259 49.9706 181.506 49.9629C181.857 49.965 182.204 49.8887 182.521 49.7396C182.785 49.5994 183.012 49.3974 183.181 49.1509C183.343 48.9063 183.46 48.6348 183.526 48.3491C183.6 48.0635 183.644 47.771 183.658 47.4762Z" fill="white"/>
</g>
</g>
<path id="Vector_18" d="M98.4554 44.2743H52.3236C52.0544 44.2743 51.7962 44.1674 51.6059 43.977C51.4155 43.7867 51.3086 43.5285 51.3086 43.2593C51.3086 42.9901 51.4155 42.7319 51.6059 42.5416C51.7962 42.3512 52.0544 42.2443 52.3236 42.2443H98.4554C98.7246 42.2443 98.9827 42.3512 99.1731 42.5416C99.3634 42.7319 99.4704 42.9901 99.4704 43.2593C99.4704 43.5285 99.3634 43.7867 99.1731 43.977C98.9827 44.1674 98.7246 44.2743 98.4554 44.2743Z" fill="#093F68"/>
<path id="Vector_19" d="M88.8533 59.5298H23.599C23.3298 59.5298 23.0716 59.4228 22.8813 59.2325C22.6909 59.0421 22.584 58.784 22.584 58.5148C22.584 58.2456 22.6909 57.9874 22.8813 57.7971C23.0716 57.6067 23.3298 57.4998 23.599 57.4998H88.8533C89.1225 57.4998 89.3807 57.6067 89.571 57.7971C89.7614 57.9874 89.8683 58.2456 89.8683 58.5148C89.8683 58.784 89.7614 59.0421 89.571 59.2325C89.3807 59.4228 89.1225 59.5298 88.8533 59.5298V59.5298Z" fill="#093F68"/>
<path id="Vector_20" d="M117.465 75.0897H45.847C45.5778 75.0897 45.3197 74.9828 45.1293 74.7924C44.939 74.6021 44.832 74.3439 44.832 74.0747C44.832 73.8055 44.939 73.5473 45.1293 73.357C45.3197 73.1666 45.5778 73.0597 45.847 73.0597H117.465C117.735 73.0597 117.993 73.1666 118.183 73.357C118.373 73.5473 118.48 73.8055 118.48 74.0747C118.48 74.3439 118.373 74.6021 118.183 74.7924C117.993 74.9828 117.735 75.0897 117.465 75.0897Z" fill="#093F68"/>
<path id="Vector_21" d="M172.092 103.54H41.9796C36.2954 103.54 31.6875 108.146 31.6875 113.827C31.6875 119.509 36.2954 124.114 41.9796 124.114H172.092C177.777 124.114 182.385 119.509 182.385 113.827C182.385 108.146 177.777 103.54 172.092 103.54Z" fill="#FFBC0E"/>
<path id="Vector_22" d="M172.104 125.139H41.9907C38.9919 125.139 36.1159 123.948 33.9954 121.828C31.8749 119.707 30.6836 116.831 30.6836 113.832C30.6836 110.833 31.8749 107.957 33.9954 105.837C36.1159 103.716 38.9919 102.525 41.9907 102.525H172.114C175.113 102.525 177.989 103.716 180.109 105.837C182.23 107.957 183.421 110.833 183.421 113.832C183.421 116.831 182.23 119.707 180.109 121.828C177.989 123.948 175.113 125.139 172.114 125.139H172.104ZM41.9907 104.555C39.5303 104.555 37.1706 105.533 35.4308 107.272C33.691 109.012 32.7136 111.372 32.7136 113.832C32.7136 116.293 33.691 118.652 35.4308 120.392C37.1706 122.132 39.5303 123.109 41.9907 123.109H172.114C174.574 123.109 176.934 122.132 178.674 120.392C180.413 118.652 181.391 116.293 181.391 113.832C181.391 111.372 180.413 109.012 178.674 107.272C176.934 105.533 174.574 104.555 172.114 104.555H41.9907Z" fill="#093F68"/>
<path id="Vector_23" d="M95.6025 111.366C95.4479 111.127 95.2199 110.946 94.9529 110.848C94.5161 110.666 94.0329 110.627 93.5725 110.737C93.4127 110.777 93.2614 110.846 93.1259 110.94C92.992 111.027 92.8807 111.146 92.8011 111.285C92.717 111.44 92.675 111.615 92.6793 111.792C92.6738 111.92 92.6984 112.047 92.7513 112.164C92.8043 112.28 92.8839 112.382 92.9838 112.462C93.2145 112.628 93.4673 112.762 93.7349 112.858C94.0394 112.97 94.3642 113.081 94.7499 113.193C95.108 113.287 95.4501 113.434 95.7649 113.629C96.0654 113.82 96.3216 114.072 96.516 114.37C96.7355 114.741 96.8413 115.168 96.8205 115.598C96.8323 116.019 96.7454 116.436 96.5668 116.816C96.4064 117.151 96.17 117.443 95.8766 117.669C95.5752 117.906 95.2304 118.082 94.8616 118.187C94.4689 118.299 94.0621 118.353 93.6537 118.349C93.1279 118.353 92.6056 118.264 92.1109 118.085C91.6114 117.904 91.1696 117.592 90.832 117.182L91.9891 116.065C92.1717 116.348 92.4279 116.576 92.7301 116.725C93.0414 116.893 93.3913 116.977 93.7451 116.969C93.9272 116.966 94.1082 116.938 94.283 116.887C94.4554 116.842 94.6197 116.77 94.7702 116.674C94.9134 116.575 95.0343 116.447 95.1255 116.299C95.2119 116.14 95.2572 115.962 95.2574 115.781C95.2655 115.644 95.2423 115.507 95.1895 115.381C95.1367 115.254 95.0558 115.141 94.9529 115.05C94.7263 114.864 94.4686 114.72 94.1917 114.624C93.8601 114.493 93.5212 114.381 93.1767 114.289C92.8218 114.185 92.481 114.039 92.1617 113.853C91.8594 113.669 91.6026 113.419 91.4106 113.122C91.19 112.751 91.0841 112.324 91.1061 111.894C91.0956 111.491 91.19 111.092 91.3801 110.737C91.5551 110.42 91.7977 110.146 92.0906 109.935C92.3974 109.713 92.7411 109.548 93.1056 109.447C93.4864 109.346 93.8788 109.295 94.2729 109.295C94.7208 109.291 95.1665 109.359 95.5924 109.498C96.0202 109.637 96.412 109.87 96.7393 110.178L95.6025 111.366Z" fill="#093F68"/>
<path id="Vector_24" d="M98.3633 109.518H104.078V110.909H99.9061V113.03H103.905V114.411H99.9467V116.745H104.342V118.136H98.4039L98.3633 109.518Z" fill="#093F68"/>
<path id="Vector_25" d="M105.814 109.518H107.844L112.026 115.923V109.518H113.559V118.146H111.61L107.347 111.528V118.146H105.814V109.518Z" fill="#093F68"/>
<path id="Vector_26" d="M115.508 109.518H118.908C119.467 109.519 120.022 109.608 120.552 109.782C121.077 109.952 121.56 110.23 121.969 110.599C122.378 110.968 122.705 111.42 122.927 111.924C123.184 112.527 123.308 113.177 123.293 113.832C123.308 114.455 123.179 115.073 122.917 115.638C122.654 116.203 122.266 116.7 121.781 117.09C121.344 117.444 120.845 117.712 120.309 117.882C119.798 118.052 119.264 118.141 118.725 118.146H115.508V109.518ZM118.187 116.755C118.646 116.76 119.103 116.705 119.548 116.593C119.946 116.494 120.322 116.318 120.654 116.075C120.977 115.847 121.235 115.539 121.405 115.182C121.598 114.759 121.692 114.297 121.679 113.832C121.69 113.374 121.607 112.918 121.435 112.492C121.291 112.14 121.061 111.829 120.766 111.589C120.465 111.351 120.12 111.175 119.751 111.071C119.327 110.958 118.89 110.903 118.451 110.909H117.051V116.755H118.187Z" fill="#093F68"/>
<path id="Vector_27" d="M173.93 114.939L153.65 109.752L158.847 130.032L163.415 125.454L176.457 138.487L182.385 132.549L169.352 119.516L173.93 114.939Z" fill="white"/>
<path id="Vector_28" d="M177.844 140.785C177.71 140.785 177.578 140.76 177.454 140.709C177.331 140.659 177.218 140.584 177.123 140.49L164.801 128.168L160.944 132.025C160.815 132.157 160.652 132.252 160.474 132.298C160.295 132.345 160.106 132.342 159.929 132.289C159.758 132.242 159.602 132.15 159.478 132.024C159.353 131.897 159.264 131.74 159.219 131.568L154.032 111.268C153.988 111.098 153.989 110.919 154.035 110.75C154.081 110.58 154.171 110.425 154.294 110.3C154.418 110.175 154.572 110.085 154.742 110.038C154.911 109.99 155.09 109.988 155.26 110.03L175.56 115.217C175.735 115.261 175.894 115.35 176.023 115.476C176.151 115.602 176.244 115.76 176.292 115.933C176.339 116.106 176.34 116.289 176.293 116.463C176.247 116.637 176.155 116.795 176.027 116.922L172.17 120.779L184.462 133.121C184.649 133.31 184.755 133.566 184.756 133.832C184.757 133.965 184.731 134.098 184.681 134.221C184.63 134.345 184.556 134.458 184.462 134.552L178.524 140.49C178.343 140.671 178.1 140.776 177.844 140.785ZM164.801 125.722C164.935 125.721 165.067 125.747 165.191 125.797C165.315 125.848 165.427 125.922 165.522 126.016L177.844 138.338L182.34 133.832L170.018 121.52C169.924 121.425 169.85 121.313 169.799 121.189C169.749 121.065 169.723 120.933 169.724 120.799C169.728 120.53 169.833 120.273 170.018 120.079L173.337 116.77L156.448 112.446L160.772 129.335L164.091 126.016C164.28 125.829 164.535 125.723 164.801 125.722V125.722Z" fill="#093F68"/>
</g>
</g>
</svg>
