<svg width="80" height="47" viewBox="0 0 80 47" fill="none" xmlns="http://www.w3.org/2000/svg">
<g id="#532_sending_emails_outline">
<g id="Group 21">
<path id="Vector" d="M70.9316 5.4976V44.17C70.9316 44.6531 70.7397 45.1163 70.3981 45.4579C70.0566 45.7994 69.5933 45.9913 69.1103 45.9913H2.1524C1.67055 45.9895 1.20903 45.7969 0.868937 45.4555C0.528843 45.1141 0.337887 44.6519 0.337891 44.17V5.4976H70.9316Z" fill="white"/>
<path id="Vector_2" d="M69.1103 46.336H2.15242C1.86888 46.3351 1.58828 46.2784 1.32666 46.169C1.06503 46.0597 0.827505 45.8999 0.627635 45.6988C0.427765 45.4977 0.269468 45.2591 0.16178 44.9968C0.0540921 44.7345 -0.000878249 44.4536 1.06095e-05 44.17V5.4976C1.06095e-05 5.40799 0.0356102 5.32204 0.0989784 5.25867C0.162347 5.19531 0.248293 5.15971 0.337909 5.15971H70.9316C71.0212 5.15971 71.1072 5.19531 71.1705 5.25867C71.2339 5.32204 71.2695 5.40799 71.2695 5.4976V44.17C71.2699 44.454 71.2144 44.7353 71.1062 44.9979C70.9979 45.2604 70.839 45.4991 70.6385 45.7002C70.438 45.9013 70.1998 46.061 69.9376 46.1701C69.6754 46.2792 69.3943 46.3355 69.1103 46.336V46.336ZM0.675807 5.8355V44.17C0.676699 44.5632 0.83327 44.94 1.11126 45.218C1.38926 45.496 1.76604 45.6525 2.15918 45.6534H69.1103C69.5035 45.6525 69.8802 45.496 70.1582 45.218C70.4362 44.94 70.5928 44.5632 70.5937 44.17V5.8355H0.675807Z" fill="#093F68"/>
<path id="Vector_3" d="M2.1524 0.337898H69.1103C69.5933 0.337898 70.0566 0.529783 70.3981 0.871337C70.7397 1.21289 70.9316 1.67614 70.9316 2.15917V5.50098H0.337891V2.15917C0.337887 1.67731 0.528843 1.21508 0.868937 0.873719C1.20903 0.532358 1.67055 0.339686 2.1524 0.337898Z" fill="#68E1FD"/>
<path id="Vector_4" d="M70.9316 5.8355H0.337898C0.248282 5.8355 0.162336 5.7999 0.0989678 5.73653C0.0355996 5.67317 0 5.58722 0 5.4976V2.15917C0.000886238 1.58796 0.227729 1.04031 0.630999 0.635771C1.03427 0.231234 1.58121 0.00267684 2.15241 0H69.1103C69.6827 0.000893636 70.2313 0.228665 70.6361 0.633394C71.0408 1.03812 71.2686 1.5868 71.2695 2.15917V5.4976C71.2695 5.58722 71.2339 5.67317 71.1705 5.73653C71.1071 5.7999 71.0212 5.8355 70.9316 5.8355ZM0.675796 5.15971H70.5937V2.15917C70.5928 1.76603 70.4362 1.38925 70.1582 1.11125C69.8802 0.833259 69.5034 0.676689 69.1103 0.675796H2.15241C1.75927 0.676689 1.38249 0.833259 1.1045 1.11125C0.826502 1.38925 0.669932 1.76603 0.669039 2.15917L0.675796 5.15971Z" fill="#093F68"/>
<path id="Vector_5" d="M4.20617 3.4567C4.64472 3.4567 5.00023 3.10119 5.00023 2.66264C5.00023 2.22409 4.64472 1.86858 4.20617 1.86858C3.76762 1.86858 3.41211 2.22409 3.41211 2.66264C3.41211 3.10119 3.76762 3.4567 4.20617 3.4567Z" fill="#F56132"/>
<path id="Vector_6" d="M4.20618 1.87196C4.36352 1.87129 4.5175 1.91737 4.6486 2.00437C4.7797 2.09136 4.882 2.21535 4.94252 2.36058C5.00304 2.50581 5.01905 2.66575 4.98852 2.8201C4.95799 2.97444 4.88229 3.11624 4.77104 3.2275C4.65978 3.33875 4.51799 3.41445 4.36364 3.44498C4.20929 3.47551 4.04936 3.4595 3.90412 3.39898C3.75889 3.33846 3.63491 3.23616 3.54791 3.10506C3.46092 2.97396 3.41483 2.81997 3.4155 2.66264C3.41639 2.45321 3.49998 2.25261 3.64807 2.10452C3.79616 1.95643 3.99675 1.87284 4.20618 1.87196V1.87196ZM4.20618 1.19616C3.91533 1.19616 3.63101 1.28245 3.38922 1.44411C3.14743 1.60577 2.95904 1.83553 2.84789 2.10431C2.73674 2.37309 2.70783 2.6688 2.76482 2.95402C2.82181 3.23923 2.96213 3.50113 3.16804 3.70656C3.37394 3.91199 3.63616 4.05171 3.9215 4.10804C4.20685 4.16437 4.5025 4.13478 4.77102 4.02301C5.03954 3.91125 5.26886 3.72233 5.42997 3.48017C5.59107 3.23801 5.67671 2.95349 5.67604 2.66264C5.67514 2.27339 5.51989 1.9004 5.24433 1.62547C4.96878 1.35055 4.59543 1.19616 4.20618 1.19616V1.19616Z" fill="#093F68"/>
<path id="Vector_7" d="M7.85656 3.4567C8.29511 3.4567 8.65062 3.10119 8.65062 2.66264C8.65062 2.22409 8.29511 1.86858 7.85656 1.86858C7.41801 1.86858 7.0625 2.22409 7.0625 2.66264C7.0625 3.10119 7.41801 3.4567 7.85656 3.4567Z" fill="#FFBC0E"/>
<path id="Vector_8" d="M7.85604 1.87195C8.01324 1.87195 8.1669 1.91861 8.29755 2.00601C8.4282 2.09342 8.52998 2.21763 8.58998 2.36292C8.64998 2.50822 8.66551 2.66805 8.63459 2.82217C8.60368 2.9763 8.52771 3.11778 8.41632 3.2287C8.30493 3.33961 8.16313 3.41497 8.00888 3.44523C7.85462 3.47548 7.69486 3.45927 7.54982 3.39865C7.40479 3.33804 7.28101 3.23573 7.19416 3.10471C7.10732 2.97368 7.06131 2.81983 7.06198 2.66263C7.06198 2.55852 7.08255 2.45542 7.12249 2.35927C7.16244 2.26312 7.22098 2.1758 7.29476 2.10234C7.36854 2.02887 7.45611 1.9707 7.55243 1.93117C7.64875 1.89163 7.75193 1.87151 7.85604 1.87195V1.87195ZM7.85604 1.19616C7.56505 1.19549 7.2804 1.28121 7.03817 1.44246C6.79593 1.60372 6.60701 1.83324 6.49535 2.10196C6.38368 2.37068 6.35428 2.6665 6.41089 2.95194C6.4675 3.23737 6.60756 3.49959 6.81332 3.70535C7.01909 3.91112 7.2813 4.05118 7.56674 4.10779C7.85218 4.16439 8.148 4.135 8.41672 4.02333C8.68544 3.91166 8.91496 3.72275 9.07621 3.48051C9.23747 3.23828 9.32319 2.95363 9.32252 2.66263C9.32163 2.27398 9.16684 1.90149 8.89201 1.62666C8.61719 1.35184 8.2447 1.19705 7.85604 1.19616V1.19616Z" fill="#093F68"/>
<path id="Vector_9" d="M11.503 3.4567C11.9416 3.4567 12.2971 3.10119 12.2971 2.66264C12.2971 2.22409 11.9416 1.86858 11.503 1.86858C11.0645 1.86858 10.709 2.22409 10.709 2.66264C10.709 3.10119 11.0645 3.4567 11.503 3.4567Z" fill="#70CC40"/>
<path id="Vector_10" d="M11.502 1.87196C11.6592 1.87196 11.8129 1.91861 11.9435 2.00602C12.0742 2.09342 12.1759 2.21764 12.2359 2.36293C12.2959 2.50822 12.3115 2.66805 12.2806 2.82218C12.2496 2.9763 12.1737 3.11778 12.0623 3.2287C11.9509 3.33961 11.8091 3.41497 11.6548 3.44523C11.5006 3.47549 11.3408 3.45928 11.1958 3.39866C11.0507 3.33804 10.927 3.23574 10.8401 3.10471C10.7533 2.97368 10.7073 2.81983 10.7079 2.66264C10.7088 2.45263 10.7929 2.25152 10.9417 2.10334C11.0905 1.95515 11.292 1.87195 11.502 1.87196V1.87196ZM11.502 1.19616C11.2109 1.19482 10.9259 1.27997 10.6832 1.44082C10.4405 1.60166 10.2511 1.83095 10.1389 2.09961C10.0267 2.36827 9.99684 2.66419 10.0531 2.94985C10.1093 3.23551 10.2491 3.49804 10.4547 3.70415C10.6603 3.91025 10.9225 4.05065 11.2081 4.10753C11.4936 4.16441 11.7896 4.13522 12.0585 4.02365C12.3274 3.91208 12.5572 3.72317 12.7186 3.48086C12.88 3.23856 12.9658 2.95378 12.9651 2.66264C12.9642 2.27339 12.809 1.9004 12.5334 1.62547C12.2578 1.35055 11.8845 1.19616 11.4952 1.19616H11.502Z" fill="#093F68"/>
<g id="mail">
<path id="Vector_11" d="M79.3082 7.90675H41.2676V30.4209H79.3082V7.90675Z" fill="#68E1FD"/>
<g id="Group 20">
<path id="Vector_12" d="M79.646 30.7638H41.6055C41.5159 30.7638 41.4299 30.7282 41.3665 30.6648C41.3032 30.6015 41.2676 30.5155 41.2676 30.4259V7.91174C41.2676 7.82213 41.3032 7.73618 41.3665 7.67281C41.4299 7.60944 41.5159 7.57384 41.6055 7.57384H79.646C79.7357 7.57384 79.8216 7.60944 79.885 7.67281C79.9484 7.73618 79.9839 7.82213 79.9839 7.91174V30.4259C79.9839 30.5155 79.9484 30.6015 79.885 30.6648C79.8216 30.7282 79.7357 30.7638 79.646 30.7638ZM41.9434 30.088H79.3082V8.24964H41.9434V30.088Z" fill="#093F68"/>
<path id="Vector_13" d="M60.6277 16.7613L41.6074 30.4259H79.648L60.6277 16.7613Z" fill="#68E1FD"/>
<path id="Vector_14" d="M79.6478 30.7638H41.6072C41.536 30.7633 41.4667 30.7404 41.4093 30.6982C41.3519 30.6561 41.3093 30.5968 41.2876 30.529C41.2659 30.4612 41.2661 30.3882 41.2883 30.3206C41.3105 30.2529 41.3535 30.194 41.4112 30.1522L60.4315 16.4876C60.4888 16.4469 60.5573 16.425 60.6275 16.425C60.6978 16.425 60.7663 16.4469 60.8235 16.4876L79.8607 30.1522C79.9186 30.1941 79.9617 30.2534 79.9838 30.3214C80.006 30.3894 80.0059 30.4626 79.9838 30.5306C79.9616 30.5986 79.9185 30.6578 79.8605 30.6997C79.8026 30.7416 79.7328 30.764 79.6613 30.7638H79.6478ZM42.6581 30.088H78.6003L60.6275 17.1769L42.6581 30.088Z" fill="#093F68"/>
<path id="Vector_15" d="M60.6277 21.5763L41.6074 7.91174H79.648L60.6277 21.5763Z" fill="#68E1FD"/>
<path id="Vector_16" d="M60.6262 21.9142C60.5558 21.9138 60.4873 21.8913 60.4302 21.85L41.41 8.18544C41.3524 8.14397 41.3093 8.08542 41.2869 8.0181C41.2644 7.95078 41.2638 7.8781 41.2849 7.81038C41.3064 7.742 41.3491 7.68223 41.4068 7.63971C41.4645 7.5972 41.5343 7.57413 41.6059 7.57384H79.6465C79.7182 7.57413 79.7879 7.5972 79.8456 7.63971C79.9033 7.68223 79.946 7.742 79.9675 7.81038C79.9891 7.87776 79.9889 7.9502 79.9671 8.01749C79.9453 8.08478 79.9029 8.14353 79.8459 8.18544L60.8222 21.85C60.7658 21.8926 60.6969 21.9152 60.6262 21.9142V21.9142ZM42.6568 8.24964L60.6262 21.1607L78.599 8.24964H42.6568Z" fill="#093F68"/>
<path id="Vector_17" d="M61.7718 15.9909C61.7718 16.0551 61.7448 16.1294 61.7313 16.2173C61.7187 16.291 61.7119 16.3655 61.711 16.4403C61.7108 16.4879 61.7236 16.5346 61.7481 16.5754C61.7663 16.5965 61.7894 16.6128 61.8153 16.6228C61.8412 16.6328 61.8692 16.6363 61.8968 16.6329C61.9715 16.6319 62.0447 16.6121 62.1097 16.5754C62.187 16.5298 62.2519 16.466 62.2989 16.3896C62.3591 16.2912 62.4036 16.1841 62.4307 16.072C62.4684 15.9229 62.4865 15.7696 62.4848 15.6158C62.4889 15.3692 62.4429 15.1244 62.3496 14.8961C62.2672 14.6963 62.1414 14.5174 61.9813 14.3723C61.8175 14.2282 61.6252 14.12 61.417 14.0547C61.1853 13.9821 60.9435 13.9468 60.7007 13.95C60.4367 13.9463 60.1747 13.9957 59.9303 14.0953C59.7051 14.1862 59.5014 14.3231 59.3322 14.4974C59.164 14.6733 59.033 14.8813 58.947 15.109C58.8546 15.3564 58.8088 15.6187 58.8118 15.8828C58.8077 16.158 58.8582 16.4314 58.9605 16.687C59.0554 16.916 59.1996 17.1213 59.3829 17.2884C59.5678 17.4549 59.7836 17.5835 60.0181 17.6669C60.2755 17.7566 60.5464 17.8012 60.8189 17.7986C61.0608 17.8006 61.3015 17.7641 61.5319 17.6905C61.7395 17.6216 61.9338 17.5176 62.1063 17.383H62.8598C62.6225 17.7116 62.3064 17.9753 61.9407 18.15C61.5736 18.3253 61.1717 18.4154 60.7649 18.4136C60.4181 18.4141 60.0744 18.35 59.7512 18.2244C59.4391 18.1061 59.1524 17.9295 58.9064 17.704C58.6561 17.4722 58.4575 17.1901 58.3236 16.8763C58.1897 16.5625 58.1234 16.2239 58.1293 15.8828C58.1245 15.534 58.1948 15.1883 58.3354 14.8691C58.4661 14.5657 58.6556 14.2913 58.8929 14.0615C59.1333 13.832 59.4155 13.6508 59.7241 13.5276C60.0459 13.3965 60.3904 13.3299 60.7378 13.3316C61.0391 13.3324 61.3382 13.3826 61.6231 13.4803C61.906 13.5744 62.1685 13.7212 62.3969 13.9128C62.6407 14.1153 62.8354 14.3704 62.9665 14.6589C63.0976 14.9474 63.1616 15.2618 63.1538 15.5786C63.1582 15.7912 63.1297 16.0032 63.0693 16.2071C63.0206 16.3671 62.9477 16.5187 62.8531 16.6565C62.7693 16.772 62.6678 16.8735 62.5523 16.9573C62.4479 17.0304 62.3343 17.0895 62.2144 17.133C62.1103 17.1719 62.0029 17.2013 61.8934 17.2208C61.8084 17.2338 61.7226 17.2417 61.6366 17.2445C61.4903 17.2585 61.3441 17.2162 61.2278 17.1262C61.1533 17.0615 61.1062 16.9709 61.096 16.8728C60.9955 16.9723 60.8818 17.0576 60.7581 17.1262C60.5946 17.2113 60.4117 17.2521 60.2276 17.2445C60.0898 17.2458 59.9534 17.2158 59.8289 17.1566C59.7093 17.1029 59.6031 17.0233 59.518 16.9235C59.4277 16.8172 59.3588 16.6944 59.3153 16.5619C59.2666 16.4113 59.2427 16.2539 59.2443 16.0956C59.2447 15.9003 59.2766 15.7063 59.3389 15.5212C59.4004 15.3426 59.4918 15.1758 59.6093 15.0279C59.726 14.8867 59.871 14.7716 60.035 14.69C60.2141 14.604 60.4108 14.5611 60.6094 14.5649C60.765 14.5599 60.9198 14.5899 61.0622 14.6528C61.1885 14.7175 61.2887 14.8237 61.346 14.9535V14.9535L61.4001 14.646H62.0421L61.7718 15.9909ZM61.1399 15.805C61.1448 15.646 61.1012 15.4893 61.0149 15.3556C60.9717 15.2961 60.9139 15.2486 60.847 15.2178C60.7801 15.1871 60.7065 15.174 60.6331 15.1799C60.5367 15.1766 60.441 15.1971 60.3543 15.2395C60.2677 15.2819 60.1929 15.345 60.1364 15.4232C60.009 15.5973 59.9436 15.8091 59.9505 16.0247C59.9506 16.0983 59.9574 16.1719 59.9708 16.2443C59.9832 16.3121 60.0072 16.3773 60.0418 16.4369C60.0787 16.4947 60.1284 16.5432 60.1871 16.5788C60.26 16.6168 60.3414 16.6354 60.4236 16.6329C60.5404 16.6336 60.6558 16.6082 60.7615 16.5585C60.8494 16.5119 60.9248 16.4446 60.9811 16.3626C61.035 16.2811 61.0739 16.1907 61.096 16.0956C61.1207 16.0006 61.1354 15.9032 61.1399 15.805Z" fill="white"/>
</g>
</g>
<path id="Vector_18" d="M32.7755 14.7391H17.418C17.3284 14.7391 17.2424 14.7035 17.1791 14.6402C17.1157 14.5768 17.0801 14.4908 17.0801 14.4012C17.0801 14.3116 17.1157 14.2257 17.1791 14.1623C17.2424 14.0989 17.3284 14.0633 17.418 14.0633H32.7755C32.8651 14.0633 32.951 14.0989 33.0144 14.1623C33.0778 14.2257 33.1134 14.3116 33.1134 14.4012C33.1134 14.4908 33.0778 14.5768 33.0144 14.6402C32.951 14.7035 32.8651 14.7391 32.7755 14.7391Z" fill="#093F68"/>
<path id="Vector_19" d="M29.5789 19.8177H7.85548C7.76586 19.8177 7.67991 19.7821 7.61655 19.7188C7.55318 19.6554 7.51758 19.5695 7.51758 19.4798C7.51758 19.3902 7.55318 19.3043 7.61655 19.2409C7.67991 19.1775 7.76586 19.1419 7.85548 19.1419H29.5789C29.6686 19.1419 29.7545 19.1775 29.8179 19.2409C29.8812 19.3043 29.9168 19.3902 29.9168 19.4798C29.9168 19.5695 29.8812 19.6554 29.8179 19.7188C29.7545 19.7821 29.6686 19.8177 29.5789 19.8177V19.8177Z" fill="#093F68"/>
<path id="Vector_20" d="M39.1038 24.9977H15.2617C15.1721 24.9977 15.0862 24.9621 15.0228 24.8987C14.9594 24.8354 14.9238 24.7494 14.9238 24.6598C14.9238 24.5702 14.9594 24.4842 15.0228 24.4209C15.0862 24.3575 15.1721 24.3219 15.2617 24.3219H39.1038C39.1934 24.3219 39.2794 24.3575 39.3428 24.4209C39.4061 24.4842 39.4417 24.5702 39.4417 24.6598C39.4417 24.7494 39.4061 24.8354 39.3428 24.8987C39.2794 24.9621 39.1934 24.9977 39.1038 24.9977Z" fill="#093F68"/>
<path id="Vector_21" d="M57.2903 34.469H13.9751C12.0828 34.469 10.5488 36.0022 10.5488 37.8936C10.5488 39.7849 12.0828 41.3182 13.9751 41.3182H57.2903C59.1826 41.3182 60.7166 39.7849 60.7166 37.8936C60.7166 36.0022 59.1826 34.469 57.2903 34.469Z" fill="#FFBC0E"/>
<path id="Vector_22" d="M57.2942 41.6595H13.979C12.9807 41.6595 12.0233 41.2629 11.3173 40.557C10.6114 39.851 10.2148 38.8936 10.2148 37.8953C10.2148 36.8969 10.6114 35.9395 11.3173 35.2336C12.0233 34.5277 12.9807 34.1311 13.979 34.1311H57.2976C58.2959 34.1311 59.2533 34.5277 59.9593 35.2336C60.6652 35.9395 61.0618 36.8969 61.0618 37.8953C61.0618 38.8936 60.6652 39.851 59.9593 40.557C59.2533 41.2629 58.2959 41.6595 57.2976 41.6595H57.2942ZM13.979 34.8069C13.1599 34.8069 12.3744 35.1323 11.7952 35.7115C11.216 36.2906 10.8906 37.0762 10.8906 37.8953C10.8906 38.7144 11.216 39.4999 11.7952 40.0791C12.3744 40.6583 13.1599 40.9837 13.979 40.9837H57.2976C58.1167 40.9837 58.9022 40.6583 59.4814 40.0791C60.0606 39.4999 60.386 38.7144 60.386 37.8953C60.386 37.0762 60.0606 36.2906 59.4814 35.7115C58.9022 35.1323 58.1167 34.8069 57.2976 34.8069H13.979Z" fill="#093F68"/>
<path id="Vector_23" d="M31.8264 37.0742C31.7749 36.9948 31.699 36.9343 31.6101 36.9019C31.4647 36.8413 31.3039 36.8283 31.1506 36.8647C31.0974 36.8781 31.047 36.901 31.0019 36.9323C30.9573 36.9615 30.9203 37.0009 30.8938 37.0472C30.8658 37.099 30.8518 37.1572 30.8533 37.2161C30.8514 37.2586 30.8596 37.301 30.8772 37.3398C30.8948 37.3785 30.9214 37.4126 30.9546 37.4391C31.0314 37.4945 31.1156 37.5389 31.2047 37.5709C31.306 37.6081 31.4142 37.6452 31.5426 37.6824C31.6618 37.7138 31.7757 37.7628 31.8805 37.8277C31.9805 37.8911 32.0658 37.9752 32.1305 38.0744C32.2036 38.1978 32.2388 38.34 32.2319 38.4832C32.2358 38.6231 32.2069 38.762 32.1474 38.8887C32.094 38.9999 32.0153 39.0972 31.9176 39.1725C31.8173 39.2514 31.7025 39.31 31.5797 39.3449C31.449 39.3822 31.3136 39.4004 31.1776 39.3989C31.0026 39.4003 30.8287 39.3705 30.664 39.3111C30.4977 39.2508 30.3507 39.1469 30.2383 39.0103L30.6235 38.6387C30.6843 38.7329 30.7695 38.8088 30.8702 38.8583C30.9738 38.9143 31.0903 38.9423 31.2081 38.9394C31.2687 38.9385 31.3289 38.9294 31.3871 38.9124C31.4445 38.8972 31.4992 38.8732 31.5493 38.8414C31.597 38.8084 31.6372 38.7658 31.6676 38.7164C31.6964 38.6635 31.7115 38.6043 31.7115 38.544C31.7142 38.4985 31.7065 38.4529 31.6889 38.4107C31.6713 38.3686 31.6444 38.331 31.6101 38.3008C31.5347 38.2389 31.4489 38.1908 31.3567 38.1588C31.2463 38.1152 31.1335 38.078 31.0188 38.0473C30.9007 38.0129 30.7872 37.9641 30.6809 37.902C30.5803 37.8408 30.4948 37.7577 30.4309 37.6588C30.3575 37.5355 30.3222 37.3932 30.3295 37.2499C30.326 37.1158 30.3575 36.983 30.4207 36.8647C30.479 36.7594 30.5598 36.6682 30.6573 36.5978C30.7594 36.5241 30.8738 36.4691 30.9952 36.4356C31.1219 36.4017 31.2526 36.3847 31.3838 36.3849C31.5329 36.3834 31.6812 36.4062 31.823 36.4525C31.9655 36.4988 32.0959 36.5761 32.2049 36.6789L31.8264 37.0742Z" fill="#093F68"/>
<path id="Vector_24" d="M32.7461 36.4592H34.6485V36.9221H33.2597V37.6283H34.591V38.0879H33.2732V38.8651H34.7363V39.328H32.7596L32.7461 36.4592Z" fill="#093F68"/>
<path id="Vector_25" d="M35.2266 36.4592H35.9024L37.2945 38.5914V36.4592H37.8047V39.3313H37.156L35.7368 37.1283V39.3313H35.2266V36.4592Z" fill="#093F68"/>
<path id="Vector_26" d="M38.4531 36.4592H39.5851C39.7711 36.4592 39.9558 36.4889 40.1325 36.5471C40.3071 36.6034 40.4678 36.6961 40.6041 36.819C40.7404 36.9418 40.8491 37.0922 40.9232 37.26C41.0084 37.4607 41.0499 37.6773 41.0448 37.8953C41.0497 38.1026 41.0069 38.3082 40.9196 38.4963C40.8322 38.6844 40.7028 38.8499 40.5413 38.9799C40.3959 39.0976 40.2297 39.187 40.0514 39.2435C39.8813 39.3 39.7035 39.3297 39.5243 39.3313H38.4531V36.4592ZM39.3452 38.8684C39.4978 38.8698 39.65 38.8516 39.798 38.8144C39.9307 38.7813 40.0558 38.7228 40.1663 38.642C40.2738 38.566 40.3599 38.4636 40.4163 38.3447C40.4807 38.2038 40.5119 38.0501 40.5075 37.8953C40.5112 37.7426 40.4836 37.5908 40.4265 37.4493C40.3785 37.3319 40.3018 37.2285 40.2034 37.1485C40.1034 37.0691 39.9886 37.0105 39.8655 36.9762C39.7245 36.9385 39.579 36.9203 39.433 36.9221H38.9667V38.8684H39.3452Z" fill="#093F68"/>
<path id="Vector_27" d="M57.9016 38.2636L51.1504 36.5369L52.8804 43.2881L54.401 41.7642L58.743 46.1028L60.7163 44.1261L56.3777 39.7875L57.9016 38.2636Z" fill="white"/>
<path id="Vector_28" d="M59.2054 46.8678C59.1609 46.8681 59.1168 46.8596 59.0756 46.8428C59.0345 46.8259 58.997 46.8012 58.9655 46.7698L54.8634 42.6678L53.5794 43.9518C53.5364 43.9958 53.4822 44.0272 53.4226 44.0427C53.3631 44.0582 53.3004 44.0571 53.2415 44.0396C53.1845 44.0238 53.1327 43.9934 53.0912 43.9513C53.0497 43.9092 53.0199 43.8569 53.0049 43.7997L51.2783 37.0418C51.2637 36.9851 51.264 36.9256 51.2793 36.8691C51.2946 36.8126 51.3243 36.761 51.3656 36.7195C51.4068 36.6779 51.4581 36.6478 51.5145 36.632C51.5708 36.6162 51.6303 36.6154 51.6871 36.6295L58.4451 38.3562C58.5032 38.3708 58.5563 38.4006 58.5991 38.4425C58.6419 38.4844 58.6727 38.5369 58.6886 38.5946C58.7044 38.6524 58.7046 38.7133 58.6891 38.7711C58.6736 38.829 58.6431 38.8817 58.6005 38.9239L57.3165 40.2079L61.4085 44.3167C61.4709 44.3796 61.5061 44.4646 61.5065 44.5532C61.5067 44.5977 61.4982 44.6418 61.4814 44.683C61.4645 44.7241 61.4398 44.7616 61.4085 44.7931L59.4318 46.7698C59.3713 46.8299 59.2905 46.8649 59.2054 46.8678ZM54.8634 41.8534C54.9078 41.8532 54.9519 41.8617 54.9931 41.8785C55.0343 41.8953 55.0717 41.9201 55.1033 41.9514L59.2054 46.0535L60.7023 44.5532L56.6002 40.4545C56.5688 40.423 56.5441 40.3855 56.5273 40.3443C56.5104 40.3032 56.5019 40.2591 56.5022 40.2146C56.5034 40.1252 56.5384 40.0395 56.6002 39.9747L57.7051 38.8732L52.0825 37.4337L53.5219 43.0563L54.6268 41.9514C54.6898 41.889 54.7747 41.8538 54.8634 41.8534V41.8534Z" fill="#093F68"/>
</g>
</g>
</svg>
