<?xml version="1.0" encoding="iso-8859-1"?>
<!-- Generator: Adobe Illustrator 19.0.0, SVG Export Plug-In . SVG Version: 6.00 Build 0)  -->
<svg version="1.1" id="Layer_1" xmlns="http://www.w3.org/2000/svg" xmlns:xlink="http://www.w3.org/1999/xlink" x="0px" y="0px"
	 viewBox="0 0 512 512" style="enable-background:new 0 0 512 512;" xml:space="preserve">
<path style="fill:#FA6E51;" d="M512,256.006C512,397.402,397.394,512.004,256.004,512C114.606,512.004,0,397.402,0,256.006
	C-0.007,114.61,114.606,0,256.004,0C397.394,0,512,114.614,512,256.006z"/>
<path style="fill:#E8573F;" d="M512,256.005c0-38.636-8.609-75.245-23.933-108.089c-0.138-0.135-0.268-0.279-0.412-0.413
	c-0.514-0.548-58.365-58.403-58.919-58.919c-6.099-6.501-14.716-10.631-24.34-10.631H275.315c-18.707,0-34.515,15.211-34.515,33.22
	V188.1c0,4.449,0.965,8.715,2.643,12.647c-0.151-0.13-0.29-0.271-0.444-0.399c-0.545-0.515-54.528-55.844-79.618-79.62
	c-0.547-0.518-2.62-2.714-3.2-3.196c-5.659-5.355-12.954-8.724-20.826-9.216c-9.589-0.489-18.979,2.966-25.771,9.774l-27.628,27.695
	c-15.346,15.375-37.565,64.629,87.203,189.663c0.258,0.258,0.495,0.478,0.753,0.736c0.289,0.289,162.151,162.151,162.397,162.396
	c0.126,0.128,0.247,0.253,0.368,0.375C438.518,465.158,512,369.2,512,256.005z"/>
<g>
	<path style="fill:#F6F6F6;" d="M386.992,344.964l-43.254-33.739c-12.208-9.515-29.211-9.456-41.356,0.148l-9.618,7.614
		c-7.292,5.771-17.758,5.157-24.335-1.421l-77.366-77.533c-6.585-6.607-7.199-17.114-1.424-24.438l7.599-9.641
		c9.582-12.149,9.645-29.174,0.148-41.397l-33.662-43.343c-5.897-7.599-14.78-12.297-24.368-12.896
		c-9.589-0.489-18.978,2.967-25.771,9.774l-27.628,27.694c-15.345,15.375-37.565,64.629,87.203,189.664
		c81.311,81.491,130.928,98.598,158.234,98.598h0.003c16.444,0,25.978-6.09,31.075-11.202l27.631-27.686
		c6.785-6.8,10.336-16.204,9.737-25.807C399.244,359.762,394.561,350.869,386.992,344.964z M379.374,384.46l-27.631,27.686
		c-3.071,3.078-9.097,6.748-20.351,6.748c-20.006,0-65.773-12.23-147.505-94.144C89.737,230.4,78.068,175.137,96.684,156.484
		l27.628-27.694c3.447-3.455,8.121-5.379,12.966-5.379c0.378,0,0.755,0.007,1.136,0.037c5.246,0.325,10.107,2.9,13.34,7.058
		l33.665,43.343c5.209,6.71,5.175,16.055-0.081,22.722l-7.599,9.641c-10.522,13.347-9.408,32.489,2.593,44.519l77.371,77.54
		c12.023,12.038,31.142,13.14,44.464,2.597l9.618-7.614c6.64-5.276,15.952-5.305,22.629-0.089l43.254,33.739
		c4.155,3.241,6.722,8.124,7.047,13.385C385.045,375.567,383.095,380.723,379.374,384.46z"/>
	<path style="fill:#F6F6F6;" d="M404.398,77.952H275.316c-18.708,0-34.516,15.212-34.516,33.221V188.1
		c0,18.327,15.808,33.806,34.516,33.806h3.366v30.306c0,3.019,1.787,5.742,4.554,6.947c0.973,0.421,2.001,0.629,3.023,0.629
		c1.879,0,3.732-0.703,5.165-2.035l38.508-35.847h74.466c18.412,0,33.391-15.168,33.391-33.806v-76.927
		C437.789,92.854,422.81,77.952,404.398,77.952z M422.636,188.1c0,10.114-8.353,18.653-18.238,18.653h-77.449
		c-1.917,0-3.759,0.725-5.165,2.035l-27.95,26.022v-20.48c0-4.188-3.392-7.577-7.577-7.577h-10.943
		c-10.133,0-19.363-8.894-19.363-18.653v-76.927c0-9.626,9.049-18.068,19.363-18.068h129.082c10.055,0,18.238,8.101,18.238,18.068
		V188.1H422.636z"/>
	<path style="fill:#F6F6F6;" d="M381.494,143.107c-2.804-1.132-6.211-0.451-8.257,1.665c-1.439,1.443-2.275,3.337-2.275,5.387
		c0,1.968,0.836,3.862,2.275,5.298c1.439,1.443,3.333,2.278,5.379,2.278c0.985,0,1.968-0.229,2.878-0.607
		c0.91-0.385,1.743-0.91,2.423-1.673c1.439-1.436,2.197-3.329,2.197-5.298c0-2.049-0.758-3.943-2.197-5.387
		C383.236,144.092,382.404,143.485,381.494,143.107z"/>
	<path style="fill:#F6F6F6;" d="M342.78,143.107c-2.804-1.132-6.215-0.451-8.261,1.665c-1.439,1.443-2.271,3.337-2.271,5.387
		c0,1.968,0.832,3.862,2.271,5.298c0.685,0.762,1.517,1.287,2.427,1.673c0.91,0.378,1.894,0.607,2.878,0.607
		c2.046,0,3.94-0.836,5.379-2.278c1.439-1.436,2.197-3.329,2.197-5.298c0-2.049-0.758-3.943-2.197-5.387
		C344.522,144.092,343.685,143.485,342.78,143.107z"/>
	<path style="fill:#F6F6F6;" d="M304.061,143.107c-2.8-1.132-6.211-0.451-8.331,1.665c-1.365,1.443-2.197,3.337-2.197,5.387
		c0,1.968,0.832,3.862,2.197,5.298c0.755,0.762,1.59,1.287,2.497,1.673c0.91,0.378,1.894,0.607,2.882,0.607
		c1.058,0,1.968-0.229,2.953-0.607c0.91-0.385,1.743-0.91,2.427-1.673c1.439-1.436,2.197-3.329,2.197-5.298
		c0-2.049-0.758-3.943-2.197-5.387C305.803,144.092,304.971,143.485,304.061,143.107z"/>
</g>
<g>
</g>
<g>
</g>
<g>
</g>
<g>
</g>
<g>
</g>
<g>
</g>
<g>
</g>
<g>
</g>
<g>
</g>
<g>
</g>
<g>
</g>
<g>
</g>
<g>
</g>
<g>
</g>
<g>
</g>
</svg>
