<svg width="134" height="200" viewBox="0 0 134 200" fill="none" xmlns="http://www.w3.org/2000/svg">
<g id="Group 16">
<path id="Vector" d="M63.155 0.199631C59.5278 1.20809 56.9416 4.57501 56.9254 8.28352C56.9254 10.2842 57.4947 12.0408 58.6007 13.5047C58.9423 13.9276 59.2025 14.2854 59.2025 14.318C59.2025 14.3342 51.4602 14.3505 42.01 14.3505H24.8012L24.7524 15.1963L24.7036 16.0421L14.1799 16.0909C2.58268 16.1397 3.15197 16.0909 1.89953 17.1807C1.59049 17.4735 1.16759 18.0103 0.988668 18.4006L0.647095 19.0838V108.007C0.647095 187.984 0.679626 196.995 0.907341 197.548C1.21638 198.312 1.99712 199.125 2.84292 199.581L3.49354 199.939L66.6846 199.987C124.85 200.02 129.924 200.004 130.673 199.76C131.795 199.386 132.787 198.345 133.129 197.222C133.356 196.442 133.373 187.463 133.34 107.714L133.291 19.0675L132.95 18.4169C132.494 17.5873 131.844 16.9367 131.014 16.4813C130.364 16.1397 130.299 16.1397 118.213 16.0909L106.047 16.0421V15.2451V14.4319H88.8055C79.3228 14.4319 71.5642 14.3993 71.5642 14.3505C71.5642 14.3017 71.8245 13.9276 72.166 13.5047C73.3697 11.9107 73.939 9.95886 73.8088 7.81183C73.5974 4.47742 71.4829 1.66351 68.2786 0.411072C67.14 -0.0280939 64.3749 -0.141943 63.155 0.199631ZM67.2539 3.55029C68.4901 4.00572 69.7913 5.30697 70.2467 6.54314C71.1738 8.99921 70.1654 11.6667 67.8232 12.9517C66.8473 13.4885 66.6683 13.5373 65.3834 13.5373C64.0984 13.5373 63.9195 13.4885 62.9436 12.9517C61.0568 11.9107 60.0483 10.0727 60.2272 7.97449C60.5038 4.54249 64.0008 2.33039 67.2539 3.55029ZM25.2892 25.899C26.0699 28.1273 27.6802 29.9653 29.7947 31.0388C31.8279 32.0635 29.632 32.0147 65.9039 31.9659L98.9714 31.9172L99.9311 31.543C102.729 30.4858 104.729 28.4364 105.591 25.8014L105.949 24.679H114.131H122.312L122.329 51.8748C122.345 66.8389 122.41 88.6346 122.459 100.313C122.556 117.977 122.572 113.504 122.605 73.6704L122.638 25.8176H123.37H124.101V109.747V193.676H66.9286H9.73945L9.78825 191.432L9.83704 189.204L57.6573 189.122C83.9585 189.073 100.289 189.025 93.9291 188.992C87.5856 188.976 65.7412 188.96 45.4257 188.96H8.45448V106.819V24.679L16.6685 24.7116L24.8988 24.7604L25.2892 25.899Z" fill="#4A8BFF"/>
<path id="Vector_2" d="M57.6085 49.7603C57.088 50.2808 57.7386 51.0615 58.3893 50.7037C58.9423 50.4109 58.6983 49.5651 58.0639 49.5651C57.9176 49.5651 57.7224 49.6464 57.6085 49.7603Z" fill="#1A2E35"/>
<path id="Vector_3" d="M55.2988 52.8181V55.7458H55.7868H56.2748V52.8181V49.8903H55.7868H55.2988V52.8181Z" fill="#1A2E35"/>
<path id="Vector_4" d="M97.4262 52.8181C97.4262 55.3067 97.4587 55.7458 97.6702 55.7458C97.8816 55.7458 97.9142 55.3067 97.9142 52.8181C97.9142 50.3295 97.8816 49.8903 97.6702 49.8903C97.4587 49.8903 97.4262 50.3295 97.4262 52.8181Z" fill="#1A2E35"/>
<path id="Vector_5" d="M39.9768 50.1995C38.4479 50.6875 37.6346 52.2164 38.0575 53.7616C38.2852 54.6399 39.1635 55.5345 39.9443 55.6809C40.2696 55.746 40.7738 55.99 41.0666 56.2502C41.766 56.8683 42.4004 57.0798 43.116 56.9659C43.913 56.8358 44.2871 56.4291 43.9944 56.0225C43.7992 55.746 43.7666 55.746 43.2949 56.0225C42.872 56.2665 42.7419 56.2665 42.3516 56.0876C41.9124 55.8924 41.8961 55.8598 42.1889 55.6809C43.4413 54.9327 43.913 54.1845 43.913 52.9646C43.913 51.9074 43.4413 51.029 42.5955 50.5573C41.8961 50.1507 40.6437 49.988 39.9768 50.1995ZM42.254 51.582C42.7907 52.0863 42.8558 52.2164 42.8558 52.9646C42.8558 53.664 42.7745 53.8592 42.3516 54.2984C41.0829 55.5508 39.0334 54.7375 39.0334 52.9809C39.0334 51.8586 39.863 51.0453 41.0341 51.029C41.5058 51.029 41.7823 51.1591 42.254 51.582Z" fill="#1A2E35"/>
<path id="Vector_6" d="M71.7594 50.2481C69.9051 50.671 69.0756 52.9319 70.1816 54.6235C70.6859 55.388 71.4666 55.7458 72.654 55.7458C73.7763 55.7458 74.8173 55.2416 74.492 54.8513C74.3293 54.6561 74.2317 54.6723 73.7926 54.9488C73.1257 55.3555 72.1172 55.3392 71.4341 54.9326C70.1166 54.1193 69.8889 52.4765 70.9624 51.403C71.7106 50.6385 72.8654 50.4759 73.7438 50.9964C74.2155 51.2729 74.3456 51.2891 74.492 51.1102C74.6384 50.9313 74.5733 50.8174 74.1341 50.5409C73.8414 50.362 73.4835 50.2156 73.3534 50.2156C73.2233 50.2156 72.963 50.1831 72.7841 50.1506C72.6052 50.118 72.1498 50.1506 71.7594 50.2481Z" fill="#1A2E35"/>
<path id="Vector_7" d="M60.0158 51.029C60.0158 51.4031 59.9507 51.517 59.6905 51.517C59.4465 51.517 59.3652 51.6308 59.3652 51.9236C59.3652 52.2164 59.4465 52.3302 59.6905 52.3302C59.9833 52.3302 60.0158 52.4441 60.0158 53.5664C60.0158 54.7375 60.1784 55.3719 60.5688 55.6159C60.8291 55.7948 62.2604 55.7785 62.358 55.5996C62.5695 55.2743 62.2441 54.9327 61.7237 54.9327C61.073 54.9327 60.9917 54.7538 60.9917 53.3712V52.3302H61.561C62.0652 52.3302 62.1303 52.2814 62.1303 51.9236C62.1303 51.5658 62.0652 51.517 61.561 51.517C61.0405 51.517 60.9917 51.4844 60.9917 51.029C60.9917 50.5898 60.9429 50.5411 60.5038 50.5411C60.0646 50.5411 60.0158 50.5898 60.0158 51.029Z" fill="#1A2E35"/>
<path id="Vector_8" d="M86.0404 51.1103C86.0404 51.4031 85.9591 51.517 85.7151 51.517C85.5362 51.517 85.3898 51.6308 85.3898 51.761C85.3898 51.8911 85.5362 52.0049 85.7151 52.0049C86.0079 52.0049 86.0404 52.1188 86.0404 53.2899C86.0404 54.8188 86.2681 55.5508 86.7724 55.6809C87.3904 55.8436 88.0736 55.6809 88.1224 55.3881C88.1712 55.1442 88.0899 55.1116 87.6832 55.1929C86.8537 55.3719 86.691 55.0954 86.691 53.4526V52.0049H87.3416C87.8133 52.0049 87.9923 51.9399 87.9923 51.761C87.9923 51.582 87.8133 51.517 87.3416 51.517C86.7561 51.517 86.691 51.4682 86.691 51.1103C86.691 50.8176 86.6097 50.7037 86.3657 50.7037C86.1217 50.7037 86.0404 50.8176 86.0404 51.1103Z" fill="#1A2E35"/>
<path id="Vector_9" d="M44.889 52.8994C44.889 54.4121 45.1492 55.2904 45.6697 55.5669C46.1251 55.8109 47.5402 55.7946 47.8005 55.5344C47.9794 55.3717 48.0282 55.3717 48.0933 55.5344C48.1421 55.6483 48.386 55.7458 48.6463 55.7458H49.118V53.6313V51.5168H48.63H48.1421V52.6392C48.1421 54.0055 47.9631 54.5422 47.4264 54.7862C46.3854 55.2742 45.8649 54.5422 45.8649 52.6392V51.5168H45.3769H44.889V52.8994Z" fill="#1A2E35"/>
<path id="Vector_10" d="M50.6307 51.712C50.1915 51.9235 50.1752 52.0048 50.468 52.3952C50.6469 52.6392 50.7445 52.6554 51.0373 52.509C51.6228 52.2 52.4849 52.2813 52.7614 52.688C52.9078 52.8831 53.0217 53.1109 53.0217 53.1759C53.0217 53.2572 52.55 53.306 51.9644 53.306C51.0373 53.306 50.8421 53.3548 50.5005 53.7127C50.0126 54.2006 49.98 54.7537 50.4355 55.3229C50.712 55.6808 50.8909 55.7458 51.574 55.7458C52.0295 55.7458 52.5337 55.6645 52.7126 55.5832C52.9241 55.4693 53.0217 55.4693 53.0217 55.5832C53.0217 55.6645 53.2494 55.7458 53.5259 55.7458H54.0301L53.9651 54.0217C53.9163 52.3626 53.9 52.2813 53.4608 51.9072C53.0867 51.5819 52.8427 51.5168 51.9969 51.5331C51.4439 51.5331 50.8258 51.6144 50.6307 51.712ZM53.0217 54.2006C53.0217 54.5585 52.4198 55.0952 52.0295 55.0952C51.265 55.0952 50.8421 54.5747 51.265 54.1518C51.5578 53.8591 53.0217 53.8916 53.0217 54.2006Z" fill="#1A2E35"/>
<path id="Vector_11" d="M57.576 53.6313V55.7458H58.064H58.5519V53.6313V51.5168H58.064H57.576V53.6313Z" fill="#1A2E35"/>
<path id="Vector_12" d="M63.3664 53.5826C64.2936 55.7297 64.3749 56.2827 63.7568 56.4779C63.5941 56.5267 63.3014 56.4941 63.1224 56.3965C62.8459 56.2664 62.7646 56.2989 62.602 56.5917C62.4393 56.8845 62.4718 56.9821 62.7158 57.161C63.1062 57.4375 63.8219 57.4375 64.3911 57.1285C64.8466 56.9008 65.0418 56.5267 66.6683 52.7368C67.14 51.647 67.14 51.5982 66.831 51.5495C66.2617 51.4519 66.1315 51.6145 65.546 53.0459C65.237 53.8103 64.9279 54.4447 64.8791 54.4447C64.8303 54.4447 64.505 53.7778 64.1797 52.9808C63.5779 51.5495 63.5453 51.5169 63.0249 51.5169H62.4881L63.3664 53.5826Z" fill="#1A2E35"/>
<path id="Vector_13" d="M76.33 51.7608C75.3541 52.1837 74.8661 53.5988 75.3703 54.5585C75.8095 55.4043 76.3788 55.7458 77.371 55.7458C78.168 55.7458 78.3306 55.6808 78.8186 55.1928C79.3066 54.7049 79.3716 54.5422 79.3716 53.8103C79.3716 52.753 79.0463 52.1187 78.3306 51.7771C77.6637 51.4681 77.0294 51.4518 76.33 51.7608ZM78.0541 52.2488C78.9975 52.7205 79.1276 54.2657 78.2818 54.9326C77.2734 55.7133 75.7932 54.9814 75.7932 53.6801C75.7932 52.3626 76.9155 51.647 78.0541 52.2488Z" fill="#1A2E35"/>
<path id="Vector_14" d="M80.6729 53.6313C80.6729 55.3392 80.7216 55.7458 80.9006 55.7458C81.0795 55.7458 81.1445 55.4043 81.1933 54.282C81.2584 52.5253 81.5349 52.0861 82.6247 52.0861C83.6494 52.0861 83.8283 52.3952 83.8934 54.2006C83.9422 55.388 84.0073 55.7458 84.1862 55.7458C84.3651 55.7458 84.4139 55.4043 84.4139 54.1356C84.4139 52.688 84.3814 52.4602 84.0398 52.0861C83.5356 51.4843 82.5108 51.3542 81.7301 51.8096C81.1771 52.1512 81.1608 52.1512 81.1608 51.8422C81.1608 51.6632 81.047 51.5168 80.9168 51.5168C80.7054 51.5168 80.6729 51.8584 80.6729 53.6313Z" fill="#1A2E35"/>
<path id="Vector_15" d="M89.2935 53.6313C89.2935 55.4043 89.326 55.7458 89.5375 55.7458C89.7327 55.7458 89.7814 55.5181 89.7814 54.6073C89.7814 53.1597 90.0742 52.4277 90.7248 52.2C91.0014 52.1024 91.2616 52.0699 91.3104 52.1187C91.3592 52.1837 91.408 52.0699 91.408 51.8747C91.408 51.4193 91.0176 51.4193 90.3182 51.8422C89.7814 52.1675 89.7814 52.1675 89.7814 51.8422C89.7814 51.6632 89.6676 51.5168 89.5375 51.5168C89.326 51.5168 89.2935 51.8584 89.2935 53.6313Z" fill="#1A2E35"/>
<path id="Vector_16" d="M93.0834 51.7608C91.7333 52.3464 91.5381 54.3308 92.7255 55.3392C93.4412 55.9248 94.7587 55.9248 95.4581 55.3229C96.5967 54.3796 96.3852 52.3952 95.084 51.7771C94.4171 51.468 93.7828 51.4518 93.0834 51.7608ZM94.8075 52.2488C96.2063 52.9645 95.637 55.2579 94.0593 55.2579C92.4978 55.2579 91.9448 52.997 93.3273 52.2651C93.8966 51.956 94.2382 51.9397 94.8075 52.2488Z" fill="#1A2E35"/>
<g id="Group 8">
<path id="Vector_17" d="M22.9469 69.7017C22.6379 69.8481 22.2312 70.1896 22.0523 70.4336C21.727 70.8728 21.7107 71.133 21.6619 76.2078C21.6132 82.0796 21.6457 82.226 22.6541 82.9742C23.0933 83.2996 23.3048 83.3158 28.591 83.3158C36.1707 83.3158 35.5363 83.9502 35.5363 76.3705C35.5363 68.8396 36.1056 69.4089 28.6235 69.4089C24.0692 69.4089 23.4349 69.4414 22.9469 69.7017ZM32.82 73.1499C32.7712 73.524 28.0543 78.5175 27.7615 78.5175C27.4362 78.5175 25.3379 75.9313 25.4355 75.6711C25.5982 75.2156 25.9885 75.4271 26.8994 76.4356L27.794 77.4603L30.0061 75.1343C32.1694 72.8897 32.9501 72.3367 32.82 73.1499Z" fill="#6FCF97"/>
</g>
<g id="Group 12">
<path id="Vector_18" d="M52.2084 71.0355C47.2474 71.0843 57.9338 71.1168 75.9559 71.1331C96.4177 71.1331 104.908 71.1005 98.5648 71.0192C87.0651 70.9053 65.6436 70.9053 52.2084 71.0355Z" fill="#1A2E35"/>
<path id="Vector_19" d="M48.386 75.5897C45.7022 75.6385 58.1127 75.6873 75.9559 75.6873C93.799 75.6873 105.949 75.6385 102.956 75.5734C96.5804 75.4595 55.5103 75.4595 48.386 75.5897Z" fill="#1A2E35"/>
<path id="Vector_20" d="M44.9703 81.2825C43.9944 81.3313 49.2969 81.3801 56.7627 81.3801C64.2285 81.3801 69.466 81.3313 68.3924 81.2825C66.0177 81.1361 47.4751 81.1524 44.9703 81.2825Z" fill="#1A2E35"/>
</g>
<g id="Group 9">
<path id="Vector_21" d="M22.8168 94.2298C22.4915 94.3925 22.1662 94.7503 21.9548 95.1732C21.6457 95.8238 21.6295 96.1654 21.6295 100.899C21.6295 105.485 21.662 105.99 21.9385 106.608C22.4753 107.795 22.5241 107.795 28.6236 107.795C34.7231 107.795 34.7068 107.795 35.2924 106.575C35.6014 105.957 35.6177 105.551 35.6177 101.029C35.6177 98.3287 35.5364 95.9052 35.455 95.5799C35.3737 95.2708 35.0647 94.7991 34.7882 94.5226L34.3002 94.0509L28.8188 94.0184C24.053 93.9696 23.2723 94.0021 22.8168 94.2298ZM32.7713 97.6618C32.7713 98.0522 28.1031 102.916 27.7452 102.916C27.4525 102.916 25.3705 100.557 25.3705 100.248C25.3705 100.118 25.4844 99.9715 25.6307 99.9227C25.8585 99.8414 26.4603 100.394 27.4362 101.582L27.729 101.956L30.0875 99.5811C31.3887 98.2799 32.511 97.2389 32.6086 97.2715C32.6899 97.304 32.7713 97.4829 32.7713 97.6618Z" fill="#6FCF97"/>
</g>
<g id="Group 13">
<path id="Vector_22" d="M47.0034 95.5963C45.9787 95.6451 59.0073 95.6938 75.9558 95.6938C92.9044 95.6938 105.835 95.6451 104.664 95.58C102.127 95.4499 49.6872 95.4499 47.0034 95.5963Z" fill="#1A2E35"/>
<path id="Vector_23" d="M47.1661 100.151C49.1668 100.313 102.696 100.313 104.827 100.151C105.722 100.102 92.7743 100.037 76.0372 100.037C59.3164 100.037 46.3203 100.102 47.1661 100.151Z" fill="#1A2E35"/>
<path id="Vector_24" d="M44.8076 105.844C45.442 105.909 50.8095 105.974 56.7627 105.974C62.7158 105.974 68.0997 105.909 68.7177 105.844C69.3521 105.778 63.9682 105.73 56.7627 105.73C49.5571 105.73 44.1895 105.778 44.8076 105.844Z" fill="#1A2E35"/>
</g>
<g id="Group 10">
<path id="Vector_25" d="M22.6704 118.84C21.6783 119.441 21.6295 119.734 21.6295 125.395C21.6295 131.071 21.662 131.25 22.7518 131.982C23.3048 132.356 23.3699 132.356 28.6073 132.356C36.0894 132.356 35.5201 132.893 35.5852 125.704C35.634 119.946 35.5689 119.441 34.5767 118.84C34.105 118.547 33.6984 118.531 28.6236 118.531C23.5813 118.531 23.1421 118.547 22.6704 118.84ZM32.82 122.174C32.8688 122.385 32.1532 123.215 30.3965 124.972C29.0139 126.354 27.8103 127.477 27.6964 127.477C27.4037 127.477 25.3542 125.004 25.4193 124.711C25.5169 124.175 26.0048 124.402 26.8669 125.427L27.7778 126.484L30.0387 124.142C31.2748 122.857 32.3971 121.816 32.5273 121.832C32.6574 121.849 32.7875 122.011 32.82 122.174Z" fill="#6FCF97"/>
</g>
<g id="Group 14">
<path id="Vector_26" d="M48.5486 120.173C51.1511 120.222 63.4803 120.271 75.9558 120.271C88.4314 120.271 100.777 120.222 103.363 120.173C105.965 120.108 93.6201 120.06 75.9558 120.06C58.2916 120.06 45.9625 120.108 48.5486 120.173Z" fill="#1A2E35"/>
<path id="Vector_27" d="M52.2897 124.728C64.196 124.858 87.9272 124.858 99.7034 124.728C105.234 124.663 95.7509 124.614 75.9559 124.614C56.1121 124.614 46.7107 124.663 52.2897 124.728Z" fill="#1A2E35"/>
<path id="Vector_28" d="M49.8174 130.437C54.0301 130.534 59.4953 130.534 63.7243 130.437C70.4093 130.306 70.1328 130.29 56.7627 130.29C43.3925 130.29 43.116 130.306 49.8174 130.437Z" fill="#1A2E35"/>
</g>
<g id="Group 11">
<path id="Vector_29" d="M22.947 143.221C22.6379 143.368 22.2313 143.709 22.0524 143.953C21.7271 144.393 21.7108 144.653 21.662 149.728C21.6132 155.599 21.6457 155.746 22.6542 156.494C23.0934 156.819 23.3048 156.836 28.5911 156.836C36.1707 156.836 35.5364 157.47 35.5364 149.89C35.5364 142.359 36.1057 142.929 28.6236 142.929C24.0693 142.929 23.4349 142.961 22.947 143.221ZM32.8201 146.67C32.7713 147.044 28.0543 152.037 27.7615 152.037C27.4362 152.037 25.338 149.451 25.4356 149.191C25.5982 148.735 25.9886 148.947 26.8832 149.955L27.7941 150.98L30.0224 148.654C32.1695 146.426 32.9502 145.856 32.8201 146.67Z" fill="#6FCF97"/>
</g>
<g id="Group 15">
<path id="Vector_30" d="M52.4524 144.555C47.3613 144.604 57.9338 144.636 75.9559 144.653C96.499 144.653 104.876 144.62 98.4021 144.539C86.7073 144.425 66.2291 144.425 52.4524 144.555Z" fill="#1A2E35"/>
<path id="Vector_31" d="M48.4674 149.109C45.7348 149.158 58.1128 149.207 75.9559 149.207C93.799 149.207 105.917 149.158 102.875 149.093C96.4015 148.979 55.6892 148.979 48.4674 149.109Z" fill="#1A2E35"/>
<path id="Vector_32" d="M44.9703 154.802C43.9944 154.851 49.2969 154.9 56.7627 154.9C64.2285 154.9 69.466 154.851 68.3924 154.802C66.0177 154.656 47.4751 154.672 44.9703 154.802Z" fill="#1A2E35"/>
</g>
<path id="Vector_33" d="M122.475 158.852C122.475 159.291 118.083 161.699 115.465 162.691C113.789 163.341 110.585 164.155 108.649 164.415C106.096 164.773 101.769 164.659 99.1341 164.155L98.6461 164.057L97.7678 166.22C96.678 168.921 94.0755 174.304 92.7255 176.679C89.6025 182.128 86.138 186.406 83.4217 188.179C82.9825 188.455 82.6572 188.716 82.6897 188.764C82.95 189.025 93.0183 184.194 97.1009 181.835C104.99 177.297 111.447 172.45 116.115 167.554C118.148 165.423 119.515 163.732 121.157 161.308C122.638 159.112 122.882 158.706 122.638 158.706C122.556 158.706 122.475 158.771 122.475 158.852ZM120.539 161.601C114.489 170.433 101.997 179.818 87.0977 186.731C83.8771 188.228 83.2753 188.472 83.9259 188.016C87.4718 185.527 91.3104 180.323 95.0677 172.857C96.3527 170.303 98.1093 166.432 98.7112 164.87C98.8575 164.464 98.9063 164.448 99.5732 164.578C99.9636 164.643 101.265 164.789 102.485 164.903C108.324 165.407 114.895 163.927 120.116 160.934C120.832 160.511 121.434 160.17 121.466 160.17C121.499 160.17 121.076 160.82 120.539 161.601Z" fill="#1A2E35"/>
</g>
</svg>
