<svg id="qa" xmlns="http://www.w3.org/2000/svg" xmlns:xlink="http://www.w3.org/1999/xlink" viewBox="0 0 134 200" shape-rendering="geometricPrecision" text-rendering="geometricPrecision"><style><![CDATA[#qa-vector_17_ts {animation: qa-vector_17_ts__ts 3000ms linear 1 normal forwards}@keyframes qa-vector_17_ts__ts { 0% {transform: translate(28.597656px,76.363281px) scale(0,0)} 10% {transform: translate(28.597656px,76.363281px) scale(1,1)} 100% {transform: translate(28.597656px,76.363281px) scale(1,1)} }#qa-vector_21_ts {animation: qa-vector_21_ts__ts 3000ms linear 1 normal forwards}@keyframes qa-vector_21_ts__ts { 0% {transform: translate(28.623047px,100.898438px) scale(0,0)} 10% {transform: translate(28.623047px,100.898438px) scale(1,1)} 100% {transform: translate(28.623047px,100.898438px) scale(1,1)} }#qa-vector_25_ts {animation: qa-vector_25_ts__ts 3000ms linear 1 normal forwards}@keyframes qa-vector_25_ts__ts { 0% {transform: translate(28.613281px,125.447266px) scale(0,0)} 10% {transform: translate(28.613281px,125.447266px) scale(1,1)} 100% {transform: translate(28.613281px,125.447266px) scale(1,1)} }#qa-vector_29_ts {animation: qa-vector_29_ts__ts 3000ms linear 1 normal forwards}@keyframes qa-vector_29_ts__ts { 0% {transform: translate(28.597656px,149.882813px) scale(0,0)} 10% {transform: translate(28.597656px,149.882813px) scale(1,1)} 100% {transform: translate(28.597656px,149.882813px) scale(1,1)} }#qa-group-15_ts {animation: qa-group-15_ts__ts 3000ms linear 1 normal forwards}@keyframes qa-group-15_ts__ts { 0% {transform: translate(74.099609px,149.677734px) scale(0,1)} 10% {transform: translate(74.099609px,149.677734px) scale(1,1)} 100% {transform: translate(74.099609px,149.677734px) scale(1,1)} }]]></style><g id="qa-group-16"><path id="qa-vector" d="M63.155000,0.199631C59.527800,1.208090,56.941600,4.575010,56.925400,8.283520C56.925400,10.284200,57.494700,12.040800,58.600700,13.504700C58.942300,13.927600,59.202500,14.285400,59.202500,14.318000C59.202500,14.334200,51.460200,14.350500,42.010000,14.350500L24.801200,14.350500L24.752400,15.196300L24.703600,16.042100L14.179900,16.090900C2.582680,16.139700,3.151970,16.090900,1.899530,17.180700C1.590490,17.473500,1.167590,18.010300,0.988668,18.400600L0.647095,19.083800L0.647095,108.007000C0.647095,187.984000,0.679626,196.995000,0.907341,197.548000C1.216380,198.312000,1.997120,199.125000,2.842920,199.581000L3.493540,199.939000L66.684600,199.987000C124.850000,200.020000,129.924000,200.004000,130.673000,199.760000C131.795000,199.386000,132.787000,198.345000,133.129000,197.222000C133.356000,196.442000,133.373000,187.463000,133.340000,107.714000L133.291000,19.067500L132.950000,18.416900C132.494000,17.587300,131.844000,16.936700,131.014000,16.481300C130.364000,16.139700,130.299000,16.139700,118.213000,16.090900L106.047000,16.042100L106.047000,15.245100L106.047000,14.431900L88.805500,14.431900C79.322800,14.431900,71.564200,14.399300,71.564200,14.350500C71.564200,14.301700,71.824500,13.927600,72.166000,13.504700C73.369700,11.910700,73.939000,9.958860,73.808800,7.811830C73.597400,4.477420,71.482900,1.663510,68.278600,0.411072C67.140000,-0.028094,64.374900,-0.141943,63.155000,0.199631ZM67.253900,3.550290C68.490100,4.005720,69.791300,5.306970,70.246700,6.543140C71.173800,8.999210,70.165400,11.666700,67.823200,12.951700C66.847300,13.488500,66.668300,13.537300,65.383400,13.537300C64.098400,13.537300,63.919500,13.488500,62.943600,12.951700C61.056800,11.910700,60.048300,10.072700,60.227200,7.974490C60.503800,4.542490,64.000800,2.330390,67.253900,3.550290ZM25.289200,25.899000C26.069900,28.127300,27.680200,29.965300,29.794700,31.038800C31.827900,32.063500,29.632000,32.014700,65.903900,31.965900L98.971400,31.917200L99.931100,31.543000C102.729000,30.485800,104.729000,28.436400,105.591000,25.801400L105.949000,24.679000L114.131000,24.679000L122.312000,24.679000L122.329000,51.874800C122.345000,66.838900,122.410000,88.634600,122.459000,100.313000C122.556000,117.977000,122.572000,113.504000,122.605000,73.670400L122.638000,25.817600L123.370000,25.817600L124.101000,25.817600L124.101000,109.747000L124.101000,193.676000L66.928600,193.676000L9.739450,193.676000L9.788250,191.432000L9.837040,189.204000L57.657300,189.122000C83.958500,189.073000,100.289000,189.025000,93.929100,188.992000C87.585600,188.976000,65.741200,188.960000,45.425700,188.960000L8.454480,188.960000L8.454480,106.819000L8.454480,24.679000L16.668500,24.711600L24.898800,24.760400L25.289200,25.899000Z" fill="rgb(74,139,255)" stroke="none" stroke-width="1"/><path id="qa-vector_2" d="M57.608500,49.760300C57.088000,50.280800,57.738600,51.061500,58.389300,50.703700C58.942300,50.410900,58.698300,49.565100,58.063900,49.565100C57.917600,49.565100,57.722400,49.646400,57.608500,49.760300Z" fill="rgb(26,46,53)" stroke="none" stroke-width="1"/><path id="qa-vector_3" d="M55.298800,52.818100L55.298800,55.745800L55.786800,55.745800L56.274800,55.745800L56.274800,52.818100L56.274800,49.890300L55.786800,49.890300L55.298800,49.890300L55.298800,52.818100Z" fill="rgb(26,46,53)" stroke="none" stroke-width="1"/><path id="qa-vector_4" d="M97.426200,52.818100C97.426200,55.306700,97.458700,55.745800,97.670200,55.745800C97.881600,55.745800,97.914200,55.306700,97.914200,52.818100C97.914200,50.329500,97.881600,49.890300,97.670200,49.890300C97.458700,49.890300,97.426200,50.329500,97.426200,52.818100Z" fill="rgb(26,46,53)" stroke="none" stroke-width="1"/><path id="qa-vector_5" d="M39.976800,50.199500C38.447900,50.687500,37.634600,52.216400,38.057500,53.761600C38.285200,54.639900,39.163500,55.534500,39.944300,55.680900C40.269600,55.746000,40.773800,55.990000,41.066600,56.250200C41.766000,56.868300,42.400400,57.079800,43.116000,56.965900C43.913000,56.835800,44.287100,56.429100,43.994400,56.022500C43.799200,55.746000,43.766600,55.746000,43.294900,56.022500C42.872000,56.266500,42.741900,56.266500,42.351600,56.087600C41.912400,55.892400,41.896100,55.859800,42.188900,55.680900C43.441300,54.932700,43.913000,54.184500,43.913000,52.964600C43.913000,51.907400,43.441300,51.029000,42.595500,50.557300C41.896100,50.150700,40.643700,49.988000,39.976800,50.199500ZM42.254000,51.582000C42.790700,52.086300,42.855800,52.216400,42.855800,52.964600C42.855800,53.664000,42.774500,53.859200,42.351600,54.298400C41.082900,55.550800,39.033400,54.737500,39.033400,52.980900C39.033400,51.858600,39.863000,51.045300,41.034100,51.029000C41.505800,51.029000,41.782300,51.159100,42.254000,51.582000Z" fill="rgb(26,46,53)" stroke="none" stroke-width="1"/><path id="qa-vector_6" d="M71.759400,50.248100C69.905100,50.671000,69.075600,52.931900,70.181600,54.623500C70.685900,55.388000,71.466600,55.745800,72.654000,55.745800C73.776300,55.745800,74.817300,55.241600,74.492000,54.851300C74.329300,54.656100,74.231700,54.672300,73.792600,54.948800C73.125700,55.355500,72.117200,55.339200,71.434100,54.932600C70.116600,54.119300,69.888900,52.476500,70.962400,51.403000C71.710600,50.638500,72.865400,50.475900,73.743800,50.996400C74.215500,51.272900,74.345600,51.289100,74.492000,51.110200C74.638400,50.931300,74.573300,50.817400,74.134100,50.540900C73.841400,50.362000,73.483500,50.215600,73.353400,50.215600C73.223300,50.215600,72.963000,50.183100,72.784100,50.150600C72.605200,50.118000,72.149800,50.150600,71.759400,50.248100Z" fill="rgb(26,46,53)" stroke="none" stroke-width="1"/><path id="qa-vector_7" d="M60.015800,51.029000C60.015800,51.403100,59.950700,51.517000,59.690500,51.517000C59.446500,51.517000,59.365200,51.630800,59.365200,51.923600C59.365200,52.216400,59.446500,52.330200,59.690500,52.330200C59.983300,52.330200,60.015800,52.444100,60.015800,53.566400C60.015800,54.737500,60.178400,55.371900,60.568800,55.615900C60.829100,55.794800,62.260400,55.778500,62.358000,55.599600C62.569500,55.274300,62.244100,54.932700,61.723700,54.932700C61.073000,54.932700,60.991700,54.753800,60.991700,53.371200L60.991700,52.330200L61.561000,52.330200C62.065200,52.330200,62.130300,52.281400,62.130300,51.923600C62.130300,51.565800,62.065200,51.517000,61.561000,51.517000C61.040500,51.517000,60.991700,51.484400,60.991700,51.029000C60.991700,50.589800,60.942900,50.541100,60.503800,50.541100C60.064600,50.541100,60.015800,50.589800,60.015800,51.029000Z" fill="rgb(26,46,53)" stroke="none" stroke-width="1"/><path id="qa-vector_8" d="M86.040400,51.110300C86.040400,51.403100,85.959100,51.517000,85.715100,51.517000C85.536200,51.517000,85.389800,51.630800,85.389800,51.761000C85.389800,51.891100,85.536200,52.004900,85.715100,52.004900C86.007900,52.004900,86.040400,52.118800,86.040400,53.289900C86.040400,54.818800,86.268100,55.550800,86.772400,55.680900C87.390400,55.843600,88.073600,55.680900,88.122400,55.388100C88.171200,55.144200,88.089900,55.111600,87.683200,55.192900C86.853700,55.371900,86.691000,55.095400,86.691000,53.452600L86.691000,52.004900L87.341600,52.004900C87.813300,52.004900,87.992300,51.939900,87.992300,51.761000C87.992300,51.582000,87.813300,51.517000,87.341600,51.517000C86.756100,51.517000,86.691000,51.468200,86.691000,51.110300C86.691000,50.817600,86.609700,50.703700,86.365700,50.703700C86.121700,50.703700,86.040400,50.817600,86.040400,51.110300Z" fill="rgb(26,46,53)" stroke="none" stroke-width="1"/><path id="qa-vector_9" d="M44.889000,52.899400C44.889000,54.412100,45.149200,55.290400,45.669700,55.566900C46.125100,55.810900,47.540200,55.794600,47.800500,55.534400C47.979400,55.371700,48.028200,55.371700,48.093300,55.534400C48.142100,55.648300,48.386000,55.745800,48.646300,55.745800L49.118000,55.745800L49.118000,53.631300L49.118000,51.516800L48.630000,51.516800L48.142100,51.516800L48.142100,52.639200C48.142100,54.005500,47.963100,54.542200,47.426400,54.786200C46.385400,55.274200,45.864900,54.542200,45.864900,52.639200L45.864900,51.516800L45.376900,51.516800L44.889000,51.516800L44.889000,52.899400Z" fill="rgb(26,46,53)" stroke="none" stroke-width="1"/><path id="qa-vector_10" d="M50.630700,51.712000C50.191500,51.923500,50.175200,52.004800,50.468000,52.395200C50.646900,52.639200,50.744500,52.655400,51.037300,52.509000C51.622800,52.200000,52.484900,52.281300,52.761400,52.688000C52.907800,52.883100,53.021700,53.110900,53.021700,53.175900C53.021700,53.257200,52.550000,53.306000,51.964400,53.306000C51.037300,53.306000,50.842100,53.354800,50.500500,53.712700C50.012600,54.200600,49.980000,54.753700,50.435500,55.322900C50.712000,55.680800,50.890900,55.745800,51.574000,55.745800C52.029500,55.745800,52.533700,55.664500,52.712600,55.583200C52.924100,55.469300,53.021700,55.469300,53.021700,55.583200C53.021700,55.664500,53.249400,55.745800,53.525900,55.745800L54.030100,55.745800L53.965100,54.021700C53.916300,52.362600,53.900000,52.281300,53.460800,51.907200C53.086700,51.581900,52.842700,51.516800,51.996900,51.533100C51.443900,51.533100,50.825800,51.614400,50.630700,51.712000ZM53.021700,54.200600C53.021700,54.558500,52.419800,55.095200,52.029500,55.095200C51.265000,55.095200,50.842100,54.574700,51.265000,54.151800C51.557800,53.859100,53.021700,53.891600,53.021700,54.200600Z" fill="rgb(26,46,53)" stroke="none" stroke-width="1"/><path id="qa-vector_11" d="M57.576000,53.631300L57.576000,55.745800L58.064000,55.745800L58.551900,55.745800L58.551900,53.631300L58.551900,51.516800L58.064000,51.516800L57.576000,51.516800L57.576000,53.631300Z" fill="rgb(26,46,53)" stroke="none" stroke-width="1"/><path id="qa-vector_12" d="M63.366400,53.582600C64.293600,55.729700,64.374900,56.282700,63.756800,56.477900C63.594100,56.526700,63.301400,56.494100,63.122400,56.396500C62.845900,56.266400,62.764600,56.298900,62.602000,56.591700C62.439300,56.884500,62.471800,56.982100,62.715800,57.161000C63.106200,57.437500,63.821900,57.437500,64.391100,57.128500C64.846600,56.900800,65.041800,56.526700,66.668300,52.736800C67.140000,51.647000,67.140000,51.598200,66.831000,51.549500C66.261700,51.451900,66.131500,51.614500,65.546000,53.045900C65.237000,53.810300,64.927900,54.444700,64.879100,54.444700C64.830300,54.444700,64.505000,53.777800,64.179700,52.980800C63.577900,51.549500,63.545300,51.516900,63.024900,51.516900L62.488100,51.516900L63.366400,53.582600Z" fill="rgb(26,46,53)" stroke="none" stroke-width="1"/><path id="qa-vector_13" d="M76.330000,51.760800C75.354100,52.183700,74.866100,53.598800,75.370300,54.558500C75.809500,55.404300,76.378800,55.745800,77.371000,55.745800C78.168000,55.745800,78.330600,55.680800,78.818600,55.192800C79.306600,54.704900,79.371600,54.542200,79.371600,53.810300C79.371600,52.753000,79.046300,52.118700,78.330600,51.777100C77.663700,51.468100,77.029400,51.451800,76.330000,51.760800ZM78.054100,52.248800C78.997500,52.720500,79.127600,54.265700,78.281800,54.932600C77.273400,55.713300,75.793200,54.981400,75.793200,53.680100C75.793200,52.362600,76.915500,51.647000,78.054100,52.248800Z" fill="rgb(26,46,53)" stroke="none" stroke-width="1"/><path id="qa-vector_14" d="M80.672900,53.631300C80.672900,55.339200,80.721600,55.745800,80.900600,55.745800C81.079500,55.745800,81.144500,55.404300,81.193300,54.282000C81.258400,52.525300,81.534900,52.086100,82.624700,52.086100C83.649400,52.086100,83.828300,52.395200,83.893400,54.200600C83.942200,55.388000,84.007300,55.745800,84.186200,55.745800C84.365100,55.745800,84.413900,55.404300,84.413900,54.135600C84.413900,52.688000,84.381400,52.460200,84.039800,52.086100C83.535600,51.484300,82.510800,51.354200,81.730100,51.809600C81.177100,52.151200,81.160800,52.151200,81.160800,51.842200C81.160800,51.663200,81.047000,51.516800,80.916800,51.516800C80.705400,51.516800,80.672900,51.858400,80.672900,53.631300Z" fill="rgb(26,46,53)" stroke="none" stroke-width="1"/><path id="qa-vector_15" d="M89.293500,53.631300C89.293500,55.404300,89.326000,55.745800,89.537500,55.745800C89.732700,55.745800,89.781400,55.518100,89.781400,54.607300C89.781400,53.159700,90.074200,52.427700,90.724800,52.200000C91.001400,52.102400,91.261600,52.069900,91.310400,52.118700C91.359200,52.183700,91.408000,52.069900,91.408000,51.874700C91.408000,51.419300,91.017600,51.419300,90.318200,51.842200C89.781400,52.167500,89.781400,52.167500,89.781400,51.842200C89.781400,51.663200,89.667600,51.516800,89.537500,51.516800C89.326000,51.516800,89.293500,51.858400,89.293500,53.631300Z" fill="rgb(26,46,53)" stroke="none" stroke-width="1"/><path id="qa-vector_16" d="M93.083400,51.760800C91.733300,52.346400,91.538100,54.330800,92.725500,55.339200C93.441200,55.924800,94.758700,55.924800,95.458100,55.322900C96.596700,54.379600,96.385200,52.395200,95.084000,51.777100C94.417100,51.468000,93.782800,51.451800,93.083400,51.760800ZM94.807500,52.248800C96.206300,52.964500,95.637000,55.257900,94.059300,55.257900C92.497800,55.257900,91.944800,52.997000,93.327300,52.265100C93.896600,51.956000,94.238200,51.939700,94.807500,52.248800Z" fill="rgb(26,46,53)" stroke="none" stroke-width="1"/><g id="qa-group-8"><g id="qa-vector_17_ts" transform="translate(28.597656,76.363281) scale(0,0)"><path id="qa-vector_17" d="M22.946900,69.701700C22.637900,69.848100,22.231200,70.189600,22.052300,70.433600C21.727000,70.872800,21.710700,71.133000,21.661900,76.207800C21.613200,82.079600,21.645700,82.226000,22.654100,82.974200C23.093300,83.299600,23.304800,83.315800,28.591000,83.315800C36.170700,83.315800,35.536300,83.950200,35.536300,76.370500C35.536300,68.839600,36.105600,69.408900,28.623500,69.408900C24.069200,69.408900,23.434900,69.441400,22.946900,69.701700ZM32.820000,73.149900C32.771200,73.524000,28.054300,78.517500,27.761500,78.517500C27.436200,78.517500,25.337900,75.931300,25.435500,75.671100C25.598200,75.215600,25.988500,75.427100,26.899400,76.435600L27.794000,77.460300L30.006100,75.134300C32.169400,72.889700,32.950100,72.336700,32.820000,73.149900Z" transform="translate(-28.597656,-76.363281)" fill="rgb(111,207,151)" stroke="none" stroke-width="1"/></g></g><g id="qa-group-12"><path id="qa-vector_18" d="M52.208400,71.035500C47.247400,71.084300,57.933800,71.116800,75.955900,71.133100C96.417700,71.133100,104.908000,71.100500,98.564800,71.019200C87.065100,70.905300,65.643600,70.905300,52.208400,71.035500Z" fill="rgb(26,46,53)" stroke="none" stroke-width="1"/><path id="qa-vector_19" d="M48.386000,75.589700C45.702200,75.638500,58.112700,75.687300,75.955900,75.687300C93.799000,75.687300,105.949000,75.638500,102.956000,75.573400C96.580400,75.459500,55.510300,75.459500,48.386000,75.589700Z" fill="rgb(26,46,53)" stroke="none" stroke-width="1"/><path id="qa-vector_20" d="M44.970300,81.282500C43.994400,81.331300,49.296900,81.380100,56.762700,81.380100C64.228500,81.380100,69.466000,81.331300,68.392400,81.282500C66.017700,81.136100,47.475100,81.152400,44.970300,81.282500Z" fill="rgb(26,46,53)" stroke="none" stroke-width="1"/></g><g id="qa-group-9"><g id="qa-vector_21_ts" transform="translate(28.623047,100.898438) scale(0,0)"><path id="qa-vector_21" d="M22.816800,94.229800C22.491500,94.392500,22.166200,94.750300,21.954800,95.173200C21.645700,95.823800,21.629500,96.165400,21.629500,100.899000C21.629500,105.485000,21.662000,105.990000,21.938500,106.608000C22.475300,107.795000,22.524100,107.795000,28.623600,107.795000C34.723100,107.795000,34.706800,107.795000,35.292400,106.575000C35.601400,105.957000,35.617700,105.551000,35.617700,101.029000C35.617700,98.328700,35.536400,95.905200,35.455000,95.579900C35.373700,95.270800,35.064700,94.799100,34.788200,94.522600L34.300200,94.050900L28.818800,94.018400C24.053000,93.969600,23.272300,94.002100,22.816800,94.229800ZM32.771300,97.661800C32.771300,98.052200,28.103100,102.916000,27.745200,102.916000C27.452500,102.916000,25.370500,100.557000,25.370500,100.248000C25.370500,100.118000,25.484400,99.971500,25.630700,99.922700C25.858500,99.841400,26.460300,100.394000,27.436200,101.582000L27.729000,101.956000L30.087500,99.581100C31.388700,98.279900,32.511000,97.238900,32.608600,97.271500C32.689900,97.304000,32.771300,97.482900,32.771300,97.661800Z" transform="translate(-28.623047,-100.898438)" fill="rgb(111,207,151)" stroke="none" stroke-width="1"/></g></g><g id="qa-group-13"><path id="qa-vector_22" d="M47.003400,95.596300C45.978700,95.645100,59.007300,95.693800,75.955800,95.693800C92.904400,95.693800,105.835000,95.645100,104.664000,95.580000C102.127000,95.449900,49.687200,95.449900,47.003400,95.596300Z" fill="rgb(26,46,53)" stroke="none" stroke-width="1"/><path id="qa-vector_23" d="M47.166100,100.151000C49.166800,100.313000,102.696000,100.313000,104.827000,100.151000C105.722000,100.102000,92.774300,100.037000,76.037200,100.037000C59.316400,100.037000,46.320300,100.102000,47.166100,100.151000Z" fill="rgb(26,46,53)" stroke="none" stroke-width="1"/><path id="qa-vector_24" d="M44.807600,105.844000C45.442000,105.909000,50.809500,105.974000,56.762700,105.974000C62.715800,105.974000,68.099700,105.909000,68.717700,105.844000C69.352100,105.778000,63.968200,105.730000,56.762700,105.730000C49.557100,105.730000,44.189500,105.778000,44.807600,105.844000Z" fill="rgb(26,46,53)" stroke="none" stroke-width="1"/></g><g id="qa-group-10"><g id="qa-vector_25_ts" transform="translate(28.613281,125.447266) scale(0,0)"><path id="qa-vector_25" d="M22.670400,118.840000C21.678300,119.441000,21.629500,119.734000,21.629500,125.395000C21.629500,131.071000,21.662000,131.250000,22.751800,131.982000C23.304800,132.356000,23.369900,132.356000,28.607300,132.356000C36.089400,132.356000,35.520100,132.893000,35.585200,125.704000C35.634000,119.946000,35.568900,119.441000,34.576700,118.840000C34.105000,118.547000,33.698400,118.531000,28.623600,118.531000C23.581300,118.531000,23.142100,118.547000,22.670400,118.840000ZM32.820000,122.174000C32.868800,122.385000,32.153200,123.215000,30.396500,124.972000C29.013900,126.354000,27.810300,127.477000,27.696400,127.477000C27.403700,127.477000,25.354200,125.004000,25.419300,124.711000C25.516900,124.175000,26.004800,124.402000,26.866900,125.427000L27.777800,126.484000L30.038700,124.142000C31.274800,122.857000,32.397100,121.816000,32.527300,121.832000C32.657400,121.849000,32.787500,122.011000,32.820000,122.174000Z" transform="translate(-28.613281,-125.447266)" fill="rgb(111,207,151)" stroke="none" stroke-width="1"/></g></g><g id="qa-group-14"><path id="qa-vector_26" d="M48.548600,120.173000C51.151100,120.222000,63.480300,120.271000,75.955800,120.271000C88.431400,120.271000,100.777000,120.222000,103.363000,120.173000C105.965000,120.108000,93.620100,120.060000,75.955800,120.060000C58.291600,120.060000,45.962500,120.108000,48.548600,120.173000Z" fill="rgb(26,46,53)" stroke="none" stroke-width="1"/><path id="qa-vector_27" d="M52.289700,124.728000C64.196000,124.858000,87.927200,124.858000,99.703400,124.728000C105.234000,124.663000,95.750900,124.614000,75.955900,124.614000C56.112100,124.614000,46.710700,124.663000,52.289700,124.728000Z" fill="rgb(26,46,53)" stroke="none" stroke-width="1"/><path id="qa-vector_28" d="M49.817400,130.437000C54.030100,130.534000,59.495300,130.534000,63.724300,130.437000C70.409300,130.306000,70.132800,130.290000,56.762700,130.290000C43.392500,130.290000,43.116000,130.306000,49.817400,130.437000Z" fill="rgb(26,46,53)" stroke="none" stroke-width="1"/></g><g id="qa-group-11"><g id="qa-vector_29_ts" transform="translate(28.597656,149.882813) scale(0,0)"><path id="qa-vector_29" d="M22.947000,143.221000C22.637900,143.368000,22.231300,143.709000,22.052400,143.953000C21.727100,144.393000,21.710800,144.653000,21.662000,149.728000C21.613200,155.599000,21.645700,155.746000,22.654200,156.494000C23.093400,156.819000,23.304800,156.836000,28.591100,156.836000C36.170700,156.836000,35.536400,157.470000,35.536400,149.890000C35.536400,142.359000,36.105700,142.929000,28.623600,142.929000C24.069300,142.929000,23.434900,142.961000,22.947000,143.221000ZM32.820100,146.670000C32.771300,147.044000,28.054300,152.037000,27.761500,152.037000C27.436200,152.037000,25.338000,149.451000,25.435600,149.191000C25.598200,148.735000,25.988600,148.947000,26.883200,149.955000L27.794100,150.980000L30.022400,148.654000C32.169500,146.426000,32.950200,145.856000,32.820100,146.670000Z" transform="translate(-28.597656,-149.882813)" fill="rgb(111,207,151)" stroke="none" stroke-width="1"/></g></g><g id="qa-group-15_ts" transform="translate(74.099609,149.677734) scale(0,1)"><g id="qa-group-15" transform="translate(-74.099609,-149.677734)"><path id="qa-vector_30" d="M50.113567,144.555000C44.763331,144.604000,55.873970,144.636000,74.813392,144.653000C96.402133,144.653000,105.205521,144.620000,98.402100,144.539000C86.112036,144.425000,64.591499,144.425000,50.113567,144.555000Z" fill="rgb(26,46,53)" stroke="none" stroke-width="1"/><path id="qa-vector_31" d="M48.467400,149.109000C45.734800,149.158000,58.112800,149.207000,75.955900,149.207000C93.799000,149.207000,105.917000,149.158000,102.875000,149.093000C96.401500,148.979000,55.689200,148.979000,48.467400,149.109000Z" fill="rgb(26,46,53)" stroke="none" stroke-width="1"/><path id="qa-vector_32" d="M44.970300,154.802000C43.994400,154.851000,49.296900,154.900000,56.762700,154.900000C64.228500,154.900000,69.466000,154.851000,68.392400,154.802000C66.017700,154.656000,47.475100,154.672000,44.970300,154.802000Z" fill="rgb(26,46,53)" stroke="none" stroke-width="1"/></g></g><path id="qa-vector_33" d="M122.475000,158.852000C122.475000,159.291000,118.083000,161.699000,115.465000,162.691000C113.789000,163.341000,110.585000,164.155000,108.649000,164.415000C106.096000,164.773000,101.769000,164.659000,99.134100,164.155000L98.646100,164.057000L97.767800,166.220000C96.678000,168.921000,94.075500,174.304000,92.725500,176.679000C89.602500,182.128000,86.138000,186.406000,83.421700,188.179000C82.982500,188.455000,82.657200,188.716000,82.689700,188.764000C82.950000,189.025000,93.018300,184.194000,97.100900,181.835000C104.990000,177.297000,111.447000,172.450000,116.115000,167.554000C118.148000,165.423000,119.515000,163.732000,121.157000,161.308000C122.638000,159.112000,122.882000,158.706000,122.638000,158.706000C122.556000,158.706000,122.475000,158.771000,122.475000,158.852000ZM120.539000,161.601000C114.489000,170.433000,101.997000,179.818000,87.097700,186.731000C83.877100,188.228000,83.275300,188.472000,83.925900,188.016000C87.471800,185.527000,91.310400,180.323000,95.067700,172.857000C96.352700,170.303000,98.109300,166.432000,98.711200,164.870000C98.857500,164.464000,98.906300,164.448000,99.573200,164.578000C99.963600,164.643000,101.265000,164.789000,102.485000,164.903000C108.324000,165.407000,114.895000,163.927000,120.116000,160.934000C120.832000,160.511000,121.434000,160.170000,121.466000,160.170000C121.499000,160.170000,121.076000,160.820000,120.539000,161.601000Z" fill="rgb(26,46,53)" stroke="none" stroke-width="1"/></g></svg>