<svg id="qa" xmlns="http://www.w3.org/2000/svg" viewBox="0 0 134 200" shape-rendering="geometricPrecision" text-rendering="geometricPrecision"><style>@keyframes qa-vector_17_ts__ts{0%{transform:translate(28.597656px,76.363281px) scale(0,0)}10%,to{transform:translate(28.597656px,76.363281px) scale(1,1)}}@keyframes qa-vector_21_ts__ts{0%{transform:translate(28.623047px,100.898438px) scale(0,0)}10%,to{transform:translate(28.623047px,100.898438px) scale(1,1)}}@keyframes qa-vector_25_ts__ts{0%{transform:translate(28.613281px,125.447266px) scale(0,0)}10%,to{transform:translate(28.613281px,125.447266px) scale(1,1)}}@keyframes qa-vector_29_ts__ts{0%{transform:translate(28.597656px,149.882813px) scale(0,0)}10%,to{transform:translate(28.597656px,149.882813px) scale(1,1)}}@keyframes qa-group-15_ts__ts{0%{transform:translate(74.099609px,149.677734px) scale(0,1)}10%,to{transform:translate(74.099609px,149.677734px) scale(1,1)}}</style><g id="qa-group-16"><path id="qa-vector" d="M63.155.2c-3.627 1.008-6.213 4.375-6.23 8.084 0 2 .57 3.757 1.676 5.22.341.424.602.781.602.814 0 .016-7.743.033-17.193.033H24.801l-.049.845-.048.846-10.524.049c-11.597.049-11.028 0-12.28 1.09-.31.293-.732.83-.911 1.22l-.342.683v88.923c0 79.977.033 88.988.26 89.541.31.764 1.09 1.577 1.936 2.033l.65.358 63.192.048c58.165.033 63.239.017 63.988-.227 1.122-.374 2.114-1.415 2.456-2.538.227-.78.244-9.759.211-89.508l-.049-88.647-.341-.65a4.821 4.821 0 00-1.936-1.936c-.65-.341-.715-.341-12.801-.39l-12.166-.049V14.432H88.805c-9.482 0-17.24-.033-17.24-.082 0-.048.26-.422.601-.845 1.204-1.594 1.773-3.546 1.643-5.693-.212-3.335-2.326-6.148-5.53-7.4-1.139-.44-3.904-.554-5.124-.212zm4.099 3.35c1.236.456 2.537 1.757 2.993 2.993.927 2.456-.082 5.124-2.424 6.409-.976.537-1.155.585-2.44.585s-1.463-.049-2.44-.585c-1.886-1.041-2.895-2.88-2.716-4.978.277-3.432 3.774-5.644 7.027-4.424zM25.289 25.9a9.158 9.158 0 004.506 5.14c2.033 1.024-.163.976 36.109.927l33.067-.049.96-.374c2.798-1.057 4.798-3.107 5.66-5.742l.358-1.122h16.363l.017 27.196c.016 14.964.081 36.76.13 48.438.097 17.664.113 13.191.146-26.643l.033-47.852h1.463v167.858H9.739l.05-2.244.048-2.228 47.82-.082c26.302-.049 42.632-.097 36.272-.13-6.343-.016-28.188-.032-48.503-.032H8.454V24.679l8.215.033 8.23.048.39 1.139z" fill="#4A8BFF" stroke="none" stroke-width="1"/><path id="qa-vector_2" d="M57.608 49.76c-.52.52.13 1.302.781.944.553-.293.31-1.139-.325-1.139a.718.718 0 00-.456.195z" fill="#1A2E35" stroke="none" stroke-width="1"/><path id="qa-vector_3" d="M55.299 52.818v2.928h.976V49.89h-.976v2.928z" fill="#1A2E35" stroke="none" stroke-width="1"/><path id="qa-vector_4" d="M97.426 52.818c0 2.489.033 2.928.244 2.928.212 0 .244-.44.244-2.928s-.032-2.928-.244-2.928c-.211 0-.244.44-.244 2.928z" fill="#1A2E35" stroke="none" stroke-width="1"/><path id="qa-vector_5" d="M39.977 50.2c-1.53.487-2.342 2.016-1.92 3.562.228.878 1.106 1.773 1.887 1.919.326.065.83.309 1.123.57.699.617 1.333.829 2.049.715.797-.13 1.171-.537.878-.944-.195-.276-.227-.276-.7 0-.422.245-.552.245-.942.066-.44-.196-.456-.228-.163-.407 1.252-.748 1.724-1.496 1.724-2.716 0-1.058-.472-1.936-1.317-2.408-.7-.406-1.952-.569-2.62-.358zm2.277 1.382c.537.504.602.634.602 1.383 0 .699-.081.894-.504 1.333-1.27 1.253-3.319.44-3.319-1.317 0-1.122.83-1.936 2.001-1.952.472 0 .748.13 1.22.553z" fill="#1A2E35" stroke="none" stroke-width="1"/><path id="qa-vector_6" d="M71.76 50.248c-1.855.423-2.684 2.684-1.578 4.376.504.764 1.285 1.122 2.472 1.122 1.122 0 2.163-.504 1.838-.895-.163-.195-.26-.179-.7.098-.666.407-1.675.39-2.358-.016-1.317-.814-1.545-2.456-.472-3.53.749-.764 1.903-.927 2.782-.407.472.277.602.293.748.114.146-.179.081-.293-.358-.57-.293-.178-.65-.324-.78-.324s-.391-.033-.57-.065c-.179-.033-.634 0-1.025.097z" fill="#1A2E35" stroke="none" stroke-width="1"/><path id="qa-vector_7" d="M60.016 51.029c0 .374-.065.488-.325.488-.245 0-.326.114-.326.407 0 .292.081.406.325.406.293 0 .326.114.326 1.236 0 1.171.162 1.806.553 2.05.26.179 1.691.163 1.789-.016.212-.326-.114-.667-.634-.667-.651 0-.732-.18-.732-1.562v-1.04h.569c.504 0 .57-.05.57-.407 0-.358-.066-.407-.57-.407-.52 0-.57-.033-.57-.488 0-.44-.048-.488-.487-.488-.44 0-.488.049-.488.488z" fill="#1A2E35" stroke="none" stroke-width="1"/><path id="qa-vector_8" d="M86.04 51.11c0 .293-.08.407-.325.407-.179 0-.325.114-.325.244s.146.244.325.244c.293 0 .325.114.325 1.285 0 1.529.228 2.26.732 2.39.618.164 1.302 0 1.35-.292.05-.244-.032-.276-.439-.195-.83.179-.992-.098-.992-1.74v-1.448h.65c.472 0 .651-.065.651-.244s-.179-.244-.65-.244c-.586 0-.651-.049-.651-.407 0-.292-.081-.406-.325-.406s-.326.114-.326.406z" fill="#1A2E35" stroke="none" stroke-width="1"/><path id="qa-vector_9" d="M44.889 52.9c0 1.512.26 2.39.78 2.667.456.244 1.871.228 2.132-.033.178-.162.227-.162.292 0 .05.114.293.212.553.212h.472v-4.229h-.976v1.122c0 1.366-.179 1.903-.716 2.147-1.04.488-1.561-.244-1.561-2.147v-1.122h-.976v1.382z" fill="#1A2E35" stroke="none" stroke-width="1"/><path id="qa-vector_10" d="M50.63 51.712c-.439.211-.455.293-.162.683.179.244.276.26.57.114.585-.309 1.447-.228 1.723.179.147.195.26.423.26.488 0 .081-.471.13-1.057.13-.927 0-1.122.049-1.463.407-.488.488-.521 1.04-.066 1.61.277.358.456.423 1.139.423.456 0 .96-.082 1.139-.163.211-.114.309-.114.309 0 0 .081.227.163.504.163h.504l-.065-1.724c-.049-1.66-.065-1.74-.504-2.115-.374-.325-.618-.39-1.464-.374-.553 0-1.171.081-1.366.179zm2.392 2.489c0 .358-.602.894-.992.894-.765 0-1.188-.52-.765-.943.293-.293 1.757-.26 1.757.049z" fill="#1A2E35" stroke="none" stroke-width="1"/><path id="qa-vector_11" d="M57.576 53.631v2.115h.976v-4.229h-.976v2.114z" fill="#1A2E35" stroke="none" stroke-width="1"/><path id="qa-vector_12" d="M63.366 53.583c.928 2.147 1.009 2.7.39 2.895-.162.049-.455.016-.634-.081-.276-.13-.357-.098-.52.195-.163.293-.13.39.114.569.39.276 1.106.276 1.675-.032.456-.228.65-.602 2.277-4.392.472-1.09.472-1.139.163-1.188-.57-.097-.7.066-1.285 1.497-.309.764-.618 1.399-.667 1.399-.049 0-.374-.667-.7-1.464-.601-1.431-.634-1.464-1.154-1.464h-.537l.878 2.066z" fill="#1A2E35" stroke="none" stroke-width="1"/><path id="qa-vector_13" d="M76.33 51.76c-.976.424-1.464 1.839-.96 2.799.44.845 1.009 1.187 2.001 1.187.797 0 .96-.065 1.448-.553.488-.488.553-.65.553-1.383 0-1.057-.326-1.691-1.041-2.033-.667-.309-1.302-.325-2.001-.016zm1.724.489c.944.471 1.074 2.017.228 2.684-1.009.78-2.489.048-2.489-1.253 0-1.317 1.122-2.033 2.261-1.431z" fill="#1A2E35" stroke="none" stroke-width="1"/><path id="qa-vector_14" d="M80.673 53.631c0 1.708.049 2.115.228 2.115.178 0 .243-.342.292-1.464.065-1.757.342-2.196 1.432-2.196 1.024 0 1.203.31 1.268 2.115.05 1.187.114 1.545.293 1.545.18 0 .228-.342.228-1.61 0-1.448-.033-1.676-.374-2.05-.504-.602-1.53-.732-2.31-.276-.553.341-.57.341-.57.032 0-.179-.113-.325-.243-.325-.212 0-.244.341-.244 2.114z" fill="#1A2E35" stroke="none" stroke-width="1"/><path id="qa-vector_15" d="M89.293 53.631c0 1.773.033 2.115.244 2.115.196 0 .244-.228.244-1.139 0-1.447.293-2.18.944-2.407.276-.098.537-.13.585-.081.05.065.098-.05.098-.244 0-.456-.39-.456-1.09-.033-.537.325-.537.325-.537 0 0-.179-.113-.325-.244-.325-.211 0-.244.341-.244 2.114z" fill="#1A2E35" stroke="none" stroke-width="1"/><path id="qa-vector_16" d="M93.083 51.76c-1.35.586-1.545 2.57-.358 3.58.716.585 2.034.585 2.733-.017 1.139-.943.927-2.928-.374-3.546-.667-.309-1.301-.325-2-.016zm1.725.489c1.398.715.829 3.009-.749 3.009-1.561 0-2.114-2.261-.732-2.993.57-.309.911-.325 1.48-.016z" fill="#1A2E35" stroke="none" stroke-width="1"/><g transform="matrix(0 0 0 0 28.598 76.363)" style="animation:qa-vector_17_ts__ts 3000ms linear 1 normal forwards" id="qa-group-8"><path id="qa-vector_17" d="M22.947 69.702a2.848 2.848 0 00-.895.732c-.325.439-.341.699-.39 5.774-.049 5.872-.016 6.018.992 6.766.44.326.65.342 5.937.342 7.58 0 6.945.634 6.945-6.945 0-7.531.57-6.962-6.913-6.962-4.554 0-5.188.032-5.676.293zm9.873 3.448c-.049.374-4.766 5.367-5.058 5.367-.326 0-2.424-2.586-2.326-2.846.162-.455.552-.244 1.463.765l.895 1.024 2.212-2.326c2.163-2.244 2.944-2.797 2.814-1.984z" transform="translate(-28.598 -76.363)" fill="#6FCF97" stroke="none" stroke-width="1"/></g><g id="qa-group-12" fill="#1A2E35" stroke="none" stroke-width="1"><path id="qa-vector_18" d="M52.208 71.035c-4.96.05 5.726.082 23.748.098 20.462 0 28.952-.032 22.609-.114-11.5-.114-32.921-.114-46.357.016z"/><path id="qa-vector_19" d="M48.386 75.59c-2.684.048 9.727.097 27.57.097s29.993-.049 27-.114c-6.376-.113-47.446-.113-54.57.017z"/><path id="qa-vector_20" d="M44.97 81.282c-.976.05 4.327.098 11.793.098 7.465 0 12.703-.049 11.63-.097-2.375-.147-20.918-.13-23.423 0z"/></g><g transform="matrix(0 0 0 0 28.623 100.898)" style="animation:qa-vector_21_ts__ts 3000ms linear 1 normal forwards" id="qa-group-9"><path id="qa-vector_21" d="M22.817 94.23c-.326.162-.65.52-.862.943-.31.65-.325.992-.325 5.726 0 4.586.032 5.091.309 5.709.536 1.187.585 1.187 6.685 1.187s6.083 0 6.668-1.22c.31-.618.326-1.024.326-5.546 0-2.7-.082-5.124-.163-5.45-.081-.308-.39-.78-.667-1.056l-.488-.472-5.481-.033c-4.766-.048-5.547-.016-6.002.212zm9.954 3.432c0 .39-4.668 5.254-5.026 5.254-.293 0-2.375-2.359-2.375-2.668 0-.13.114-.276.26-.325.229-.082.83.471 1.806 1.659l.293.374 2.358-2.375c1.302-1.301 2.424-2.342 2.522-2.31.08.033.162.212.162.39z" transform="translate(-28.623 -100.898)" fill="#6FCF97" stroke="none" stroke-width="1"/></g><g id="qa-group-13" fill="#1A2E35" stroke="none" stroke-width="1"><path id="qa-vector_22" d="M47.003 95.596c-1.024.05 12.004.098 28.953.098 16.948 0 29.879-.049 28.708-.114-2.537-.13-54.977-.13-57.66.016z"/><path id="qa-vector_23" d="M47.166 100.151c2 .162 55.53.162 57.661 0 .895-.049-12.053-.114-28.79-.114-16.72 0-29.717.065-28.87.114z"/><path id="qa-vector_24" d="M44.808 105.844c.634.065 6.002.13 11.955.13s11.337-.065 11.955-.13c.634-.066-4.75-.114-11.955-.114-7.206 0-12.573.048-11.955.114z"/></g><g transform="matrix(0 0 0 0 28.613 125.447)" style="animation:qa-vector_25_ts__ts 3000ms linear 1 normal forwards" id="qa-group-10"><path id="qa-vector_25" d="M22.67 118.84c-.992.601-1.04.894-1.04 6.555 0 5.676.032 5.855 1.122 6.587.553.374.618.374 5.855.374 7.482 0 6.913.537 6.978-6.652.049-5.758-.016-6.263-1.008-6.864-.472-.293-.879-.309-5.953-.309-5.043 0-5.482.016-5.954.309zm10.15 3.334c.049.211-.667 1.041-2.424 2.798-1.382 1.382-2.586 2.505-2.7 2.505-.292 0-2.342-2.473-2.277-2.766.098-.536.586-.309 1.448.716l.91 1.057 2.262-2.342c1.236-1.285 2.358-2.326 2.488-2.31.13.017.26.179.293.342z" transform="translate(-28.613 -125.447)" fill="#6FCF97" stroke="none" stroke-width="1"/></g><g id="qa-group-14" fill="#1A2E35" stroke="none" stroke-width="1"><path id="qa-vector_26" d="M48.549 120.173c2.602.049 14.931.098 27.407.098 12.475 0 24.821-.049 27.407-.098 2.602-.065-9.743-.113-27.407-.113s-29.994.048-27.407.113z"/><path id="qa-vector_27" d="M52.29 124.728c11.906.13 35.637.13 47.413 0 5.531-.065-3.952-.114-23.747-.114-19.844 0-29.245.049-23.666.114z"/><path id="qa-vector_28" d="M49.817 130.437c4.213.097 9.678.097 13.907 0 6.685-.131 6.409-.147-6.961-.147-13.37 0-13.647.016-6.946.147z"/></g><g transform="matrix(0 0 0 0 28.598 149.883)" style="animation:qa-vector_29_ts__ts 3000ms linear 1 normal forwards" id="qa-group-11"><path id="qa-vector_29" d="M22.947 143.221c-.31.147-.716.488-.895.732-.325.44-.341.7-.39 5.775-.049 5.871-.016 6.018.992 6.766.44.325.65.342 5.937.342 7.58 0 6.945.634 6.945-6.946 0-7.531.57-6.961-6.912-6.961-4.555 0-5.19.032-5.677.292zm9.873 3.449c-.049.374-4.766 5.367-5.058 5.367-.326 0-2.424-2.586-2.326-2.846.162-.456.553-.244 1.447.764l.911 1.025 2.228-2.326c2.148-2.228 2.928-2.798 2.798-1.984z" transform="translate(-28.598 -149.883)" fill="#6FCF97" stroke="none" stroke-width="1"/></g><g transform="matrix(0 0 0 1 74.1 149.678)" style="animation:qa-group-15_ts__ts 3000ms linear 1 normal forwards"><g id="qa-group-15" transform="translate(-74.1 -149.678)" fill="#1A2E35" stroke="none" stroke-width="1"><path id="qa-vector_30" d="M50.114 144.555c-5.35.049 5.76.081 24.7.098 21.588 0 30.392-.033 23.588-.114-12.29-.114-33.81-.114-48.288.016z"/><path id="qa-vector_31" d="M48.467 149.109c-2.732.049 9.646.098 27.489.098s29.961-.049 26.919-.114c-6.474-.114-47.186-.114-54.408.016z"/><path id="qa-vector_32" d="M44.97 154.802c-.976.049 4.327.098 11.793.098 7.465 0 12.703-.049 11.63-.098-2.375-.146-20.918-.13-23.423 0z"/></g></g><path id="qa-vector_33" d="M122.475 158.852c0 .439-4.392 2.847-7.01 3.839-1.676.65-4.88 1.464-6.816 1.724-2.553.358-6.88.244-9.515-.26l-.488-.098-.878 2.163c-1.09 2.701-3.692 8.084-5.043 10.459-3.122 5.449-6.587 9.727-9.303 11.5-.44.276-.765.537-.732.585.26.261 10.328-4.57 14.41-6.929 7.89-4.538 14.347-9.385 19.015-14.281 2.033-2.131 3.4-3.822 5.042-6.246 1.481-2.196 1.725-2.602 1.481-2.602-.082 0-.163.065-.163.146zm-1.936 2.749c-6.05 8.832-18.542 18.217-33.441 25.13-3.22 1.497-3.823 1.741-3.172 1.285 3.546-2.489 7.384-7.693 11.142-15.159 1.285-2.554 3.041-6.425 3.643-7.987.147-.406.195-.422.862-.292.39.065 1.692.211 2.912.325 5.839.504 12.41-.976 17.631-3.969.716-.423 1.318-.764 1.35-.764.033 0-.39.65-.927 1.431z" fill="#1A2E35" stroke="none" stroke-width="1"/></g></svg>