<svg width="300" height="215" viewBox="0 0 300 215" fill="none" xmlns="http://www.w3.org/2000/svg">
<g clip-path="url(#clip0)">
<path d="M233.519 97.2821C232.958 95.8396 233.76 95.1183 234.08 93.836C234.401 92.5538 233.359 88.5467 233.359 88.5467C233.359 88.5467 229.993 74.6824 228.951 71.9576C228.511 70.8045 227.553 70.0113 226.595 69.4787C226.53 69.1249 226.436 68.8968 226.307 68.8321C225.379 68.3676 223.066 67.3592 221.525 67.0804C221.237 66.5851 220.895 66.1229 220.506 65.7023C220.776 65.1829 220.902 64.6001 220.869 64.0154C220.771 62.5034 219.626 61.1485 219.775 59.6407C219.888 58.4971 220.724 57.5577 221.046 56.4548C221.182 55.9595 221.214 55.4417 221.14 54.9334C221.067 54.4252 220.89 53.9375 220.62 53.5005C220.858 53.7527 221.095 54.0049 221.332 54.2571C221.654 53.7738 221.809 53.1981 221.774 52.6182C221.738 52.0382 221.513 51.486 221.133 51.0461C220.383 50.2169 219.127 49.9059 218.545 48.9509C217.947 47.9697 218.268 46.6363 217.702 45.6359C216.316 43.1852 212.767 44.9225 210.641 44.0671C209.767 43.7156 209.103 43.3287 208.121 43.3565C207.285 43.4045 206.459 43.5587 205.662 43.8156C204.519 44.1463 203.525 44.8593 202.844 45.8353C202.911 45.7589 202.985 45.6885 203.064 45.6249C203.58 45.2213 204.483 45.2549 204.755 45.8501C204.82 45.9997 204.847 46.163 204.834 46.3256C204.79 47.0431 204.163 47.579 203.54 47.9381C202.917 48.2971 202.216 48.5976 201.81 49.1906C201.139 50.1692 201.533 51.4824 201.534 52.6689C201.528 53.4229 201.354 54.1661 201.023 54.8437C200.692 55.5214 200.214 56.1162 199.623 56.5844L201.884 55.6599C200.804 57.5498 200.095 59.6285 199.796 61.7843L202.853 59.2583C201.721 61.0607 201.033 63.1062 200.845 65.2265L203.299 62.7117C203.411 62.9082 203.467 63.1314 203.461 63.3573L203.205 64.3444C203.115 64.5403 203.015 64.7316 202.905 64.9174C202.51 65.5955 202.102 66.4303 202.471 67.1227L202.473 67.1217C202.084 68.4299 201.498 69.7388 200.193 70.3748C201.64 70.5263 203.15 69.8026 203.804 68.6509C203.911 68.8582 204.039 69.0533 204.188 69.2328C204.23 69.2854 204.271 69.3376 204.313 69.3898L203.952 69.6303L202.986 70.2746C202.986 70.2746 196.655 71.5568 197.055 73.9611C197.072 74.06 197.092 74.178 197.114 74.3104L195.292 77.4071L192.648 86.3829C192.648 86.3829 191.285 89.268 191.526 90.4701C191.766 91.6722 191.526 92.153 191.526 94.3168C191.526 96.4806 190.484 97.3622 191.526 99.1253C192.567 100.888 195.693 106.017 195.693 106.017L196.38 106.532C196.346 106.842 196.358 107.154 196.414 107.46C197.055 110.666 203.066 141.36 203.066 141.36C203.066 141.36 200.021 165.642 206.191 167.165C206.965 167.356 207.725 167.529 208.464 167.683L209.397 173.817L208.836 181.59C208.836 181.59 204.589 191.207 212.362 191.768C220.136 192.329 216.61 183.433 216.61 183.433C217.02 182.674 217.188 181.807 217.091 180.949C217.011 180.236 216.344 176.523 215.69 172.953C218.64 172.599 218.088 169.468 217.695 168.091C217.865 167.992 217.992 167.833 218.052 167.646C218.141 167.326 217.934 166.068 217.559 164.306C217.254 162.554 216.731 159.718 216.375 157.797L218.293 158.109L226.387 110.666C226.387 110.666 226.44 109.91 226.416 108.806C227.523 108.233 228.664 107.73 229.833 107.3C232.478 106.258 233.519 102.411 234.401 100.808C235.283 99.2054 234.08 98.7246 233.519 97.2821ZM204.781 67.0748C205.043 66.8942 205.349 66.7901 205.667 66.7741C205.599 67.1468 204.958 67.2558 204.42 67.451C204.519 67.3065 204.641 67.1794 204.781 67.0748ZM200.742 90.951C201.391 92.0177 200.216 94.9082 199.156 97.202C198.549 96.679 197.916 96.8439 198.658 95.3587C199.165 94.4175 199.465 93.3795 199.54 92.3134C199.54 92.1301 199.634 90.7837 200.423 90.2244C200.506 90.4761 200.613 90.7193 200.742 90.951ZM198.31 100.158C198.677 100.008 199.233 99.7782 199.985 99.5227C199.625 99.9952 199.214 100.558 198.801 101.173C198.644 101.054 198.518 100.9 198.433 100.724C198.348 100.548 198.306 100.353 198.31 100.158ZM224.303 101.209C223.816 100.691 223.422 100.228 223.098 99.8139C223.703 99.973 224.318 100.144 224.944 100.327C225.257 100.374 225.575 100.353 225.878 100.265C225.906 100.819 225.906 101.61 225.906 101.61L225.028 102.217C224.828 101.853 224.585 101.515 224.303 101.209V101.209ZM226.79 98.4296C226.781 98.4377 226.771 98.4471 226.761 98.4557C226.718 98.1388 226.646 97.8265 226.547 97.5225C226.022 95.8661 225.741 92.9271 225.592 90.4191L227.108 95.519C227.108 95.519 227.188 98.0835 226.79 98.4296Z" fill="#D0CDE1"/>
<path d="M195.66 77.3652C195.66 77.3652 187.438 63.2337 187.181 61.6921C186.924 60.1505 182.813 57.3242 182.813 57.3242C181.409 55.9197 179.104 55.4752 176.679 55.4983C177.592 54.7428 174.331 54.2349 174.078 53.7271C173.821 53.2133 173.05 53.2133 172.022 52.4425C170.994 51.6717 168.429 52.3139 168.429 52.314C168.043 51.5026 167.775 50.6404 167.632 49.7533C168.727 48.4579 169.326 46.816 169.324 45.1198C169.324 45.1014 169.323 45.0832 169.323 45.0648C169.388 45.1666 169.454 45.269 169.519 45.3745C170 42.4915 170.85 40.095 169.231 37.465C168.083 35.601 166.286 34.2274 164.186 33.6086L162.644 34.8424L163.244 33.4033C162.739 33.3264 162.229 33.2969 161.719 33.3152L160.331 35.0994L160.906 33.3763C159.702 33.526 158.542 33.9235 157.499 34.5438C156.456 35.1641 155.553 35.9938 154.847 36.9804C153.081 39.5271 153.199 43.0671 154.936 45.6337C154.942 45.6157 154.946 45.5981 154.952 45.5802C155.029 46.7809 155.405 47.9432 156.048 48.9606C156.69 49.978 157.577 50.818 158.628 51.4038L159.064 54.8946C158.672 55.2592 158.168 55.4815 157.634 55.5257C156.863 55.5257 156.092 57.5812 156.092 57.5812C156.092 57.5812 155.655 57.8017 155.184 58.8424C153.971 59.6681 150.272 62.2619 148.899 64.0744C148.087 64.474 147.215 65.3629 147.356 67.3447C147.613 70.9418 147.356 87.6426 147.356 87.6426C147.356 87.6426 145.044 101.774 145.815 102.802C146.585 103.83 145.558 107.17 145.558 107.17L146.329 107.341V108.197C146.329 108.197 144.01 118.945 147.613 118.475C153.523 117.704 149.155 108.968 149.155 108.968V107.969L150.183 108.197C150.183 108.197 150.696 104.6 151.724 104.343C152.082 104.254 152.501 103.294 152.897 102.08C153.127 103.973 153.266 105.114 153.266 105.114L154.873 104.757L155.321 106.399C155.432 106.461 155.547 106.513 155.667 106.555L155.321 108.454C155.321 108.454 155.064 110.51 155.321 111.794C155.451 112.442 160.22 126.291 164.917 139.86L164.828 143.141C164.828 143.141 162.515 145.71 163.029 147.508C163.543 149.307 161.745 164.209 161.745 164.209L160.203 171.66L160.591 171.78L160.235 173.085C159.928 173.24 159.655 173.455 159.432 173.716C157.377 176.028 154.807 182.709 154.807 182.709C154.807 182.709 150.183 189.646 157.377 189.389C164.571 189.132 165.085 186.563 165.085 186.563C165.085 186.563 166.113 179.882 166.113 179.625C166.113 179.368 165.599 176.727 165.599 176.727L165.399 176.507L165.538 173.302L166.883 173.716C166.883 173.716 168.168 167.036 169.196 166.265C169.555 165.995 170.511 162.994 171.602 159.14C172.717 162.351 173.797 173.455 174.147 174.462C174.023 174.632 173.914 174.812 173.821 175.001C172.666 177.217 171.379 179.362 169.967 181.424C169.967 181.424 161.745 186.306 169.967 187.59C169.967 187.59 174.591 187.847 176.904 186.306C179.216 184.764 185.383 182.452 185.383 181.938C185.383 181.424 183.841 173.87 182.299 174.692L181.267 172.317L182.299 171.917L175.795 142.719C175.948 142.097 176.061 141.465 176.133 140.828C176.133 139.483 179.46 113.283 180.307 106.638C184.033 107.694 187.438 99.9755 187.438 99.9755L188.283 98.4551L189.494 99.2047C189.494 99.2047 190.521 96.6353 192.063 96.3784C193.605 96.1215 196.431 82.5039 196.431 80.7054C196.407 79.5507 196.145 78.4134 195.66 77.3652ZM183.689 97.4957C183.436 97.0943 183.143 96.7198 182.813 96.3783C183.485 94.6287 184.001 92.8231 184.355 90.9827C184.869 88.1564 183.584 78.9068 183.584 78.9068L183.562 78.2786C184.823 79.934 186.41 82.141 186.41 82.7608C186.41 83.0599 186.48 83.355 186.614 83.6226C186.748 83.8902 186.942 84.1229 187.181 84.3024L185.64 89.698C185.64 89.698 184.612 92.2674 184.355 93.5521C184.201 94.3137 184.115 95.0876 184.098 95.8645L184.462 96.0899L183.689 97.4957Z" fill="#D0CDE1"/>
<path d="M78.0341 82.1209L79.4051 81.8124L73.7525 65.8824L61.5481 61.3861C61.5481 61.3861 61.5013 61.4379 61.415 61.5272C60.374 60.5198 59.9322 59.0578 59.7476 57.9071C60.7291 57.5107 61.6109 56.9025 62.3302 56.1259C63.0495 55.3494 63.5885 54.4236 63.9088 53.4147C64.2291 52.4059 64.3227 51.3387 64.183 50.2895C64.0433 49.2402 63.6737 48.2348 63.1007 47.3448C64.1063 47.1035 64.4654 46.1911 64.8029 45.1032C64.5939 45.0415 64.3808 44.9951 64.1651 44.9643C64.3232 44.6097 64.4814 44.255 64.6395 43.9004C64.3616 43.8754 64.0836 43.8505 63.8057 43.8255C63.8768 43.494 63.9478 43.1625 64.0189 42.8309C63.6644 43.0757 63.31 43.3204 62.9555 43.565C63.0759 43.217 63.1059 42.8441 63.0425 42.4813C62.9792 42.1185 62.8246 41.7778 62.5934 41.4911C62.1227 40.9223 61.5088 40.4894 60.8149 40.2371C59.458 39.7032 57.9802 39.5536 56.5438 39.8046C55.1074 40.0557 53.7679 40.6977 52.6725 41.6602L52.5957 41.3608C50.4265 43.0283 49.0071 45.4879 48.6488 48.2004C48.3085 50.8816 49.5965 53.6117 51.2707 55.7335C51.2566 55.6409 51.2415 55.5485 51.2261 55.4562C51.2985 55.5559 51.3732 55.6537 51.4503 55.7496L51.6561 63.57L51.1407 64.0118C51.1399 64.0122 42.4927 67.9243 42.1557 72.597L42.1547 72.6004C41.6357 74.8751 41.3787 86.6942 41.3787 86.6942H42.0902L41.3787 91.319L36.7539 109.304C36.7539 109.304 30.8444 117.012 35.9831 118.554C39.1763 119.512 40.0874 115.807 40.3197 112.864C40.5047 113.594 41.058 114.087 42.1495 114.186C42.2354 114.194 42.3271 114.201 42.4158 114.208C39.9861 120.487 41.6356 140.907 41.6356 140.907C40.351 143.477 55.5101 161.205 55.5101 161.205L56.4229 160.718L56.6205 161.114C56.1125 161.162 55.7671 161.205 55.7671 161.205V169.17C55.7671 169.17 53.4546 177.135 56.5379 178.677C57.3357 179.076 58.1678 178.786 58.9632 178.138C58.8112 180.596 58.5934 184.264 58.5934 185.1C58.5934 186.385 61.9335 188.697 61.9335 188.697C61.9335 188.697 62.7043 191.524 68.8708 191.524C75.0372 191.524 70.4124 184.073 70.4124 184.073L67.0722 176.621C67.0722 176.621 66.8223 176.744 66.066 176.128L66.3369 173.148L67.843 173.281L69.8985 143.22C69.8985 143.22 71.697 116.499 71.954 112.388C72.0142 111.07 71.9831 109.749 71.8611 108.435L79.4051 92.8606L78.0341 82.1209ZM72.4678 92.0898L71.697 94.7759V88.8353L72.4678 92.0898ZM40.3913 111.144C40.3977 110.202 40.351 109.561 40.351 109.561L45.3741 99.5152L45.2327 102.624C45.2327 102.624 41.2099 107.713 40.3913 111.144ZM52.17 140.137L57.0518 122.922L59.878 143.734L59.6754 151.3C59.3312 150.605 59.0549 149.878 58.8503 149.129C58.0795 146.046 52.17 140.137 52.17 140.137Z" fill="#D0CDE1"/>
<path d="M121.7 181.029C119.293 180.038 114.619 177.914 114.053 176.781C113.487 175.648 110.654 166.868 110.654 166.868L109.925 166.921C109.831 162.933 109.429 147.475 108.813 145.627C108.813 145.627 111.787 121.128 105.84 111.357L104.768 107.028C105.12 105.292 105.075 101.273 104.848 100.594C104.565 99.7448 108.105 97.0542 107.114 95.3549C106.123 93.6555 103.432 87.8495 103.432 87.8495C103.432 87.8495 103.715 84.1676 99.8919 80.769C99.8919 80.769 98.7746 74.4433 93.7396 74.3491C93.059 73.1612 92.1062 71.2724 92.3865 70.4314C92.6867 69.5309 93.8344 66.7237 94.4826 65.1525C94.8269 64.9969 95.1575 64.8129 95.4712 64.6023C99.4756 62.8082 102.298 58.4952 102.298 53.4568C102.298 48.0632 99.0647 43.4987 94.6083 41.9681C94.8068 41.4449 94.888 40.8846 94.8461 40.3266C94.8042 39.7686 94.6403 39.2266 94.366 38.7389C94.0916 38.2512 93.7135 37.8297 93.2584 37.5041C92.8032 37.1786 92.2822 36.957 91.732 36.855C91.1818 36.7529 90.6159 36.773 90.0743 36.9136C89.5327 37.0543 89.0286 37.3122 88.5977 37.6691C88.1667 38.026 87.8193 38.4732 87.5801 38.9791C87.341 39.4849 87.2158 40.0372 87.2135 40.5967C86.9684 40.0158 86.871 39.3833 86.9299 38.7556C86.9888 38.1278 87.2023 37.5245 87.5512 36.9993C87.9001 36.4742 88.3736 36.0437 88.9295 35.7461C89.4853 35.4485 90.1062 35.2933 90.7367 35.2941C90.9848 35.2944 91.2324 35.3188 91.4759 35.367C90.6363 34.9677 89.68 34.8883 88.7861 35.1436C87.8922 35.3989 87.122 35.9714 86.62 36.7539C86.118 37.5363 85.9185 38.475 86.059 39.394C86.1994 40.3129 86.6702 41.1492 87.383 41.7459C87.4271 41.8857 87.4792 42.0229 87.5391 42.1567C83.3458 43.8488 80.3546 48.2694 80.3546 53.4568C80.3546 58.2686 82.929 62.4192 86.6485 64.3458C86.6287 65.911 86.2405 68.5499 84.0819 70.1581C82.9668 69.6486 81.4194 69.0893 80.4264 69.343C79.913 68.9428 79.1382 68.8106 78.0838 69.8649C75.9597 71.9891 74.1187 77.5119 74.1187 80.9106C74.1187 84.3092 74.5436 103.993 74.5436 103.993C74.5436 103.993 72.2778 104.843 73.8355 106.117C74.1572 106.385 74.5609 106.535 74.9796 106.542L76.5261 118.013C76.5261 118.013 75.5348 129.058 79.3584 129.2C79.6582 129.216 79.9561 129.143 80.2142 128.99L77.3758 141.803C77.3758 141.803 70.8617 146.052 65.7637 154.407C63.1379 158.71 61.8288 161.357 61.1749 162.916L60.2409 162.337L56.9838 168.568C56.9838 168.568 49.7617 172.958 51.3194 176.215C52.8771 179.472 54.2932 180.321 54.2932 180.321L55.2845 179.897L57.1254 183.295C57.1254 183.295 61.9402 190.234 69.7288 186.694C70.0943 186.203 70.2917 185.607 70.2917 184.995C70.2917 184.382 70.0943 183.786 69.7288 183.295C68.4543 181.454 65.1972 177.489 65.1972 177.489L67.3214 166.727L66.8819 166.454L80.3496 150.158C80.3496 150.158 84.3147 147.751 85.7309 145.627C87.147 143.503 95.9268 121.553 95.9268 121.553L100.883 144.494C100.883 144.494 100.6 152.849 101.874 158.23C102.569 161.249 103.022 164.318 103.229 167.408L102.866 167.435L103.715 173.807C103.715 173.807 100.034 182.87 102.583 183.579C104.396 184.047 106.242 184.378 108.105 184.57L108.389 183.579C108.389 183.579 119.293 189.526 123.258 185.136C123.258 185.136 124.107 182.021 121.7 181.029ZM82.8986 111.499C83.3234 111.923 83.1818 113.906 83.1818 113.906L82.3322 119.429L81.4836 123.259C81.3662 121.45 81.1293 119.65 80.7744 117.871L80.3824 107.287C80.4595 107.336 80.5441 107.371 80.6328 107.392C80.916 107.392 80.7744 104.984 80.7744 104.984C80.7744 104.984 80.9397 104.554 81.146 103.876C81.6965 105.524 82.3686 106.599 83.1818 106.825L83.3234 108.666C83.3234 108.666 81.4825 109.516 83.1818 109.516C83.2804 109.512 83.3783 109.498 83.4737 109.473L83.3234 110.224C83.3234 110.224 82.4738 111.074 82.8986 111.499Z" fill="#D0CDE1"/>
<path d="M145.706 173.084L146.956 181.841L153.211 181.215L152.586 172.146L145.706 173.084Z" fill="#FFB8B8"/>
<path d="M115.996 173.084L114.745 181.841L108.49 181.215L109.116 172.146L115.996 173.084Z" fill="#FFB8B8"/>
<path d="M106.926 82.3914C106.926 82.3914 101.297 88.9588 102.548 99.279C103.799 109.599 105.988 133.054 105.988 133.054L107.552 174.648L117.559 174.022L119.123 138.683L124.127 110.225L137.574 143.374C137.574 143.374 144.142 174.335 144.455 174.335C144.767 174.335 153.837 173.397 153.837 173.397L149.458 136.807C149.458 136.807 142.578 83.6423 138.513 82.7041C134.447 81.7659 106.926 82.3914 106.926 82.3914Z" fill="#2F2E41"/>
<path d="M153.837 179.964C153.837 179.964 148.207 176.212 146.018 180.59C143.829 184.968 145.706 188.095 145.706 188.095C145.706 188.095 147.582 189.346 146.644 190.597C145.706 191.848 145.393 199.979 153.524 198.728C161.655 197.477 157.589 189.034 157.589 189.034L153.837 179.964Z" fill="#2F2E41"/>
<path d="M107.865 179.964C107.865 179.964 113.494 176.212 115.683 180.59C117.872 184.968 115.996 188.095 115.996 188.095C115.996 188.095 114.119 189.346 115.058 190.597C115.996 191.848 116.309 199.979 108.177 198.728C100.046 197.477 104.112 189.034 104.112 189.034L107.865 179.964Z" fill="#2F2E41"/>
<path d="M114.589 21.5646C114.589 21.5646 117.403 29.383 115.214 33.7613C113.025 38.1395 118.654 43.1433 118.654 43.1433C118.654 43.1433 133.353 35.6377 131.476 31.8849C129.6 28.1321 126.472 23.1283 127.098 20.001L114.589 21.5646Z" fill="#FFB8B8"/>
<path d="M120.061 24.5357C125.588 24.5357 130.069 20.0552 130.069 14.5282C130.069 9.00125 125.588 4.52075 120.061 4.52075C114.534 4.52075 110.054 9.00125 110.054 14.5282C110.054 20.0552 114.534 24.5357 120.061 24.5357Z" fill="#FFB8B8"/>
<path d="M112.868 33.2922C112.868 33.2922 122.91 41.6479 130.398 29.8081L138.2 34.2304L142.265 81.766C142.265 81.766 119.436 94.9008 108.49 83.6424L110.054 39.5469L112.868 33.2922Z" fill="#D0CDE1"/>
<path d="M116.022 28.6115L101.923 37.9831L106.926 61.1254L100.359 97.0898L110.992 81.1404L116.022 28.6115Z" fill="url(#paint0_linear)"/>
<path d="M128.482 26.0029L131.945 28.2885L146.018 33.2923L143.829 72.0713L149.771 97.09L141.327 101.468C141.327 101.468 139.764 89.5844 130.069 83.6424C120.374 77.7005 126.27 27.7829 128.482 26.0029Z" fill="url(#paint1_linear)"/>
<path d="M105.05 86.7697L109.116 89.5843C109.116 89.5843 103.956 95.0571 103.017 94.1189C102.746 93.8582 102.535 93.541 102.4 93.1896C102.265 92.8383 102.209 92.4616 102.236 92.0861L101.297 89.897L105.05 86.7697Z" fill="#FFB8B8"/>
<path d="M132.076 86.1613L130.694 88.3333C130.694 88.3333 126.629 90.2097 127.567 91.4607C128.505 92.7116 136.323 95.5262 137.887 92.7116L139.451 89.897L132.076 86.1613Z" fill="#FFB8B8"/>
<path d="M103.799 37.6705L101.61 37.9833L98.0136 61.2819C98.0136 61.2819 96.6063 65.5038 98.17 75.5113C99.7336 85.5188 101.282 92.0355 101.282 92.0355L108.177 87.0825L105.05 78.9514L109.116 49.2417L103.799 37.6705Z" fill="url(#paint2_linear)"/>
<path d="M141.014 32.6667L146.018 33.2922C146.018 33.2922 151.647 39.2342 152.586 45.4888C153.524 51.7435 153.211 69.5693 153.211 69.5693L138.825 92.3989L131.007 86.7697L141.953 67.3802L136.636 44.2379L141.014 32.6667Z" fill="url(#paint3_linear)"/>
<path d="M129.605 5.47695C128.091 3.01952 125.722 1.20865 122.954 0.392888L120.921 2.01951L121.711 0.122238C121.047 0.0208236 120.374 -0.0180626 119.702 0.00608895L117.872 2.35824L118.629 0.0866584C117.042 0.283934 115.513 0.807991 114.138 1.62578C112.763 2.44357 111.573 3.53735 110.641 4.83816C108.313 8.19554 107.92 12.8646 110.21 16.2482C110.839 14.3163 111.602 12.5035 112.231 10.5715C112.725 10.6389 113.225 10.6413 113.72 10.5788L114.485 8.7941L114.699 10.5033C117.069 10.2967 120.586 9.84329 122.833 9.42781L122.615 8.11664L123.922 9.20623C124.611 9.04769 125.019 8.90396 124.986 8.7941C126.657 11.4887 128.313 13.2099 129.985 15.9045C130.619 12.1036 131.739 8.94422 129.605 5.47695Z" fill="#2F2E41"/>
<path d="M129.05 15.5687C129.424 15.5687 129.728 14.9621 129.728 14.2138C129.728 13.4655 129.424 12.8589 129.05 12.8589C128.676 12.8589 128.373 13.4655 128.373 14.2138C128.373 14.9621 128.676 15.5687 129.05 15.5687Z" fill="#FFB8B8"/>
<path d="M299.973 16.0079C299.982 15.9794 299.991 15.9505 300 15.9219C299.996 15.9344 299.991 15.9465 299.987 15.9591L299.973 16.0079Z" fill="#2F2E41"/>
</g>
<defs>
<linearGradient id="paint0_linear" x1="108.19" y1="28.6115" x2="108.19" y2="97.0898" gradientUnits="userSpaceOnUse">
<stop stop-color="#09005D"/>
<stop offset="1" stop-color="#1A0F91"/>
</linearGradient>
<linearGradient id="paint1_linear" x1="137.224" y1="26.0029" x2="137.224" y2="101.468" gradientUnits="userSpaceOnUse">
<stop stop-color="#09005D"/>
<stop offset="1" stop-color="#1A0F91"/>
</linearGradient>
<linearGradient id="paint2_linear" x1="103.274" y1="37.6705" x2="103.274" y2="92.0355" gradientUnits="userSpaceOnUse">
<stop stop-color="#09005D"/>
<stop offset="1" stop-color="#1A0F91"/>
</linearGradient>
<linearGradient id="paint3_linear" x1="142.134" y1="32.6667" x2="142.134" y2="92.3989" gradientUnits="userSpaceOnUse">
<stop stop-color="#09005D"/>
<stop offset="1" stop-color="#1A0F91"/>
</linearGradient>
<clipPath id="clip0">
<rect width="300" height="214.521" fill="white"/>
</clipPath>
</defs>
</svg>
