<svg width="500" height="359" viewBox="0 0 500 359" fill="none" xmlns="http://www.w3.org/2000/svg">
<g clip-path="url(#clip0)">
<path d="M389.199 162.498C388.264 160.089 389.6 158.884 390.134 156.742C390.668 154.6 388.932 147.907 388.932 147.907C388.932 147.907 383.322 124.748 381.586 120.197C380.851 118.271 379.255 116.946 377.659 116.056C377.55 115.465 377.394 115.084 377.178 114.976C375.631 114.2 371.777 112.516 369.208 112.05C368.728 111.223 368.158 110.451 367.51 109.748C367.961 108.88 368.17 107.907 368.115 106.93C367.951 104.405 366.043 102.142 366.291 99.6229C366.479 97.7127 367.873 96.1435 368.41 94.3013C368.636 93.4739 368.689 92.6089 368.567 91.7599C368.445 90.911 368.15 90.0963 367.701 89.3664C368.096 89.7877 368.491 90.2089 368.886 90.6302C369.424 89.8229 369.682 88.8613 369.623 87.8926C369.563 86.9239 369.188 86.0015 368.556 85.2666C367.305 83.8815 365.213 83.362 364.242 81.7669C363.245 80.1278 363.78 77.9005 362.837 76.2295C360.526 72.1359 354.611 75.0378 351.068 73.609C349.612 73.0218 348.506 72.3756 346.868 72.422C345.475 72.5021 344.098 72.7598 342.77 73.189C340.865 73.7414 339.208 74.9323 338.074 76.5626C338.186 76.435 338.308 76.3174 338.441 76.2112C339.299 75.5369 340.805 75.593 341.258 76.5873C341.366 76.8372 341.412 77.1099 341.39 77.3815C341.316 78.5801 340.271 79.4752 339.233 80.075C338.195 80.6748 337.027 81.1766 336.35 82.1671C335.232 83.8018 335.889 85.9955 335.89 87.9773C335.88 89.2368 335.589 90.4782 335.038 91.6101C334.487 92.742 333.69 93.7356 332.705 94.5178L336.474 92.9735C334.674 96.1303 333.492 99.6025 332.993 103.204L338.089 98.9842C336.201 101.995 335.054 105.412 334.742 108.953L338.832 104.753C339.018 105.081 339.112 105.454 339.102 105.831L338.676 107.48C338.525 107.807 338.358 108.127 338.175 108.437C337.517 109.57 336.836 110.964 337.452 112.121L337.455 112.119C336.807 114.304 335.829 116.491 333.655 117.553C336.067 117.806 338.584 116.597 339.673 114.673C339.851 115.02 340.066 115.345 340.313 115.645C340.383 115.733 340.452 115.82 340.522 115.908L339.921 116.309L338.31 117.386C338.31 117.386 327.758 119.527 328.426 123.543C328.453 123.709 328.486 123.906 328.523 124.127L325.487 129.3L321.079 144.293C321.079 144.293 318.809 149.112 319.209 151.12C319.61 153.128 319.209 153.931 319.209 157.545C319.209 161.16 317.473 162.632 319.209 165.577C320.946 168.522 326.155 177.09 326.155 177.09L327.299 177.95C327.243 178.466 327.263 178.988 327.357 179.499C328.426 184.854 338.443 236.125 338.443 236.125C338.443 236.125 333.368 276.686 343.652 279.23C344.942 279.549 346.209 279.838 347.44 280.096L348.995 290.341L348.06 303.326C348.06 303.326 340.981 319.389 353.937 320.327C366.893 321.264 361.016 306.404 361.016 306.404C361.7 305.136 361.98 303.687 361.818 302.255C361.686 301.063 360.573 294.862 359.483 288.898C364.4 288.307 363.48 283.077 362.825 280.777C363.108 280.611 363.32 280.346 363.42 280.033C363.568 279.499 363.224 277.398 362.599 274.454C362.089 271.528 361.219 266.791 360.625 263.581L363.821 264.103L377.312 184.854C377.312 184.854 377.401 183.592 377.36 181.747C379.204 180.791 381.106 179.951 383.055 179.232C387.463 177.491 389.199 171.066 390.668 168.389C392.138 165.711 390.134 164.908 389.199 162.498ZM341.301 112.041C341.738 111.739 342.249 111.565 342.779 111.538C342.665 112.161 341.596 112.343 340.7 112.669C340.865 112.428 341.068 112.215 341.301 112.041V112.041ZM334.57 151.923C335.652 153.705 333.693 158.533 331.927 162.365C330.915 161.491 329.859 161.767 331.097 159.286C331.941 157.714 332.442 155.98 332.566 154.199C332.566 153.893 332.723 151.644 334.039 150.709C334.177 151.13 334.355 151.536 334.57 151.923V151.923ZM330.516 167.302C331.129 167.052 332.056 166.668 333.308 166.241C332.708 167.03 332.023 167.971 331.334 168.997C331.074 168.799 330.864 168.543 330.722 168.248C330.58 167.953 330.509 167.629 330.516 167.302V167.302ZM373.839 169.058C373.027 168.193 372.371 167.42 371.83 166.728C372.838 166.993 373.864 167.279 374.907 167.585C375.428 167.663 375.958 167.628 376.464 167.481C376.51 168.407 376.51 169.727 376.51 169.727L375.047 170.742C374.714 170.134 374.308 169.568 373.839 169.058V169.058ZM377.984 164.415C377.968 164.429 377.951 164.445 377.935 164.459C377.864 163.93 377.744 163.408 377.579 162.9C376.703 160.133 376.236 155.224 375.987 151.035L378.514 159.553C378.514 159.553 378.647 163.837 377.984 164.415V164.415Z" fill="#D0CDE1"/>
<path d="M326.1 129.23C326.1 129.23 312.397 105.625 311.969 103.05C311.54 100.474 304.689 95.7535 304.689 95.7535C302.348 93.4073 298.507 92.6649 294.465 92.7036C295.987 91.4415 290.552 90.5931 290.129 89.745C289.701 88.8866 288.416 88.8866 286.703 87.5991C284.991 86.3116 280.715 87.3844 280.715 87.3845C280.072 86.0291 279.624 84.5889 279.386 83.1072C281.211 80.9433 282.211 78.2007 282.207 75.3675C282.207 75.3366 282.205 75.3063 282.205 75.2756C282.314 75.4456 282.423 75.6166 282.532 75.7929C283.334 70.9771 284.75 66.974 282.051 62.5809C280.138 59.4673 277.143 57.1729 273.644 56.1393L271.073 58.2002L272.073 55.7963C271.232 55.6678 270.381 55.6186 269.532 55.6492L267.219 58.6294L268.176 55.7513C266.169 56.0012 264.236 56.6652 262.498 57.7014C260.76 58.7375 259.255 60.1234 258.078 61.7715C255.134 66.0255 255.331 71.9386 258.226 76.2258C258.236 76.1958 258.244 76.1664 258.253 76.1364C258.381 78.142 259.009 80.0835 260.079 81.783C261.15 83.4824 262.628 84.8856 264.38 85.8641L265.107 91.6951C264.453 92.3042 263.613 92.6754 262.723 92.7493C261.438 92.7493 260.153 96.1827 260.153 96.1827C260.153 96.1827 259.425 96.551 258.641 98.2894C256.619 99.6687 250.453 104.001 248.165 107.029C246.812 107.696 245.358 109.181 245.594 112.492C246.022 118.5 245.594 146.397 245.594 146.397C245.594 146.397 241.74 170.002 243.024 171.718C244.309 173.435 242.596 179.015 242.596 179.015L243.881 179.301V180.731C243.881 180.731 240.017 198.683 246.022 197.898C255.871 196.611 248.591 182.019 248.591 182.019V180.35L250.304 180.731C250.304 180.731 251.161 174.723 252.874 174.294C253.469 174.144 254.169 172.54 254.828 170.512C255.212 173.676 255.443 175.581 255.443 175.581L258.122 174.984L258.869 177.727C259.053 177.83 259.245 177.918 259.444 177.988L258.869 181.16C258.869 181.16 258.441 184.594 258.869 186.74C259.085 187.822 267.034 210.954 274.861 233.621L274.713 239.1C274.713 239.1 270.859 243.392 271.716 246.396C272.572 249.4 269.574 274.293 269.574 274.293L267.005 286.739L267.652 286.938L267.058 289.119C266.547 289.378 266.092 289.736 265.72 290.172C262.295 294.035 258.012 305.194 258.012 305.194C258.012 305.194 250.304 316.781 262.295 316.352C274.285 315.923 275.141 311.631 275.141 311.631C275.141 311.631 276.854 300.473 276.854 300.043C276.854 299.614 275.998 295.202 275.998 295.202L275.665 294.835L275.897 289.481L278.139 290.172C278.139 290.172 280.28 279.014 281.993 277.726C282.592 277.276 284.184 272.263 286.003 265.825C287.861 271.189 289.661 289.736 290.246 291.419C290.039 291.703 289.856 292.003 289.701 292.318C287.776 296.02 285.631 299.603 283.278 303.048C283.278 303.048 269.574 311.202 283.278 313.348C283.278 313.348 290.986 313.777 294.84 311.202C298.694 308.627 308.971 304.764 308.971 303.906C308.971 303.048 306.402 290.43 303.832 291.803L302.111 287.836L303.832 287.168L292.991 238.396C293.247 237.357 293.436 236.301 293.555 235.237C293.555 232.99 299.1 189.227 300.511 178.127C306.721 179.89 312.397 166.998 312.397 166.998L313.805 164.458L315.823 165.71C315.823 165.71 317.536 161.418 320.105 160.989C322.674 160.56 327.385 137.813 327.385 134.809C327.345 132.88 326.908 130.981 326.1 129.23V129.23ZM306.148 162.855C305.727 162.185 305.238 161.559 304.689 160.989C305.808 158.066 306.668 155.05 307.258 151.976C308.115 147.255 305.973 131.805 305.973 131.805L305.936 130.755C308.038 133.521 310.684 137.207 310.684 138.242C310.684 138.742 310.8 139.235 311.023 139.682C311.246 140.129 311.57 140.518 311.969 140.817L309.399 149.83C309.399 149.83 307.686 154.122 307.258 156.268C307.001 157.54 306.858 158.833 306.83 160.131L307.437 160.507L306.148 162.855Z" fill="#D0CDE1"/>
<path d="M130.057 137.173L132.342 136.658L122.921 110.049L102.58 102.538C102.58 102.538 102.502 102.625 102.359 102.774C100.624 101.091 99.8871 98.6493 99.5795 96.7271C101.215 96.0649 102.685 95.049 103.884 93.7519C105.083 92.4547 105.981 90.9084 106.515 89.2232C107.049 87.5379 107.205 85.7554 106.972 84.0028C106.739 82.2501 106.123 80.5706 105.168 79.0841C106.844 78.6809 107.442 77.1569 108.005 75.3397C107.657 75.2367 107.301 75.1591 106.942 75.1077C107.206 74.5153 107.469 73.9229 107.733 73.3305C107.269 73.2888 106.806 73.2472 106.343 73.2055C106.461 72.6517 106.58 72.0979 106.698 71.5442C106.108 71.9529 105.517 72.3616 104.926 72.7704C105.127 72.189 105.177 71.5661 105.071 70.9601C104.965 70.3541 104.708 69.7849 104.322 69.3061C103.538 68.356 102.515 67.6329 101.358 67.2114C99.0968 66.3196 96.6338 66.0697 94.2397 66.4891C91.8457 66.9084 89.6133 67.9808 87.7876 69.5885L87.6596 69.0884C84.0443 71.8737 81.6786 75.9823 81.0814 80.5132C80.5143 84.9919 82.661 89.5522 85.4513 93.0963C85.4278 92.9416 85.4026 92.7873 85.377 92.6332C85.4976 92.7997 85.6221 92.9631 85.7506 93.1232L86.0936 106.186L85.2346 106.924C85.2332 106.925 70.8213 113.46 70.2596 121.265L70.2579 121.271C69.3929 125.07 68.9646 144.813 68.9646 144.813H70.1505L68.9646 152.538L61.2566 182.58C61.2566 182.58 51.4074 195.456 59.9719 198.031C65.2939 199.631 66.8124 193.443 67.1996 188.527C67.5079 189.745 68.4301 190.569 70.2493 190.735C70.3925 190.748 70.5453 190.759 70.6932 190.771C66.6436 201.259 69.3928 235.37 69.3928 235.37C67.2517 239.661 92.517 269.275 92.517 269.275L94.0383 268.462L94.3675 269.122C93.5209 269.203 92.9452 269.275 92.9452 269.275V282.579C92.9452 282.579 89.0912 295.884 94.2299 298.459C95.5596 299.125 96.9464 298.641 98.2721 297.558C98.0188 301.664 97.6557 307.791 97.6557 309.189C97.6557 311.335 103.223 315.197 103.223 315.197C103.223 315.197 104.507 319.918 114.785 319.918C125.062 319.918 117.354 307.472 117.354 307.472L111.787 295.026C111.787 295.026 111.371 295.23 110.11 294.201L110.562 289.224L113.072 289.446L116.498 239.232C116.498 239.232 119.495 194.598 119.923 187.731C120.024 185.529 119.972 183.323 119.769 181.129L132.342 155.113L130.057 137.173ZM120.78 153.825L119.495 158.312V148.389L120.78 153.825ZM67.319 185.653C67.3296 184.08 67.2517 183.01 67.2517 183.01L75.6235 166.229L75.388 171.422C75.388 171.422 68.6833 179.922 67.319 185.653ZM86.9501 234.082L95.0864 205.327L99.7968 240.091L99.4591 252.729C98.8855 251.567 98.4249 250.353 98.084 249.103C96.7992 243.953 86.9501 234.082 86.9501 234.082Z" fill="#D0CDE1"/>
<path d="M202.833 302.389C198.821 300.733 191.032 297.185 190.088 295.292C189.144 293.4 184.424 278.734 184.424 278.734L183.208 278.823C183.052 272.16 182.382 246.34 181.356 243.253C181.356 243.253 186.312 202.33 176.399 186.009L174.613 178.777C175.199 175.878 175.124 169.165 174.747 168.031C174.275 166.612 180.176 162.118 178.524 159.279C176.871 156.441 172.387 146.742 172.387 146.742C172.387 146.742 172.859 140.592 166.487 134.915C166.487 134.915 164.624 124.349 156.233 124.191C155.098 122.207 153.51 119.052 153.978 117.647C154.478 116.143 156.391 111.454 157.471 108.83C158.045 108.57 158.596 108.262 159.119 107.911C165.793 104.914 170.497 97.7094 170.497 89.2933C170.497 80.284 165.108 72.6595 157.681 70.1028C158.011 69.2289 158.147 68.2929 158.077 67.3608C158.007 66.4287 157.734 65.5234 157.277 64.7087C156.819 63.8941 156.189 63.19 155.431 62.6463C154.672 62.1025 153.804 61.7324 152.887 61.5619C151.97 61.3915 151.027 61.4249 150.124 61.6599C149.221 61.8949 148.381 62.3257 147.663 62.9218C146.944 63.518 146.366 64.2649 145.967 65.1099C145.568 65.9549 145.36 66.8774 145.356 67.8121C144.947 66.8417 144.785 65.7851 144.883 64.7366C144.981 63.6881 145.337 62.6802 145.919 61.8031C146.5 60.9259 147.289 60.2067 148.216 59.7097C149.142 59.2126 150.177 58.9532 151.228 58.9546C151.641 58.9552 152.054 58.996 152.46 59.0764C151.061 58.4094 149.467 58.2768 147.977 58.7032C146.487 59.1297 145.203 60.086 144.367 61.393C143.53 62.7 143.198 64.2679 143.432 65.803C143.666 67.338 144.45 68.7348 145.638 69.7317C145.712 69.9652 145.799 70.1944 145.898 70.4179C138.91 73.2443 133.924 80.6284 133.924 89.2933C133.924 97.3309 138.215 104.264 144.414 107.482C144.381 110.097 143.734 114.505 140.136 117.191C138.278 116.34 135.699 115.406 134.044 115.829C133.188 115.161 131.897 114.94 130.14 116.701C126.6 120.249 123.531 129.475 123.531 135.152C123.531 140.829 124.239 173.708 124.239 173.708C124.239 173.708 120.463 175.128 123.059 177.257C123.595 177.704 124.268 177.955 124.966 177.967L127.544 197.126C127.544 197.126 125.891 215.577 132.264 215.813C132.764 215.841 133.26 215.719 133.69 215.463L128.96 236.866C128.96 236.866 118.103 243.962 109.606 257.918C105.23 265.107 103.048 269.529 101.958 272.132L100.401 271.165L94.9731 281.573C94.9731 281.573 82.9361 288.906 85.5323 294.346C88.1285 299.787 90.4887 301.206 90.4887 301.206L92.1409 300.496L95.209 306.174C95.209 306.174 103.234 317.764 116.215 311.851C116.824 311.03 117.153 310.035 117.153 309.012C117.153 307.989 116.824 306.994 116.215 306.174C114.091 303.098 108.662 296.475 108.662 296.475L112.202 278.498L111.47 278.043L133.916 250.822C133.916 250.822 140.525 246.801 142.885 243.253C145.245 239.704 159.878 203.04 159.878 203.04L168.139 241.36C168.139 241.36 167.667 255.316 169.791 264.305C170.949 269.347 171.704 274.474 172.049 279.636L171.443 279.681L172.859 290.325C172.859 290.325 166.723 305.464 170.971 306.647C173.993 307.429 177.07 307.983 180.176 308.302L180.648 306.647C180.648 306.647 198.821 316.582 205.43 309.249C205.43 309.249 206.846 304.045 202.833 302.389ZM138.164 186.245C138.872 186.955 138.636 190.267 138.636 190.267L137.22 199.492L135.806 205.891C135.61 202.867 135.216 199.861 134.624 196.89L133.971 179.211C134.099 179.292 134.24 179.351 134.388 179.386C134.86 179.386 134.624 175.364 134.624 175.364C134.624 175.364 134.9 174.646 135.243 173.513C136.161 176.266 137.281 178.062 138.636 178.439L138.872 181.514C138.872 181.514 135.804 182.934 138.636 182.934C138.801 182.928 138.964 182.903 139.123 182.861L138.872 184.116C138.872 184.116 137.456 185.536 138.164 186.245Z" fill="#D0CDE1"/>
<path d="M242.843 289.117L244.927 303.744L255.352 302.699L254.309 287.55L242.843 289.117Z" fill="#FFB8B8"/>
<path d="M193.326 289.117L191.241 303.744L180.817 302.699L181.859 287.55L193.326 289.117Z" fill="#FFB8B8"/>
<path d="M178.211 137.625C178.211 137.625 168.829 148.595 170.914 165.834C172.999 183.073 176.647 222.252 176.647 222.252L179.253 291.729L195.932 290.684L198.538 231.655L206.878 184.118L229.291 239.491C229.291 239.491 240.236 291.207 240.758 291.207C241.279 291.207 256.394 289.64 256.394 289.64L249.097 228.52C249.097 228.52 237.63 139.715 230.854 138.148C224.078 136.581 178.211 137.625 178.211 137.625Z" fill="#2F2E41"/>
<path d="M256.394 300.61C256.394 300.61 247.012 294.341 243.364 301.655C239.715 308.968 242.842 314.192 242.842 314.192C242.842 314.192 245.97 316.281 244.406 318.371C242.842 320.46 242.321 334.043 255.873 331.953C269.425 329.863 262.649 315.759 262.649 315.759L256.394 300.61Z" fill="#2F2E41"/>
<path d="M179.775 300.61C179.775 300.61 189.157 294.341 192.805 301.655C196.454 308.968 193.326 314.192 193.326 314.192C193.326 314.192 190.199 316.281 191.763 318.371C193.326 320.46 193.848 334.043 180.296 331.953C166.744 329.863 173.52 315.759 173.52 315.759L179.775 300.61Z" fill="#2F2E41"/>
<path d="M190.981 36.0214C190.981 36.0214 195.672 49.081 192.023 56.3944C188.375 63.7078 197.757 72.066 197.757 72.066C197.757 72.066 222.254 59.5287 219.127 53.2601C215.999 46.9915 210.787 38.6333 211.83 33.4094L190.981 36.0214Z" fill="#FFB8B8"/>
<path d="M200.102 40.9841C209.314 40.9841 216.781 33.4999 216.781 24.2677C216.781 15.0356 209.314 7.55139 200.102 7.55139C190.891 7.55139 183.423 15.0356 183.423 24.2677C183.423 33.4999 190.891 40.9841 200.102 40.9841Z" fill="#FFB8B8"/>
<path d="M188.114 55.6108C188.114 55.6108 204.849 69.5681 217.331 49.791L230.333 57.178L237.109 136.581C237.109 136.581 199.06 158.521 180.817 139.715L183.423 66.0585L188.114 55.6108Z" fill="#D0CDE1"/>
<path d="M193.37 47.7921L169.871 63.4465L178.211 102.103L167.265 162.177L184.987 135.536L193.37 47.7921Z" fill="url(#paint0_linear)"/>
<path d="M214.137 43.4348L219.909 47.2527L243.364 55.6108L239.715 120.387L249.618 162.177L235.545 169.491C235.545 169.491 232.939 149.64 216.781 139.715C200.623 129.79 210.451 46.408 214.137 43.4348Z" fill="url(#paint1_linear)"/>
<path d="M175.084 144.939L181.859 149.64C181.859 149.64 173.259 158.782 171.696 157.215C171.243 156.779 170.892 156.249 170.667 155.663C170.441 155.076 170.348 154.446 170.393 153.819L168.829 150.163L175.084 144.939Z" fill="#FFB8B8"/>
<path d="M220.127 143.922L217.824 147.551C217.824 147.551 211.048 150.685 212.611 152.775C214.175 154.864 227.206 159.566 229.812 154.864L232.418 150.163L220.127 143.922Z" fill="#FFB8B8"/>
<path d="M172.999 62.9242L169.35 63.4466L163.356 102.364C163.356 102.364 161.011 109.417 163.617 126.133C166.223 142.849 168.804 153.735 168.804 153.735L180.296 145.461L175.084 131.879L181.859 82.2525L172.999 62.9242Z" fill="url(#paint2_linear)"/>
<path d="M235.024 54.566L243.364 55.6108C243.364 55.6108 252.746 65.5361 254.309 75.9839C255.873 86.4316 255.352 116.208 255.352 116.208L231.376 154.342L218.345 144.939L236.588 112.551L227.727 73.8943L235.024 54.566Z" fill="url(#paint3_linear)"/>
<path d="M216.007 9.14858C213.485 5.04372 209.537 2.01887 204.923 0.656237L201.535 3.37332L202.852 0.204147C201.744 0.0347459 200.623 -0.030209 199.503 0.0101334L196.454 3.93913L197.716 0.144715C195.07 0.474241 192.521 1.34962 190.23 2.71564C187.938 4.08167 185.954 5.9087 184.402 8.08155C180.522 13.6897 179.867 21.4888 183.684 27.1407C184.731 23.9137 186.003 20.8856 187.051 17.6584C187.874 17.771 188.709 17.775 189.533 17.6706L190.808 14.6895L191.164 17.5445C195.115 17.1994 200.976 16.442 204.722 15.748L204.357 13.5579L206.537 15.3779C207.684 15.1131 208.366 14.873 208.309 14.6895C211.095 19.1906 213.855 22.0655 216.641 26.5666C217.699 20.2177 219.565 14.9403 216.007 9.14858Z" fill="#2F2E41"/>
<path d="M215.084 26.0057C215.708 26.0057 216.213 24.9924 216.213 23.7425C216.213 22.4925 215.708 21.4792 215.084 21.4792C214.46 21.4792 213.955 22.4925 213.955 23.7425C213.955 24.9924 214.46 26.0057 215.084 26.0057Z" fill="#FFB8B8"/>
<path d="M499.954 26.7394C499.969 26.6917 499.985 26.6435 500 26.5957C499.993 26.6167 499.985 26.6368 499.979 26.6578L499.954 26.7394Z" fill="#2F2E41"/>
</g>
<defs>
<linearGradient id="paint0_linear" x1="180.317" y1="47.7921" x2="180.317" y2="162.177" gradientUnits="userSpaceOnUse">
<stop stop-color="#09005D"/>
<stop offset="1" stop-color="#1A0F91"/>
</linearGradient>
<linearGradient id="paint1_linear" x1="228.706" y1="43.4348" x2="228.706" y2="169.491" gradientUnits="userSpaceOnUse">
<stop stop-color="#09005D"/>
<stop offset="1" stop-color="#1A0F91"/>
</linearGradient>
<linearGradient id="paint2_linear" x1="172.123" y1="62.9242" x2="172.123" y2="153.735" gradientUnits="userSpaceOnUse">
<stop stop-color="#09005D"/>
<stop offset="1" stop-color="#1A0F91"/>
</linearGradient>
<linearGradient id="paint3_linear" x1="236.89" y1="54.566" x2="236.89" y2="154.342" gradientUnits="userSpaceOnUse">
<stop stop-color="#09005D"/>
<stop offset="1" stop-color="#1A0F91"/>
</linearGradient>
<clipPath id="clip0">
<rect width="500" height="358.333" fill="white"/>
</clipPath>
</defs>
</svg>
